# Blender v2.83.0 OBJ File: 'woodcutter.blend'
# www.blender.org
mtllib Straight_Edge_Wall_Roof_Outer_Corner.mtl
o Straight_Edge_Wall_Roof_Outer_Corner
v 0.000000 0.000000 0.100000
v 1.000000 0.000000 0.100000
v -0.000049 0.500000 0.099996
v 1.000000 0.500000 0.100004
v 1.000000 0.000000 0.200000
v 0.000000 0.000000 0.200000
v -0.000098 1.000001 -0.000008
v 1.000000 1.000000 0.000008
v 0.000000 1.000000 1.000020
v 1.000000 1.000000 1.000020
v 1.000000 0.500000 0.000006
v -0.000074 0.500000 -0.000006
v -0.000098 1.000001 -0.000008
v 1.000000 1.000000 0.000008
v 0.000000 1.000000 1.000020
v 1.000000 1.000000 1.000020
v 0.157560 1.099995 0.397268
v 0.842439 1.099995 0.397268
v 0.157560 1.011027 0.448634
v 0.842439 1.011027 0.448634
v 0.157560 1.011027 0.551366
v 0.842439 1.011027 0.551366
v 0.157560 1.099995 0.602732
v 0.842439 1.099995 0.602732
v 0.157560 1.188964 0.551366
v 0.842439 1.188964 0.551366
v 0.157560 1.188964 0.448634
v 0.842439 1.188964 0.448634
v 0.157560 1.099995 0.177268
v 0.842439 1.099995 0.177268
v 0.157560 1.011027 0.228634
v 0.842439 1.011027 0.228634
v 0.157560 1.011027 0.331366
v 0.842439 1.011027 0.331366
v 0.157560 1.099995 0.382732
v 0.842439 1.099995 0.382732
v 0.157560 1.188964 0.331366
v 0.842439 1.188964 0.331366
v 0.157560 1.188964 0.228634
v 0.842439 1.188964 0.228634
v 0.157560 1.099995 0.617268
v 0.842439 1.099995 0.617268
v 0.157560 1.011027 0.668634
v 0.842439 1.011027 0.668634
v 0.157560 1.011027 0.771366
v 0.842439 1.011027 0.771366
v 0.157560 1.099995 0.822732
v 0.842439 1.099995 0.822732
v 0.157560 1.188964 0.771366
v 0.842439 1.188964 0.771366
v 0.157560 1.188964 0.668634
v 0.842439 1.188964 0.668634
v 0.157560 1.373096 0.390000
v 0.842439 1.373096 0.390000
v 0.157560 1.321730 0.301032
v 0.842439 1.321730 0.301032
v 0.157560 1.218998 0.301032
v 0.842439 1.218998 0.301032
v 0.157560 1.167632 0.390000
v 0.842439 1.167632 0.390000
v 0.157560 1.218998 0.478969
v 0.842439 1.218998 0.478969
v 0.157560 1.321730 0.478969
v 0.842439 1.321730 0.478969
v 0.157560 1.373096 0.610000
v 0.842439 1.373096 0.610000
v 0.157560 1.321730 0.521032
v 0.842439 1.321730 0.521032
v 0.157560 1.218998 0.521032
v 0.842439 1.218998 0.521032
v 0.157560 1.167632 0.610000
v 0.842439 1.167632 0.610000
v 0.157560 1.218998 0.698969
v 0.842439 1.218998 0.698969
v 0.157560 1.321730 0.698969
v 0.842439 1.321730 0.698969
vt 0.000000 0.000000
vt 0.000000 0.000000
vt 0.000000 0.000000
vt 0.000000 0.000000
vt 0.000000 0.000000
vt 0.000000 0.000000
vt 0.000000 0.000000
vt 0.000000 0.000000
vt 0.000000 0.000000
vt 0.000000 0.000000
vt 0.000000 0.000000
vt 0.000000 0.000000
vt 0.000000 0.000000
vt 0.000000 0.000000
vt 0.000000 0.000000
vt 0.000000 0.000000
vt 0.250000 0.490000
vt 0.042154 0.130000
vt 0.457846 0.130000
vt 0.750000 0.010000
vt 0.542154 0.130000
vt 0.542154 0.370000
vt 0.250000 0.490000
vt 0.042154 0.130000
vt 0.457846 0.130000
vt 0.750000 0.010000
vt 0.542154 0.130000
vt 0.542154 0.370000
vt 0.250000 0.490000
vt 0.042154 0.130000
vt 0.457846 0.130000
vt 0.750000 0.010000
vt 0.542154 0.130000
vt 0.542154 0.370000
vt 0.250000 0.490000
vt 0.042154 0.130000
vt 0.457846 0.130000
vt 0.750000 0.010000
vt 0.542154 0.130000
vt 0.542154 0.370000
vt 0.250000 0.490000
vt 0.042154 0.130000
vt 0.457846 0.130000
vt 0.750000 0.010000
vt 0.542154 0.130000
vt 0.542154 0.370000
vt 0.457846 0.370000
vt 0.042154 0.370000
vt 0.250000 0.010000
vt 0.750000 0.490000
vt 0.957846 0.370000
vt 0.957846 0.130000
vt 0.457846 0.370000
vt 0.042154 0.370000
vt 0.250000 0.010000
vt 0.750000 0.490000
vt 0.957846 0.370000
vt 0.957846 0.130000
vt 0.457846 0.370000
vt 0.042154 0.370000
vt 0.250000 0.010000
vt 0.750000 0.490000
vt 0.957846 0.370000
vt 0.957846 0.130000
vt 0.457846 0.370000
vt 0.042154 0.370000
vt 0.250000 0.010000
vt 0.750000 0.490000
vt 0.957846 0.370000
vt 0.957846 0.130000
vt 0.457846 0.370000
vt 0.042154 0.370000
vt 0.250000 0.010000
vt 0.750000 0.490000
vt 0.957846 0.370000
vt 0.957846 0.130000
vt 1.000000 1.000000
vt 0.833333 0.500000
vt 1.000000 0.500000
vt 0.833333 1.000000
vt 0.666667 0.500000
vt 0.666667 1.000000
vt 0.500000 0.500000
vt 0.500000 1.000000
vt 0.333333 0.500000
vt 0.333333 1.000000
vt 0.166667 0.500000
vt 0.166667 1.000000
vt -0.000000 0.500000
vt 1.000000 1.000000
vt 0.833333 0.500000
vt 1.000000 0.500000
vt 0.833333 1.000000
vt 0.666667 0.500000
vt 0.666667 1.000000
vt 0.500000 0.500000
vt 0.500000 1.000000
vt 0.333333 0.500000
vt 0.333333 1.000000
vt 0.166667 0.500000
vt 0.166667 1.000000
vt -0.000000 0.500000
vt 1.000000 1.000000
vt 0.833333 0.500000
vt 1.000000 0.500000
vt 0.833333 1.000000
vt 0.666667 0.500000
vt 0.666667 1.000000
vt 0.500000 0.500000
vt 0.500000 1.000000
vt 0.333333 0.500000
vt 0.333333 1.000000
vt 0.166667 0.500000
vt 0.166667 1.000000
vt -0.000000 0.500000
vt 1.000000 1.000000
vt 0.833333 0.500000
vt 1.000000 0.500000
vt 0.833333 1.000000
vt 0.666667 0.500000
vt 0.666667 1.000000
vt 0.500000 0.500000
vt 0.500000 1.000000
vt 0.333333 0.500000
vt 0.333333 1.000000
vt 0.166667 0.500000
vt 0.166667 1.000000
vt -0.000000 0.500000
vt 1.000000 1.000000
vt 0.833333 0.500000
vt 1.000000 0.500000
vt 0.833333 1.000000
vt 0.666667 0.500000
vt 0.666667 1.000000
vt 0.500000 0.500000
vt 0.500000 1.000000
vt 0.333333 0.500000
vt 0.333333 1.000000
vt 0.166667 0.500000
vt 0.166667 1.000000
vt -0.000000 0.500000
vt -0.000000 1.000000
vt -0.000000 1.000000
vt -0.000000 1.000000
vt -0.000000 1.000000
vt -0.000000 1.000000
vn 0.0000 0.0000 1.0000
vn 0.0000 0.0000 -1.0000
vn -0.0000 -1.0000 0.0000
vn 0.0000 1.0000 0.0000
vn 1.0000 0.0000 0.0000
vn -1.0000 0.0000 0.0000
vn 0.0000 -0.5000 -0.8660
vn 0.0000 -0.5000 0.8660
vn 0.0000 0.5000 0.8660
vn 0.0000 0.5000 -0.8660
vn 0.0000 0.8660 -0.5000
vn 0.0000 -0.8660 -0.5000
vn 0.0000 -0.8660 0.5000
vn 0.0000 0.8660 0.5000
usemtl roof
s off
f 9/1/1 13/2/1 15/3/1
f 12/4/2 8/5/2 11/6/2
f 3/7/3 11/6/3 4/8/3
f 8/5/1 16/9/1 14/10/1
f 10/11/1 15/3/1 16/9/1
f 7/12/1 14/10/1 13/2/1
f 8/5/4 9/1/4 10/11/4
f 9/1/1 7/12/1 13/2/1
f 12/4/2 7/12/2 8/5/2
f 3/7/3 12/4/3 11/6/3
f 8/5/1 10/11/1 16/9/1
f 10/11/1 9/1/1 15/3/1
f 7/12/1 8/5/1 14/10/1
f 8/5/4 7/12/4 9/1/4
usemtl wall
f 5/13/3 1/14/3 2/15/3
f 1/14/2 4/8/2 2/15/2
f 5/13/3 6/16/3 1/14/3
f 1/14/2 3/7/2 4/8/2
usemtl brown1
f 18/17/5 26/18/5 22/19/5
f 23/20/6 25/21/6 27/22/6
f 30/23/5 38/24/5 34/25/5
f 35/26/6 37/27/6 39/28/6
f 42/29/5 50/30/5 46/31/5
f 47/32/6 49/33/6 51/34/6
f 54/35/5 62/36/5 58/37/5
f 59/38/6 61/39/6 63/40/6
f 66/41/5 74/42/5 70/43/5
f 71/44/6 73/45/6 75/46/6
f 22/19/5 20/47/5 18/17/5
f 18/17/5 28/48/5 26/18/5
f 26/18/5 24/49/5 22/19/5
f 27/22/6 17/50/6 19/51/6
f 19/51/6 21/52/6 27/22/6
f 21/52/6 23/20/6 27/22/6
f 34/25/5 32/53/5 30/23/5
f 30/23/5 40/54/5 38/24/5
f 38/24/5 36/55/5 34/25/5
f 39/28/6 29/56/6 31/57/6
f 31/57/6 33/58/6 39/28/6
f 33/58/6 35/26/6 39/28/6
f 46/31/5 44/59/5 42/29/5
f 42/29/5 52/60/5 50/30/5
f 50/30/5 48/61/5 46/31/5
f 51/34/6 41/62/6 43/63/6
f 43/63/6 45/64/6 51/34/6
f 45/64/6 47/32/6 51/34/6
f 58/37/5 56/65/5 54/35/5
f 54/35/5 64/66/5 62/36/5
f 62/36/5 60/67/5 58/37/5
f 63/40/6 53/68/6 55/69/6
f 55/69/6 57/70/6 63/40/6
f 57/70/6 59/38/6 63/40/6
f 70/43/5 68/71/5 66/41/5
f 66/41/5 76/72/5 74/42/5
f 74/42/5 72/73/5 70/43/5
f 75/46/6 65/74/6 67/75/6
f 67/75/6 69/76/6 75/46/6
f 69/76/6 71/44/6 75/46/6
usemtl brown2
f 18/77/7 19/78/7 17/79/7
f 20/80/3 21/81/3 19/78/3
f 22/82/8 23/83/8 21/81/8
f 24/84/9 25/85/9 23/83/9
f 26/86/4 27/87/4 25/85/4
f 28/88/10 17/89/10 27/87/10
f 30/90/7 31/91/7 29/92/7
f 32/93/3 33/94/3 31/91/3
f 34/95/8 35/96/8 33/94/8
f 36/97/9 37/98/9 35/96/9
f 38/99/4 39/100/4 37/98/4
f 40/101/10 29/102/10 39/100/10
f 42/103/7 43/104/7 41/105/7
f 44/106/3 45/107/3 43/104/3
f 46/108/8 47/109/8 45/107/8
f 48/110/9 49/111/9 47/109/9
f 50/112/4 51/113/4 49/111/4
f 52/114/10 41/115/10 51/113/10
f 54/116/11 55/117/11 53/118/11
f 56/119/2 57/120/2 55/117/2
f 58/121/12 59/122/12 57/120/12
f 60/123/13 61/124/13 59/122/13
f 62/125/1 63/126/1 61/124/1
f 64/127/14 53/128/14 63/126/14
f 66/129/11 67/130/11 65/131/11
f 68/132/2 69/133/2 67/130/2
f 70/134/12 71/135/12 69/133/12
f 72/136/13 73/137/13 71/135/13
f 74/138/1 75/139/1 73/137/1
f 76/140/14 65/141/14 75/139/14
f 18/77/7 20/80/7 19/78/7
f 20/80/3 22/82/3 21/81/3
f 22/82/8 24/84/8 23/83/8
f 24/84/9 26/86/9 25/85/9
f 26/86/4 28/88/4 27/87/4
f 28/88/10 18/142/10 17/89/10
f 30/90/7 32/93/7 31/91/7
f 32/93/3 34/95/3 33/94/3
f 34/95/8 36/97/8 35/96/8
f 36/97/9 38/99/9 37/98/9
f 38/99/4 40/101/4 39/100/4
f 40/101/10 30/143/10 29/102/10
f 42/103/7 44/106/7 43/104/7
f 44/106/3 46/108/3 45/107/3
f 46/108/8 48/110/8 47/109/8
f 48/110/9 50/112/9 49/111/9
f 50/112/4 52/114/4 51/113/4
f 52/114/10 42/144/10 41/115/10
f 54/116/11 56/119/11 55/117/11
f 56/119/2 58/121/2 57/120/2
f 58/121/12 60/123/12 59/122/12
f 60/123/13 62/125/13 61/124/13
f 62/125/1 64/127/1 63/126/1
f 64/127/14 54/145/14 53/128/14
f 66/129/11 68/132/11 67/130/11
f 68/132/2 70/134/2 69/133/2
f 70/134/12 72/136/12 71/135/12
f 72/136/13 74/138/13 73/137/13
f 74/138/1 76/140/1 75/139/1
f 76/140/14 66/146/14 65/141/14
