# Blender v2.83.0 OBJ File: 'woodcutter.blend'
# www.blender.org
mtllib Straight_Edge_Wall_Roof_Left.mtl
o Straight_Edge_Wall_Roof_Left
v 0.000000 0.000000 0.100000
v 1.000000 0.000000 0.100000
v 0.900000 1.000000 0.200000
v 1.000000 1.000000 0.100000
v 0.900000 1.000000 0.100000
v 0.900000 1.000000 1.000000
v 1.000000 0.000000 0.200000
v 0.000000 0.000000 0.200000
v 1.000000 1.000000 1.000000
v 1.000000 0.500000 0.100000
v 1.000000 0.500000 0.100000
v 1.000000 1.000000 0.000000
v 1.000000 0.500000 0.000000
v 0.500000 0.000000 0.100000
v 0.500000 1.000000 0.100000
v 0.000000 0.750000 0.100000
v 0.500000 0.750000 0.100000
v 0.000000 0.750000 0.200000
v 0.000000 1.000000 0.200000
v 0.500000 1.000000 0.200000
v 0.500000 0.750000 0.200000
vt 0.500000 0.000000
vt 1.000000 0.000000
vt 0.000000 0.000000
vt 0.250000 0.000000
vt 0.000000 0.000000
vt 0.500000 0.405287
vt 0.000000 0.000000
vt 0.000000 0.000000
vt 0.000000 0.000000
vt 0.000000 0.000000
vt 0.250000 0.000000
vt 1.000000 0.000000
vt 0.000000 0.810574
vt 0.000000 0.000000
vt 0.500000 0.000000
vt 1.000000 0.810574
vt 0.500000 0.405287
vt 1.000000 0.000000
vt 0.000000 0.810574
vt 0.000000 0.000000
vn 0.0000 -1.0000 0.0000
vn -0.0000 -0.0000 -1.0000
vn -1.0000 0.0000 0.0000
vn 0.0000 1.0000 0.0000
usemtl wall
s off
f 14/1/1 7/2/1 8/3/1
f 17/4/2 5/5/2 10/6/2
f 16/7/2 14/1/2 1/8/2
f 17/4/3 20/9/3 15/10/3
f 16/7/4 21/11/4 17/4/4
f 8/3/1 1/8/1 14/1/1
f 14/1/1 2/12/1 7/2/1
f 2/12/2 14/1/2 10/6/2
f 14/1/2 17/4/2 10/6/2
f 17/4/2 15/10/2 5/5/2
f 5/5/2 4/13/2 10/6/2
f 16/7/2 17/4/2 14/1/2
f 17/4/3 21/11/3 20/9/3
f 16/7/4 18/14/4 21/11/4
usemtl roof
f 3/15/4 9/16/4 4/13/4
f 4/13/3 13/17/3 10/6/3
f 15/10/4 3/15/4 5/5/4
f 4/13/4 5/5/4 3/15/4
f 3/15/4 6/18/4 9/16/4
f 4/13/3 12/19/3 13/17/3
f 15/10/4 20/9/4 3/15/4
usemtl accent2
f 19/20/2 21/11/2 18/14/2
f 19/20/2 20/9/2 21/11/2
l 10 11
