# Blender v2.81 (sub 16) OBJ File: 'Test Building Piece Set.blend'
# www.blender.org
mtllib Inner_Corner_Wall_Roof_Left.mtl
o Inner_Corner_Wall_Roof_Left
v 0.000000 0.000000 0.100000
v 0.100000 0.000000 0.000000
v 0.000000 0.200000 0.100000
v 0.100000 0.200000 0.000000
v 0.000000 0.300000 0.200000
v 0.200000 0.300000 0.000000
v 0.000000 0.700000 0.200000
v 0.200000 0.700000 0.000000
v 0.000000 0.900000 0.000000
v 0.000000 1.000000 0.100000
v 0.000000 0.800000 0.100000
v 0.100000 0.000000 0.100000
v 0.100000 0.200000 0.100000
v 0.200000 0.300000 0.200000
v 0.200000 0.700000 0.200000
v 0.000000 1.000000 0.000000
v 0.000000 0.900000 0.000000
v 1.000000 0.900000 0.000000
v 1.000000 1.000000 0.000000
v 1.000000 1.000000 0.100000
vt 0.096165 0.222222
vt 1.000000 0.000000
vt 0.096165 0.000000
vt 1.000000 0.333333
vt 1.000000 0.222222
vt 0.096165 0.666667
vt 0.096165 0.333333
vt 0.096165 0.888889
vt 1.000000 0.666667
vt 0.000000 0.000000
vt 0.096165 0.222222
vt 0.000000 0.222222
vt 0.000000 0.888889
vt 0.000000 0.666667
vt 0.000000 0.333333
vt 0.000000 0.222222
vt 0.000000 0.000000
vt 0.000000 0.180205
vt 1.000000 0.000000
vt 0.000000 0.000000
vt 0.000000 0.513538
vt 1.000000 0.180205
vt 0.096165 0.000000
vt 1.000000 0.513538
vn -1.0000 0.0000 0.0000
vn -0.7071 0.7071 0.0000
vn -0.7071 -0.7071 0.0000
vn 0.0000 -0.7071 -0.7071
vn 0.0000 0.0000 -1.0000
vn 0.0000 0.7071 -0.7071
vn 0.0000 1.0000 0.0000
usemtl None
s off
f 13/1/1 2/2/1 12/3/1
f 13/1/2 6/4/2 4/5/2
f 15/6/1 6/4/1 14/7/1
f 9/8/3 8/9/3 15/6/3
f 10/10/1 17/11/1 11/12/1
f 9/13/4 15/6/4 7/14/4
f 7/14/5 14/7/5 5/15/5
f 5/15/6 13/1/6 3/16/6
f 3/16/5 12/3/5 1/17/5
f 16/18/5 18/19/5 17/20/5
f 10/21/7 19/22/7 16/18/7
f 13/1/1 4/5/1 2/2/1
f 13/1/2 14/7/2 6/4/2
f 15/6/1 8/9/1 6/4/1
f 10/10/1 16/23/1 17/11/1
f 7/14/5 15/6/5 14/7/5
f 5/15/6 14/7/6 13/1/6
f 3/16/5 13/1/5 12/3/5
f 16/18/5 19/22/5 18/19/5
f 10/21/7 20/24/7 19/22/7
