# Blender v2.81 (sub 16) OBJ File: 'Test Building Piece Set.blend'
# www.blender.org
mtllib Inner_Corner_Wall_Roof_Outer_Corner.mtl
o Inner_Corner_Wall_Roof_Outer_Corner_Grid.009
v 0.000000 0.000000 0.100000
v 0.100000 0.000000 0.000000
v 0.000000 0.200000 0.100000
v 0.100000 0.200000 0.000000
v 0.000000 0.300000 0.200000
v 0.200000 0.300000 0.000000
v 0.000000 0.700000 0.200000
v 0.200000 0.700000 0.000000
v 0.000000 0.900000 0.000000
v -0.000393 1.000004 -0.000057
v 0.300000 0.900000 0.000000
v 0.000000 1.000000 0.200000
v 0.300000 0.900000 0.300000
v 0.000000 0.900000 0.300000
v 0.000000 0.900000 1.000020
v 1.000000 0.900000 0.000000
v 0.100000 0.000000 0.100000
v 0.100000 0.200000 0.100000
v 0.200000 0.300000 0.200000
v 0.200000 0.700000 0.200000
v 0.200000 1.000003 0.000000
v 0.200000 1.000000 0.200000
v 1.000000 0.900000 1.000020
vt 0.096165 0.222222
vt 1.000000 0.000000
vt 0.096165 0.000000
vt 1.000000 0.333333
vt 1.000000 0.222222
vt 0.096165 0.666667
vt 0.096165 0.333333
vt 0.096165 0.888889
vt 1.000000 0.666667
vt 0.096165 0.222222
vt 1.000000 0.000000
vt 0.096165 0.000000
vt 0.096165 0.333333
vt 1.000000 1.000000
vt 1.000000 0.333333
vt 0.000000 1.000000
vt 0.000000 0.333333
vt 0.000000 0.222222
vt 0.000000 0.000000
vt 0.000000 0.888889
vt 0.000000 0.666667
vt 0.000000 0.333333
vt 0.000000 0.222222
vt 0.000000 0.000000
vt 1.000000 0.222222
vt 0.096165 1.000000
vn -1.0000 0.0000 0.0000
vn -0.7071 0.7071 0.0000
vn -0.7071 -0.7071 0.0000
vn 0.7071 0.7071 0.0000
vn 0.0000 1.0000 0.0000
vn 0.0000 0.7071 0.7071
vn 0.0000 -0.7071 -0.7071
vn 0.0000 0.0000 -1.0000
vn 0.0000 0.7071 -0.7071
usemtl None
s off
f 18/1/1 2/2/1 17/3/1
f 18/1/2 6/4/2 4/5/2
f 20/6/1 6/4/1 19/7/1
f 9/8/3 8/9/3 20/6/3
f 22/10/4 11/11/4 21/12/4
f 13/13/5 16/14/5 11/15/5
f 15/16/5 13/13/5 14/17/5
f 14/17/6 22/10/6 12/18/6
f 12/18/5 21/12/5 10/19/5
f 9/20/7 20/6/7 7/21/7
f 7/21/8 19/7/8 5/22/8
f 5/22/9 18/1/9 3/23/9
f 3/23/8 17/3/8 1/24/8
f 18/1/1 4/5/1 2/2/1
f 18/1/2 19/7/2 6/4/2
f 20/6/1 8/9/1 6/4/1
f 22/10/4 13/25/4 11/11/4
f 13/13/5 23/26/5 16/14/5
f 15/16/5 23/26/5 13/13/5
f 14/17/6 13/13/6 22/10/6
f 12/18/5 22/10/5 21/12/5
f 7/21/8 20/6/8 19/7/8
f 5/22/9 19/7/9 18/1/9
f 3/23/8 18/1/8 17/3/8
