# Blender v2.81 (sub 16) OBJ File: 'Test Building Piece Set.blend'
# www.blender.org
mtllib Outer_Corner_Wall_Roof_Outer_Corner.mtl
o Outer_Corner_Wall_Roof_Outer_Corner_Grid.005
v 0.100000 0.000000 1.000000
v 1.000000 0.000000 0.100000
v 0.100000 0.200000 1.000000
v 1.000000 0.200000 0.100000
v 0.200000 0.300000 1.000000
v 1.000000 0.300000 0.200000
v 0.200000 0.700000 1.000000
v 1.000000 0.700000 0.200000
v 0.000000 0.900000 1.000000
v 1.000000 0.900000 0.000000
v 0.000000 1.000004 1.000000
v 1.000000 1.000000 0.000010
v 0.200000 1.000000 1.000000
v 1.000000 1.000000 0.200000
v 0.200000 1.000000 0.200000
v 1.000000 0.900000 0.300000
v 1.000000 0.900000 1.000020
v 0.100000 0.000000 0.100000
v 0.100000 0.200000 0.100000
v 0.200000 0.300000 0.200000
v 0.200000 0.700000 0.200000
v 0.000000 0.900000 0.000000
v 0.000000 1.000003 0.000000
v 0.300000 0.900000 0.300000
v 0.300000 0.900000 1.000020
vt 0.119362 0.222222
vt 1.000000 0.000000
vt 0.119362 0.000000
vt 0.119362 0.333333
vt 1.000000 0.222222
vt 0.119362 0.666667
vt 1.000000 0.333333
vt 1.000000 0.888889
vt 0.119362 0.888889
vt 1.000000 1.000000
vt 0.119362 0.222222
vt 1.000000 0.000000
vt 0.119362 0.000000
vt 0.119362 0.333333
vt 1.000000 0.222222
vt 0.119362 1.000000
vt 1.000000 0.333333
vt 0.000000 1.000000
vt 0.000000 0.333333
vt 0.000000 0.000000
vt 0.000000 0.222222
vt 0.000000 1.000000
vt 0.000000 0.888889
vt 0.000000 0.666667
vt 0.000000 0.333333
vt 0.000000 0.222222
vt 0.000000 0.000000
vt 1.000000 0.666667
vt 0.119362 1.000000
vt 1.000000 1.000000
vn 0.0000 0.0000 -1.0000
vn 0.0000 0.7071 -0.7071
vn 0.0000 -0.7071 -0.7071
vn 0.0000 0.0001 -1.0000
vn 0.0000 1.0000 0.0000
vn 0.0000 0.7071 0.7071
vn 0.7071 0.7071 0.0000
vn -1.0000 0.0000 0.0000
vn -0.7071 -0.7071 0.0000
vn -0.7071 0.7071 0.0000
usemtl None
s off
f 19/1/1 2/2/1 18/3/1
f 20/4/2 4/5/2 19/1/2
f 21/6/1 6/7/1 20/4/1
f 10/8/3 21/6/3 22/9/3
f 22/9/4 12/10/4 10/8/4
f 15/11/5 12/12/5 23/13/5
f 24/14/6 14/15/6 15/11/6
f 25/16/5 16/17/5 24/14/5
f 13/18/7 24/14/7 15/19/7
f 15/11/5 11/20/5 13/21/5
f 11/22/8 22/9/8 9/23/8
f 9/23/9 21/6/9 7/24/9
f 7/24/8 20/4/8 5/25/8
f 3/26/10 20/4/10 19/1/10
f 3/26/8 18/3/8 1/27/8
f 19/1/1 4/5/1 2/2/1
f 20/4/2 6/7/2 4/5/2
f 21/6/1 8/28/1 6/7/1
f 10/8/3 8/28/3 21/6/3
f 22/9/1 23/29/1 12/10/1
f 15/11/5 14/15/5 12/12/5
f 24/14/6 16/17/6 14/15/6
f 25/16/5 17/30/5 16/17/5
f 13/18/7 25/16/7 24/14/7
f 15/11/5 23/13/5 11/20/5
f 11/22/8 23/29/8 22/9/8
f 9/23/9 22/9/9 21/6/9
f 7/24/8 21/6/8 20/4/8
f 3/26/10 5/25/10 20/4/10
f 3/26/8 19/1/8 18/3/8
