# Blender v2.81 (sub 16) OBJ File: 'Test Building Piece Set.blend'
# www.blender.org
mtllib Outer_Corner_Wall.mtl
o Outer_Corner_Wall_Grid.004
v 0.100000 0.000000 1.000000
v 1.000000 0.000000 0.100000
v 0.100000 0.200000 1.000000
v 1.000000 0.200000 0.100000
v 0.200000 0.300000 1.000000
v 1.000000 0.300000 0.200000
v 0.200000 0.700000 1.000000
v 1.000000 0.700000 0.200000
v 0.100000 0.800000 1.000000
v 1.000000 0.800000 0.100000
v 0.100000 1.000000 1.000000
v 1.000000 1.000000 0.100000
v 0.100000 0.000000 0.100000
v 0.100000 0.200000 0.100000
v 0.200000 0.300000 0.200000
v 0.200000 0.700000 0.200000
v 0.100000 0.800000 0.100000
v 0.100000 1.000000 0.100000
vt 0.158960 0.222222
vt 1.000000 0.000000
vt 0.158960 0.000000
vt 0.158960 0.333333
vt 1.000000 0.222222
vt 0.158960 0.666667
vt 1.000000 0.333333
vt 1.000000 0.777778
vt 1.000000 0.666667
vt 0.158960 1.000000
vt 0.158960 0.777778
vt 0.000000 1.000000
vt 0.000000 0.777778
vt 0.000000 0.666667
vt 0.000000 0.333333
vt 0.000000 0.222222
vt 0.000000 0.000000
vt 1.000000 1.000000
vn 0.0000 0.0000 -1.0000
vn 0.0000 0.7071 -0.7071
vn 0.0000 -0.7071 -0.7071
vn -1.0000 0.0000 0.0000
vn -0.7071 -0.7071 0.0000
vn -0.7071 0.7071 0.0000
usemtl None
s off
f 14/1/1 2/2/1 13/3/1
f 15/4/2 4/5/2 14/1/2
f 16/6/1 6/7/1 15/4/1
f 16/6/3 10/8/3 8/9/3
f 18/10/1 10/8/1 17/11/1
f 11/12/4 17/11/4 9/13/4
f 9/13/5 16/6/5 7/14/5
f 7/14/4 15/4/4 5/15/4
f 3/16/6 15/4/6 14/1/6
f 3/16/4 13/3/4 1/17/4
f 14/1/1 4/5/1 2/2/1
f 15/4/2 6/7/2 4/5/2
f 16/6/1 8/9/1 6/7/1
f 16/6/3 17/11/3 10/8/3
f 18/10/1 12/18/1 10/8/1
f 11/12/4 18/10/4 17/11/4
f 9/13/5 17/11/5 16/6/5
f 7/14/4 16/6/4 15/4/4
f 3/16/6 5/15/6 15/4/6
f 3/16/4 14/1/4 13/3/4
