# Blender v2.81 (sub 16) OBJ File: 'Test Building Piece Set.blend'
# www.blender.org
mtllib Straight_Edge_Wall_Roof_Right.mtl
o Straight_Edge_Wall_Roof_Right_Grid.003
v 1.000000 0.000000 0.100000
v 0.000000 0.000000 0.100000
v 1.000000 0.200000 0.100000
v 0.000000 0.200000 0.100000
v 1.000000 0.300000 0.200000
v 0.000000 0.300000 0.200000
v 1.000000 0.700000 0.200000
v 0.000000 0.700000 0.200000
v 1.000000 0.800000 0.100000
v 0.000000 0.800000 0.100000
v 1.000000 1.000000 0.100000
v 0.000000 1.000000 0.100000
v 0.100000 1.000000 0.100000
v 0.100000 1.000000 1.000000
v 0.000000 0.900000 0.100000
v 0.000000 0.900000 1.000000
v 0.000000 1.000000 1.000000
vt 1.000000 0.000000
vt 0.000000 0.222222
vt 0.000000 0.000000
vt 1.000000 0.222222
vt 0.000000 0.333333
vt 1.000000 0.333333
vt 0.000000 0.666667
vt 1.000000 0.666667
vt 0.000000 0.777778
vt 1.000000 0.777778
vt 0.000000 1.000000
vt 0.000000 1.000000
vt 1.000000 0.810574
vt 0.000000 0.810574
vt 1.000000 0.000000
vt 0.000000 0.000000
vt 1.000000 1.000000
vt 1.000000 1.000000
vn 0.0000 0.0000 -1.0000
vn 0.0000 0.7071 -0.7071
vn 0.0000 -0.7071 -0.7071
vn -1.0000 0.0000 0.0000
vn 0.0000 1.0000 0.0000
usemtl None
s off
f 2/1/1 3/2/1 1/3/1
f 4/4/2 5/5/2 3/2/2
f 6/6/1 7/7/1 5/5/1
f 8/8/3 9/9/3 7/7/3
f 10/10/1 11/11/1 9/9/1
f 15/12/4 17/13/4 12/14/4
f 12/14/5 14/15/5 13/16/5
f 2/1/1 4/4/1 3/2/1
f 4/4/2 6/6/2 5/5/2
f 6/6/1 8/8/1 7/7/1
f 8/8/3 10/10/3 9/9/3
f 10/10/1 12/17/1 11/11/1
f 15/12/4 16/18/4 17/13/4
f 12/14/5 17/13/5 14/15/5
