# Blender v2.81 (sub 16) OBJ File: 'Test Building Piece Set.blend'
# www.blender.org
mtllib Straight_Edge_Wall.mtl
o Straight_Edge_Wall_Grid
v 0.000000 0.000000 0.100000
v 1.000000 0.000000 0.100000
v 0.000000 0.200000 0.100000
v 1.000000 0.200000 0.100000
v 0.000000 0.300000 0.200000
v 1.000000 0.300000 0.200000
v 0.000000 0.700000 0.200000
v 1.000000 0.700000 0.200000
v 0.000000 0.800000 0.100000
v 1.000000 0.800000 0.100000
v 0.000000 1.000000 0.100000
v 1.000000 1.000000 0.100000
vt 0.000000 0.222222
vt 1.000000 0.000000
vt 0.000000 0.000000
vt 0.000000 0.333333
vt 1.000000 0.222222
vt 0.000000 0.666667
vt 1.000000 0.333333
vt 0.000000 0.777778
vt 1.000000 0.666667
vt 0.000000 1.000000
vt 1.000000 0.777778
vt 1.000000 1.000000
vn 0.0000 0.0000 -1.0000
vn 0.0000 0.7071 -0.7071
vn 0.0000 -0.7071 -0.7071
usemtl None
s off
f 3/1/1 2/2/1 1/3/1
f 5/4/2 4/5/2 3/1/2
f 7/6/1 6/7/1 5/4/1
f 9/8/3 8/9/3 7/6/3
f 11/10/1 10/11/1 9/8/1
f 3/1/1 4/5/1 2/2/1
f 5/4/2 6/7/2 4/5/2
f 7/6/1 8/9/1 6/7/1
f 9/8/3 10/11/3 8/9/3
f 11/10/1 12/12/1 10/11/1
