# Blender v2.81 (sub 16) OBJ File: 'Mine Building Piece Set.blend'
# www.blender.org
mtllib Inner_Corner_Wall_Roof_Right.mtl
o Inner_Corner_Wall_Roof_Right
v 0.200000 1.000000 1.000000
v 0.000000 1.000000 1.000000
v 0.000000 1.000000 0.000000
v 0.200000 1.000000 0.000000
v 0.000000 1.000000 0.500000
v 0.200000 1.000000 0.500000
v 0.000000 0.900002 0.000000
v 0.000000 0.899998 0.200000
v 0.200000 0.900002 0.000000
v 0.200000 0.899998 0.200000
v 0.000000 0.000000 0.100000
v 0.000000 0.900000 0.100000
v 0.000000 0.666667 0.100000
v 0.000000 0.333333 0.100000
v 0.062500 0.900000 0.100000
v 0.062500 0.000000 0.100000
v 0.062500 0.333333 0.100000
v 0.062500 0.666667 0.100000
v 0.100000 0.000000 0.000000
v 0.100000 0.900000 0.000000
v 0.100000 0.000000 0.062500
v 0.100000 0.900000 0.062500
v 0.100000 0.333333 0.000000
v 0.100000 0.666667 0.000000
v 0.100000 0.666667 0.062500
v 0.100000 0.333333 0.062500
vt 0.000000 0.000000
vt 0.096165 0.222222
vt 0.000000 0.222222
vt 0.000000 0.333333
vt 0.062500 0.000000
vt 0.000000 0.000000
vt 0.875000 0.333333
vt 1.000000 0.000000
vt 0.875000 0.000000
vt 0.096165 0.000000
vt 0.062500 0.333333
vt 1.000000 0.333333
vt 0.000000 0.666667
vt 0.875000 0.666667
vt 0.062500 0.666667
vt 1.000000 0.666667
vt 0.052221 0.513538
vt 0.104443 0.180205
vt 0.052221 0.180205
vt 0.000000 1.000000
vt 0.875000 1.000000
vt 0.104443 0.513538
vt 0.062500 1.000000
vt 1.000000 1.000000
vt 0.000000 0.513538
vt 0.000000 0.180205
vn 0.0000 -1.0000 -0.0000
vn 0.0000 0.0000 -1.0000
vn -1.0000 0.0000 0.0000
vn 0.0000 1.0000 0.0000
vn -0.7071 0.0000 -0.7071
usemtl Steel_1
s off
f 7/1/1 10/2/1 8/3/1
f 14/4/2 16/5/2 11/6/2
f 26/7/3 19/8/3 21/9/3
f 7/1/1 9/10/1 10/2/1
f 14/4/2 17/11/2 16/5/2
f 26/7/3 23/12/3 19/8/3
usemtl Rust_1
f 13/13/2 17/11/2 14/4/2
f 25/14/3 23/12/3 26/7/3
f 13/13/2 18/15/2 17/11/2
f 25/14/3 24/16/3 23/12/3
usemtl Steel_2
f 6/17/4 3/18/4 5/19/4
f 12/20/2 18/15/2 13/13/2
f 22/21/3 24/16/3 25/14/3
f 17/11/5 21/9/5 16/5/5
f 18/15/5 26/7/5 17/11/5
f 6/17/4 4/22/4 3/18/4
f 12/20/2 15/23/2 18/15/2
f 22/21/3 20/24/3 24/16/3
f 17/11/5 26/7/5 21/9/5
f 18/15/5 25/14/5 26/7/5
usemtl Rust_2
f 1/25/4 5/19/4 2/26/4
f 4/22/2 7/1/2 3/18/2
f 15/23/5 25/14/5 18/15/5
f 1/25/4 6/17/4 5/19/4
f 4/22/2 9/10/2 7/1/2
f 15/23/5 22/21/5 25/14/5
