# Blender v2.81 (sub 16) OBJ File: 'Mine Building Piece Set.blend'
# www.blender.org
mtllib Straight_Edge_Roof_Wall_Inner_Corner.mtl
o Straight_Edge_Roof_Wall_Inner_Corner
v 0.000000 1.000000 0.200000
v 0.000000 1.000000 0.000000
v 1.000000 1.000000 0.000000
v 1.000000 1.000000 0.200000
v 0.500000 1.000000 0.000000
v 0.500000 1.000000 0.200000
vt 0.500000 0.513538
vt 1.000000 0.180205
vt 0.500000 0.180205
vt 1.000000 0.513538
vt 0.000000 0.513538
vt 0.000000 0.180205
vn 0.0000 1.0000 0.0000
usemtl Steel_1
s off
f 6/1/1 3/2/1 5/3/1
f 6/1/1 4/4/1 3/2/1
usemtl Rust_2
f 1/5/1 5/3/1 2/6/1
f 1/5/1 6/1/1 5/3/1
