# Blender v2.81 (sub 16) OBJ File: 'Mine Building Piece Set.blend'
# www.blender.org
mtllib Straight_Edge_Wall_Roof_Right.mtl
o Straight_Edge_Wall_Roof_Right
v 0.000000 0.900000 0.200000
v 0.000000 1.000000 -0.000000
v 0.187500 1.000000 0.200000
v 0.200000 1.000000 1.000000
v 0.000000 1.000000 1.000000
v 0.000000 0.900000 -0.000000
v 0.000000 0.000000 0.100000
v 1.000000 0.000000 0.100000
v 0.000000 1.000000 0.100000
v 1.000000 1.000000 0.100000
v 0.187500 0.000000 0.200000
v 0.312500 0.000000 0.200000
v 0.437500 0.000000 0.100000
v 0.562500 0.000000 0.100000
v 0.687500 0.000000 0.200000
v 0.812500 0.000000 0.200000
v 0.937500 0.000000 0.100000
v 0.937500 1.000000 0.100000
v 0.812500 1.000000 0.200000
v 0.687500 1.000000 0.200000
v 0.562500 1.000000 0.100000
v 0.437500 1.000000 0.100000
v 0.312500 1.000000 0.200000
v 0.000000 0.666667 0.100000
v 0.000000 0.333333 0.100000
v 1.000000 0.333333 0.100000
v 1.000000 0.666667 0.100000
v 0.187500 0.666667 0.200000
v 0.187500 0.333333 0.200000
v 0.312500 0.666667 0.200000
v 0.312500 0.333333 0.200000
v 0.437500 0.666667 0.100000
v 0.437500 0.333333 0.100000
v 0.562500 0.666667 0.100000
v 0.562500 0.333333 0.100000
v 0.687500 0.666667 0.200000
v 0.687500 0.333333 0.200000
v 0.812500 0.666667 0.200000
v 0.812500 0.333333 0.200000
v 0.937500 0.666667 0.100000
v 0.937500 0.333333 0.100000
v 0.062500 1.000000 0.100000
v 0.062500 0.000000 0.100000
v 0.062500 0.333333 0.100000
v 0.062500 0.666667 0.100000
v 0.200000 1.000000 0.200000
v 0.200000 0.900000 0.200000
v 0.200000 1.000000 0.500000
v 0.000000 1.000000 0.500000
vt 0.000000 0.000000
vt 0.000000 0.000000
vt 0.000000 0.000000
vt 0.375000 1.000000
vt 0.500000 0.666667
vt 0.375000 0.666667
vt 0.062500 0.666667
vt 0.125000 1.000000
vt 0.125000 0.666667
vt 0.875000 0.333333
vt 1.000000 0.000000
vt 0.875000 0.000000
vt 0.250000 0.333333
vt 0.125000 0.333333
vt 0.500000 0.333333
vt 0.375000 0.333333
vt 0.625000 0.000000
vt 0.500000 0.000000
vt 0.625000 0.333333
vt 0.750000 0.000000
vt 0.000000 0.333333
vt 0.062500 0.000000
vt 0.000000 0.000000
vt 0.000000 0.000000
vt 0.500000 1.000000
vt 0.062500 1.000000
vt 1.000000 0.333333
vt 0.250000 0.666667
vt 0.625000 0.666667
vt 0.750000 0.333333
vt 0.062500 0.333333
vt 0.000000 0.000000
vt 0.000000 0.000000
vt 0.000000 0.000000
vt 0.750000 1.000000
vt 0.875000 0.666667
vt 0.750000 0.666667
vt 0.250000 1.000000
vt 0.875000 1.000000
vt 1.000000 0.666667
vt 0.250000 0.000000
vt 0.125000 0.000000
vt 0.000000 1.000000
vt 0.000000 0.666667
vt 0.000000 0.000000
vt 1.000000 1.000000
vt 0.375000 0.000000
vt 0.625000 1.000000
vt 0.000000 0.000000
vn 0.0000 1.0000 0.0000
vn 0.0000 0.0000 -1.0000
vn 0.6247 0.0000 -0.7809
vn 0.7071 0.0000 -0.7071
vn -0.6247 0.0000 -0.7809
vn 0.0000 -1.0000 0.0000
usemtl Steel_1
s off
f 5/1/1 48/2/1 49/3/1
f 22/4/2 34/5/2 32/6/2
f 45/7/3 3/8/3 28/9/3
f 41/10/2 8/11/2 17/12/2
f 28/9/2 31/13/2 29/14/2
f 32/6/2 35/15/2 33/16/2
f 35/15/3 15/17/3 14/18/3
f 34/5/3 37/19/3 35/15/3
f 37/19/2 16/20/2 15/17/2
f 25/21/2 43/22/2 7/23/2
f 5/1/1 4/24/1 48/2/1
f 22/4/2 21/25/2 34/5/2
f 45/7/3 42/26/3 3/8/3
f 41/10/2 26/27/2 8/11/2
f 28/9/2 30/28/2 31/13/2
f 32/6/2 34/5/2 35/15/2
f 35/15/3 37/19/3 15/17/3
f 34/5/3 36/29/3 37/19/3
f 37/19/2 39/30/2 16/20/2
f 25/21/2 44/31/2 43/22/2
usemtl Steel_2
f 6/32/4 46/33/4 47/34/4
f 19/35/5 40/36/5 38/37/5
f 23/38/5 32/6/5 30/28/5
f 18/39/2 27/40/2 40/36/2
f 29/14/2 12/41/2 11/42/2
f 38/37/5 41/10/5 39/30/5
f 9/43/2 45/7/2 24/44/2
f 6/32/4 2/45/4 46/33/4
f 19/35/5 18/39/5 40/36/5
f 23/38/5 22/4/5 32/6/5
f 18/39/2 10/46/2 27/40/2
f 29/14/2 31/13/2 12/41/2
f 38/37/5 40/36/5 41/10/5
f 9/43/2 42/26/2 45/7/2
usemtl Rust_1
f 21/25/3 36/29/3 34/5/3
f 3/8/2 30/28/2 28/9/2
f 40/36/2 26/27/2 41/10/2
f 44/31/3 11/42/3 43/22/3
f 31/13/5 13/47/5 12/41/5
f 30/28/5 33/16/5 31/13/5
f 39/30/5 17/12/5 16/20/5
f 24/44/2 44/31/2 25/21/2
f 21/25/3 20/48/3 36/29/3
f 3/8/2 23/38/2 30/28/2
f 40/36/2 27/40/2 26/27/2
f 44/31/3 29/14/3 11/42/3
f 31/13/5 33/16/5 13/47/5
f 30/28/5 32/6/5 33/16/5
f 39/30/5 41/10/5 17/12/5
f 24/44/2 45/7/2 44/31/2
usemtl Rust_2
f 6/32/6 47/34/6 1/49/6
f 20/48/2 38/37/2 36/29/2
f 45/7/3 29/14/3 44/31/3
f 33/16/2 14/18/2 13/47/2
f 36/29/2 39/30/2 37/19/2
f 49/3/1 46/33/1 2/45/1
f 20/48/2 19/35/2 38/37/2
f 45/7/3 28/9/3 29/14/3
f 33/16/2 35/15/2 14/18/2
f 36/29/2 38/37/2 39/30/2
f 49/3/1 48/2/1 46/33/1
