# Blender v2.83.0 OBJ File: 'reforester.blend'
# www.blender.org
mtllib No_Edge_Roof.mtl
o No_Edge_Roof
v 0.000000 1.000000 0.000000
v 1.000000 1.000000 0.000000
v 0.000000 1.000000 1.000000
v 1.000000 1.000000 1.000000
v 0.489717 1.660289 0.525885
v 0.615436 1.167971 0.607370
v 0.353505 1.167971 0.530407
v 0.596142 1.167971 0.521147
v 0.607960 1.167971 0.426941
v 0.394814 1.167970 0.673696
v 0.370445 1.167971 0.395749
v 0.390504 0.983908 0.544609
v 0.438000 1.185220 0.469457
v 0.448566 1.185220 0.589977
v 0.540988 1.185220 0.482982
v 0.552846 0.992296 0.554757
v 0.531942 0.992296 0.508864
v 0.527478 0.992296 0.454859
v 0.433298 0.983908 0.625237
v 0.535864 1.185220 0.523831
v 0.391154 0.992296 0.465334
v 0.430654 1.185220 0.527846
v 0.544230 1.185220 0.561218
vt 0.000000 0.000000
vt 0.000000 0.000000
vt 0.000000 0.000000
vt 0.000000 0.000000
vt 0.000000 0.000000
vt 0.000000 0.000000
vt 0.000000 0.000000
vt 0.000000 0.000000
vt 0.000000 0.000000
vt 0.000000 0.000000
vt 0.000000 0.000000
vt 0.000000 0.000000
vt 0.000000 0.000000
vt 0.000000 0.000000
vt 0.000000 0.000000
vt 0.000000 0.000000
vt 0.000000 0.000000
vt 0.000000 0.000000
vt 0.000000 0.000000
vt 0.000000 1.000000
vt 1.000000 0.000000
vt 0.000000 0.000000
vt 1.000000 1.000000
vn 0.2190 -0.9753 0.0275
vn -0.2721 -0.9603 0.0609
vn 0.9704 0.2086 0.1217
vn 0.2158 -0.9745 -0.0622
vn -0.0337 -0.9658 0.2570
vn -0.0742 -0.9662 -0.2467
vn 0.1269 0.2246 -0.9661
vn -0.2764 -0.9604 -0.0347
vn 0.9544 0.2084 -0.2136
vn -0.9571 0.2637 -0.1204
vn 0.2805 0.2260 0.9329
vn -0.9280 0.2592 0.2675
vn 0.9746 0.0508 -0.2181
vn 0.4987 0.1127 0.8594
vn -0.0081 -0.9944 -0.1053
vn 0.0533 -0.9982 -0.0283
vn 0.0580 -0.9983 -0.0048
vn 0.0531 -0.9983 -0.0242
vn 0.9918 -0.0298 0.1244
vn -0.9395 0.2099 0.2708
vn 0.1290 0.1342 -0.9825
vn -0.9640 0.2367 -0.1213
vn 0.9100 0.0137 -0.4145
vn 0.2878 -0.0192 0.9575
vn 0.9949 -0.0577 -0.0823
vn -0.8736 0.1475 0.4637
vn -0.0766 0.0399 -0.9963
vn -0.9804 0.1966 0.0128
vn 0.0000 1.0000 0.0000
usemtl green
s off
f 13/1/1 7/2/1 11/3/1
f 23/4/2 8/5/2 6/6/2
f 8/5/3 9/7/3 5/8/3
f 14/9/4 7/2/4 22/10/4
f 13/1/5 9/7/5 15/11/5
f 14/9/6 6/6/6 10/12/6
f 9/7/7 11/3/7 5/8/7
f 15/11/8 8/5/8 20/13/8
f 6/6/9 8/5/9 5/8/9
f 11/3/10 7/2/10 5/8/10
f 10/12/11 6/6/11 5/8/11
f 7/2/12 10/12/12 5/8/12
f 13/1/1 22/10/1 7/2/1
f 23/4/2 20/13/2 8/5/2
f 14/9/4 10/12/4 7/2/4
f 13/1/5 11/3/5 9/7/5
f 14/9/6 23/4/6 6/6/6
f 15/11/8 9/7/8 8/5/8
usemtl brown
f 16/14/13 20/13/13 23/4/13
f 16/14/14 14/9/14 19/15/14
f 12/16/15 21/17/15 18/18/15
f 19/15/16 12/16/16 16/14/16
f 12/16/17 18/18/17 17/19/17
f 12/16/18 17/19/18 16/14/18
f 17/19/19 15/11/19 20/13/19
f 12/16/20 14/9/20 22/10/20
f 18/18/21 13/1/21 15/11/21
f 21/17/22 22/10/22 13/1/22
f 16/14/23 17/19/23 20/13/23
f 16/14/24 23/4/24 14/9/24
f 17/19/25 18/18/25 15/11/25
f 12/16/26 19/15/26 14/9/26
f 18/18/27 21/17/27 13/1/27
f 21/17/28 12/16/28 22/10/28
usemtl green2
f 3/20/29 2/21/29 1/22/29
f 3/20/29 4/23/29 2/21/29
