# Blender v2.83.0 OBJ File: 'reforester.blend'
# www.blender.org
mtllib Outer_Corner_Wall.mtl
o Outer_Corner_Wall
v 0.100000 0.000000 1.000000
v 1.000000 0.000000 0.100000
v 0.500000 1.000000 0.100000
v 0.100000 0.000000 0.100000
v 0.500000 0.750000 0.100000
v 0.100000 0.750000 1.000000
v 1.000000 0.750000 0.100000
v 0.100000 0.750000 0.100000
v 0.100000 1.000000 0.100000
v 0.100000 0.750000 0.500000
v 0.100000 1.000000 0.500000
v 0.500000 1.000000 0.200000
v 0.500000 0.750000 0.200000
v 1.000000 0.750000 0.200000
v 1.000000 1.000000 0.200000
v 0.200000 1.000000 0.500000
v 0.200000 1.000000 1.000000
v 0.200000 0.750000 1.000000
v 0.200000 0.750000 0.500000
v 0.500000 0.000000 0.100000
v 1.000000 0.000000 0.200000
v 0.500000 0.000000 0.200000
v 0.100000 0.000000 0.500000
v 0.200000 0.000000 1.000000
v 0.200000 0.000000 0.500000
vt 0.000000 0.000000
vt 0.000000 0.000000
vt 0.000000 0.000000
vt 0.000000 0.000000
vt 0.000000 0.000000
vt 0.000000 0.000000
vt 0.000000 0.000000
vt 0.000000 0.000000
vt 0.000000 0.000000
vt 0.000000 0.000000
vt 0.000000 0.000000
vt 0.000000 0.000000
vt 0.000000 0.000000
vt 0.000000 0.000000
vt 0.000000 0.000000
vt 0.000000 0.000000
vt 0.000000 0.000000
vt 0.000000 0.000000
vt 0.000000 0.000000
vt 0.000000 0.000000
vt 0.000000 0.000000
vt 0.000000 0.000000
vt 0.000000 0.000000
vt 0.000000 0.000000
vt 0.000000 0.000000
vn 0.0000 0.0000 -1.0000
vn -1.0000 0.0000 0.0000
vn 1.0000 0.0000 0.0000
vn 0.0000 1.0000 0.0000
vn 0.0000 0.0000 1.0000
vn 0.0000 -1.0000 0.0000
usemtl wall
s off
f 8/1/1 3/2/1 5/3/1
f 23/4/2 6/5/2 10/6/2
f 20/7/1 8/1/1 5/3/1
f 8/1/2 11/8/2 9/9/2
f 12/10/3 5/3/3 3/2/3
f 13/11/4 7/12/4 5/3/4
f 19/13/5 11/8/5 10/6/5
f 18/14/4 10/6/4 6/5/4
f 21/15/6 20/7/6 2/16/6
f 25/17/6 1/18/6 23/4/6
f 8/1/1 9/9/1 3/2/1
f 10/6/2 8/1/2 4/19/2
f 23/4/2 1/18/2 6/5/2
f 10/6/2 4/19/2 23/4/2
f 7/12/1 2/16/1 20/7/1
f 20/7/1 4/19/1 8/1/1
f 5/3/1 7/12/1 20/7/1
f 8/1/2 10/6/2 11/8/2
f 12/10/3 13/11/3 5/3/3
f 13/11/4 14/20/4 7/12/4
f 19/13/5 16/21/5 11/8/5
f 18/14/4 19/13/4 10/6/4
f 21/15/6 22/22/6 20/7/6
f 25/17/6 24/23/6 1/18/6
usemtl accent2
f 13/11/1 15/24/1 14/20/1
f 19/13/2 17/25/2 16/21/2
f 13/11/1 12/10/1 15/24/1
f 19/13/2 18/14/2 17/25/2
