# Blender v2.83.0 OBJ File: 'reforester.blend'
# www.blender.org
mtllib Outer_Corner_Wall_Roof_Outer_Corner.mtl
o Outer_Corner_Wall_Roof_Outer_Corner
v 0.100000 0.000000 1.000000
v 1.000000 0.000000 0.100000
v 0.500000 0.000000 0.100000
v 0.200000 0.000000 0.500000
v 0.200000 0.000000 1.000000
v 0.100000 0.000000 0.500000
v 0.100000 1.000004 1.000000
v 1.000000 1.000000 0.100010
v 1.000000 1.000000 1.000020
v 0.100000 0.000000 0.100000
v 0.500000 0.000000 0.200000
v 1.000000 0.000000 0.200000
v 0.100000 1.000003 0.100000
v 1.000000 0.500000 0.100005
v 0.100000 0.500002 1.000000
v 0.100000 0.500002 0.100000
v -0.000000 1.000004 1.000000
v 1.000000 1.000000 0.000002
v -0.000000 1.000003 -0.000000
v 1.000000 0.500000 -0.000003
v 0.000000 0.500002 1.000000
v 0.000000 0.500002 0.000000
v 0.500627 1.658967 0.494187
v 0.593389 1.166648 0.376542
v 0.492534 1.166648 0.630233
v 0.505751 1.166648 0.387779
v 0.413041 1.166648 0.367302
v 0.639029 1.166648 0.602351
v 0.360020 1.166648 0.600914
v 0.510097 0.982586 0.594706
v 0.439658 1.183898 0.540465
v 0.560639 1.183898 0.541088
v 0.462649 1.183898 0.439168
v 0.535213 0.990974 0.433998
v 0.487584 0.990974 0.450568
v 0.433397 0.990974 0.450020
v 0.594336 0.982586 0.559551
v 0.502849 1.183898 0.448047
v 0.431222 0.990974 0.586728
v 0.497118 1.183898 0.553177
v 0.540849 1.183898 0.443174
v 1.000001 1.200000 0.100009
v 0.100001 1.200003 0.100000
v 1.000001 1.200000 0.000002
v 0.000001 1.200003 -0.000000
v 0.100000 1.200003 0.100000
v 0.100000 1.200004 1.000000
v 0.000000 1.200003 -0.000000
v 0.000000 1.200004 1.000000
vt 0.000000 0.000000
vt 0.000000 0.000000
vt 0.000000 0.000000
vt 0.059681 0.500000
vt 0.000000 0.500000
vt 0.059681 0.500000
vt 1.000000 1.000000
vt 0.500000 0.500000
vt 0.119362 1.000000
vt 0.000000 1.000000
vt 0.119362 1.000000
vt 1.000000 1.000000
vt 0.119362 1.000000
vt 0.500000 0.500000
vt 1.000000 1.000000
vt 0.119362 1.000000
vt 0.000000 0.000000
vt 0.000000 0.000000
vt 0.000000 0.000000
vt 0.119362 1.000000
vt 0.000000 1.000000
vt 0.000000 1.000000
vt 0.119362 1.000000
vt 0.000000 1.000000
vt 0.000000 0.000000
vt 0.000000 0.500000
vt 1.000000 1.000000
vt 0.000000 0.000000
vt 0.000000 0.000000
vt 0.000000 0.000000
vt 0.000000 0.000000
vt 0.000000 0.000000
vt 0.000000 0.000000
vt 0.000000 0.000000
vt 0.000000 0.000000
vt 0.000000 0.000000
vt 0.000000 0.000000
vt 0.000000 0.000000
vt 0.000000 0.000000
vt 0.000000 0.000000
vt 0.000000 0.000000
vt 0.000000 0.000000
vt 0.000000 0.000000
vt 0.000000 0.000000
vt 0.000000 0.000000
vt 0.000000 0.000000
vt 0.000000 0.000000
vt 0.000000 0.000000
vt 0.000000 0.000000
vt 0.000000 0.000000
vt 0.000000 0.000000
vt 0.000000 0.000000
vt 0.000000 0.000000
vt 0.000000 0.000000
vt 0.000000 0.000000
vt 0.000000 0.000000
vt 0.000000 0.000000
vn 0.0000 0.0000 1.0000
vn -0.0000 -1.0000 0.0000
vn -0.0000 0.0000 -1.0000
vn -1.0000 -0.0000 0.0000
vn 0.0000 1.0000 -0.0000
vn 1.0000 -0.0000 0.0000
vn -0.7071 0.0000 0.7071
vn 0.7071 -0.0000 -0.7071
vn 0.0477 -0.9753 -0.2155
vn 0.0355 -0.9603 0.2766
vn 0.2109 0.2086 -0.9550
vn -0.0420 -0.9745 -0.2206
vn 0.2527 -0.9658 0.0574
vn -0.2525 -0.9662 0.0510
vn -0.9503 0.2246 -0.2157
vn -0.0601 -0.9604 0.2720
vn -0.1244 0.2084 -0.9701
vn -0.2084 0.2637 0.9418
vn 0.9548 0.2260 -0.1930
vn 0.1806 0.2592 0.9488
vn -0.1270 0.0508 -0.9906
vn 0.9018 0.1127 -0.4171
vn -0.1056 -0.9944 -0.0017
vn -0.0233 -0.9982 -0.0557
vn 0.0006 -0.9983 -0.0582
vn -0.0192 -0.9983 -0.0551
vn 0.2156 -0.0298 -0.9760
vn 0.1828 0.2099 0.9605
vn -0.9664 0.1342 -0.2193
vn -0.2099 0.2367 0.9487
vn -0.3286 0.0137 -0.9444
vn 0.9800 -0.0192 -0.1981
vn 0.0101 -0.0577 -0.9983
vn 0.3809 0.1475 0.9128
vn -0.9991 0.0399 -0.0159
vn -0.0779 0.1966 0.9774
usemtl roof
s off
f 7/1/1 49/2/1 17/3/1
f 16/4/2 21/5/2 22/6/2
f 22/6/3 18/7/3 20/8/3
f 19/9/4 21/5/4 17/10/4
f 13/11/1 42/12/1 43/13/1
f 16/4/2 20/8/2 14/14/2
f 43/13/5 44/15/5 45/16/5
f 19/9/3 44/15/3 18/7/3
f 18/17/6 42/18/6 8/19/6
f 13/11/7 45/16/7 19/9/7
f 46/20/5 49/21/5 47/22/5
f 19/9/4 49/21/4 48/23/4
f 13/11/6 47/22/6 7/24/6
f 19/9/8 46/20/8 13/11/8
f 7/1/1 47/25/1 49/2/1
f 16/4/2 15/26/2 21/5/2
f 22/6/3 19/9/3 18/7/3
f 19/9/4 22/6/4 21/5/4
f 13/11/1 8/27/1 42/12/1
f 16/4/2 22/6/2 20/8/2
f 43/13/5 42/12/5 44/15/5
f 19/9/3 45/16/3 44/15/3
f 18/17/6 44/28/6 42/18/6
f 13/11/7 43/13/7 45/16/7
f 46/20/5 48/23/5 49/21/5
f 19/9/4 17/10/4 49/21/4
f 13/11/6 46/20/6 47/22/6
f 19/9/8 48/23/8 46/20/8
usemtl wall
f 16/4/4 10/29/4 6/30/4
f 6/30/2 5/31/2 1/32/2
f 2/33/2 11/34/2 3/35/2
f 3/35/3 16/4/3 14/14/3
f 1/32/4 15/26/4 6/30/4
f 15/26/4 16/4/4 6/30/4
f 6/30/2 4/36/2 5/31/2
f 2/33/2 12/37/2 11/34/2
f 14/14/3 2/33/3 3/35/3
f 3/35/3 10/29/3 16/4/3
usemtl green
f 31/38/9 25/39/9 29/40/9
f 41/41/10 26/42/10 24/43/10
f 26/42/11 27/44/11 23/45/11
f 32/46/12 25/39/12 40/47/12
f 31/38/13 27/44/13 33/48/13
f 32/46/14 24/43/14 28/49/14
f 27/44/15 29/40/15 23/45/15
f 33/48/16 26/42/16 38/50/16
f 24/43/17 26/42/17 23/45/17
f 29/40/18 25/39/18 23/45/18
f 28/49/19 24/43/19 23/45/19
f 25/39/20 28/49/20 23/45/20
f 31/38/9 40/47/9 25/39/9
f 41/41/10 38/50/10 26/42/10
f 32/46/12 28/49/12 25/39/12
f 31/38/13 29/40/13 27/44/13
f 32/46/14 41/41/14 24/43/14
f 33/48/16 27/44/16 26/42/16
usemtl brown
f 34/51/21 38/50/21 41/41/21
f 34/51/22 32/46/22 37/52/22
f 30/53/23 39/54/23 36/55/23
f 37/52/24 30/53/24 34/51/24
f 30/53/25 36/55/25 35/56/25
f 30/53/26 35/56/26 34/51/26
f 35/56/27 33/48/27 38/50/27
f 30/53/28 32/46/28 40/47/28
f 36/55/29 31/38/29 33/48/29
f 39/54/30 40/47/30 31/38/30
f 34/51/31 35/56/31 38/50/31
f 34/51/32 41/41/32 32/46/32
f 35/56/33 36/55/33 33/48/33
f 30/53/34 37/52/34 32/46/34
f 36/55/35 39/54/35 31/38/35
f 39/54/36 30/53/36 40/47/36
usemtl green2
f 8/27/5 7/24/5 9/57/5
f 8/27/5 13/11/5 7/24/5
