# Blender v2.83.0 OBJ File: 'reforester.blend'
# www.blender.org
mtllib Straight_Edge_Wall_Roof_Outer_Corner.mtl
o Straight_Edge_Wall_Roof_Outer_Corner
v 0.000000 0.000000 0.100000
v 1.000000 0.000000 0.100000
v -0.000049 0.500000 0.099996
v 1.000000 0.500000 0.100004
v 1.000000 0.000000 0.200000
v 0.000000 0.000000 0.200000
v -0.000098 1.000001 -0.000008
v 1.000000 1.000000 0.000008
v 0.000000 1.000000 1.000020
v 1.000000 1.000000 1.000020
v 1.000000 0.500000 0.000006
v -0.000074 0.500000 -0.000006
v -0.000098 1.000001 -0.000008
v 1.000000 1.000000 0.000008
v 0.000000 1.000000 1.000020
v 1.000000 1.000000 1.000020
v 0.503510 1.658541 0.495324
v 0.643365 1.166223 0.441605
v 0.427029 1.166223 0.608128
v 0.562292 1.166223 0.406479
v 0.493067 1.166223 0.341499
v 0.567199 1.166223 0.659026
v 0.328108 1.166223 0.515207
v 0.460281 0.982161 0.586565
v 0.427454 1.183473 0.503945
v 0.531126 1.183472 0.566306
v 0.498982 1.183473 0.428624
v 0.563997 0.990549 0.461263
v 0.514589 0.990549 0.451166
v 0.468292 0.990549 0.423003
v 0.550655 0.982160 0.599397
v 0.528998 1.183473 0.456800
v 0.396560 0.990549 0.539400
v 0.470347 1.183473 0.544236
v 0.564152 1.183473 0.472031
v 1.000000 1.000000 0.100004
v -0.000049 1.000000 0.099996
v 1.000000 1.200000 0.000009
v -0.000098 1.200001 -0.000007
v 1.000000 1.200000 0.100005
v -0.000049 1.200000 0.099997
vt 0.000000 0.000000
vt 0.000000 0.000000
vt 0.000000 0.000000
vt 0.000000 0.000000
vt 0.000000 0.000000
vt 0.000000 0.000000
vt 0.000000 0.000000
vt 0.000000 0.000000
vt 0.000000 0.000000
vt 0.000000 0.000000
vt 0.000000 0.000000
vt 0.000000 0.000000
vt 0.000000 0.000000
vt 0.000000 0.000000
vt 0.000000 0.000000
vt 0.000000 0.000000
vt 0.000000 0.000000
vt 0.000000 0.000000
vt 0.000000 0.000000
vt 0.000000 0.000000
vt 0.000000 0.000000
vt 0.000000 0.000000
vt 0.000000 0.000000
vt 0.000000 0.000000
vt 0.000000 0.000000
vt 0.000000 0.000000
vt 0.000000 0.000000
vt 0.000000 0.000000
vt 0.000000 0.000000
vt 0.000000 0.000000
vt 0.000000 0.000000
vt 0.000000 0.000000
vt 0.000000 0.000000
vt 0.000000 0.000000
vt 0.000000 0.000000
vt 0.000000 0.000000
vt 0.000000 0.000000
vt 0.000000 0.000000
vt 0.000000 0.000000
vt 0.000000 0.000000
vt 0.000000 0.000000
vn -0.0147 -0.9999 0.0000
vn 0.0000 0.0000 -1.0000
vn -0.0000 -1.0000 0.0000
vn 1.0000 0.0000 0.0000
vn 0.0000 0.0000 1.0000
vn 0.0000 1.0000 0.0000
vn 0.1511 -0.9753 -0.1609
vn -0.1109 -0.9603 0.2559
vn 0.6693 0.2086 -0.7131
vn 0.0767 -0.9745 -0.2111
vn 0.1879 -0.9658 0.1785
vn -0.2431 -0.9662 -0.0852
vn -0.7066 0.2246 -0.6710
vn -0.1906 -0.9604 0.2031
vn 0.3888 0.2084 -0.8974
vn -0.6604 0.2637 0.7031
vn 0.9193 0.2260 0.3221
vn -0.3296 0.2592 0.9078
vn -0.1109 -0.9603 0.2558
vn 0.3970 0.0508 -0.9164
vn 0.9883 0.1127 0.1023
vn -0.0899 -0.9944 -0.0554
vn 0.0085 -0.9982 -0.0598
vn 0.0302 -0.9983 -0.0497
vn 0.0117 -0.9983 -0.0572
vn 0.6841 -0.0298 -0.7288
vn -0.3337 0.2099 0.9190
vn -0.7186 0.1342 -0.6824
vn -0.6652 0.2367 0.7082
vn 0.2002 0.0137 -0.9797
vn 0.9436 -0.0192 0.3306
vn 0.5188 -0.0577 -0.8529
vn -0.1390 0.1475 0.9792
vn -0.8506 0.0399 -0.5242
vn -0.5665 0.1966 0.8003
usemtl roof
s off
f 7/1/1 37/2/1 15/3/1
f 12/4/2 8/5/2 11/6/2
f 3/7/3 11/6/3 4/8/3
f 10/9/4 36/10/4 14/11/4
f 10/9/5 15/3/5 16/12/5
f 7/1/5 14/11/5 13/13/5
f 41/14/6 38/15/6 39/16/6
f 39/16/2 14/11/2 13/13/2
f 36/10/5 41/14/5 37/2/5
f 7/1/5 13/13/5 37/2/5
f 15/3/5 9/17/5 7/1/5
f 12/4/2 7/1/2 8/5/2
f 3/7/3 12/4/3 11/6/3
f 10/9/5 16/12/5 36/10/5
f 14/11/5 8/5/5 10/9/5
f 10/9/5 9/17/5 15/3/5
f 7/1/5 8/5/5 14/11/5
f 41/14/6 40/18/6 38/15/6
f 39/16/2 38/15/2 14/11/2
f 36/10/5 40/18/5 41/14/5
usemtl wall
f 5/19/3 1/20/3 2/21/3
f 1/20/2 4/8/2 2/21/2
f 5/19/3 6/22/3 1/20/3
f 1/20/2 3/7/2 4/8/2
usemtl green
f 25/23/7 19/24/7 23/25/7
f 35/26/8 20/27/8 18/28/8
f 20/27/9 21/29/9 17/30/9
f 26/31/10 19/24/10 34/32/10
f 25/23/11 21/29/11 27/33/11
f 26/31/12 18/28/12 22/34/12
f 21/29/13 23/25/13 17/30/13
f 27/33/14 20/27/14 32/35/14
f 18/28/15 20/27/15 17/30/15
f 23/25/16 19/24/16 17/30/16
f 22/34/17 18/28/17 17/30/17
f 19/24/18 22/34/18 17/30/18
f 25/23/7 34/32/7 19/24/7
f 35/26/19 32/35/19 20/27/19
f 26/31/10 22/34/10 19/24/10
f 25/23/11 23/25/11 21/29/11
f 26/31/12 35/26/12 18/28/12
f 27/33/14 21/29/14 20/27/14
usemtl brown
f 28/36/20 32/35/20 35/26/20
f 28/36/21 26/31/21 31/37/21
f 24/38/22 33/39/22 30/40/22
f 31/37/23 24/38/23 28/36/23
f 24/38/24 30/40/24 29/41/24
f 24/38/25 29/41/25 28/36/25
f 29/41/26 27/33/26 32/35/26
f 24/38/27 26/31/27 34/32/27
f 30/40/28 25/23/28 27/33/28
f 33/39/29 34/32/29 25/23/29
f 28/36/30 29/41/30 32/35/30
f 28/36/31 35/26/31 26/31/31
f 29/41/32 30/40/32 27/33/32
f 24/38/33 31/37/33 26/31/33
f 30/40/34 33/39/34 25/23/34
f 33/39/35 24/38/35 34/32/35
usemtl green2
f 36/10/6 15/3/6 16/12/6
f 36/10/6 37/2/6 15/3/6
