# Blender v2.83.0 OBJ File: ''
# www.blender.org
mtllib lightCone.mtl
o Cone
v 0.000000 1.000000 -1.000000
v 0.382683 0.923880 -1.000000
v 0.707107 0.707107 -1.000000
v 0.923880 0.382683 -1.000000
v 1.000000 -0.000000 -1.000000
v 0.923880 -0.382683 -1.000000
v 0.707107 -0.707107 -1.000000
v 0.382683 -0.923880 -1.000000
v 0.000000 -1.000000 -1.000000
v -0.382683 -0.923880 -1.000000
v -0.707107 -0.707107 -1.000000
v 0.000000 -0.000000 0.000000
v -0.923880 -0.382684 -1.000000
v -1.000000 0.000000 -1.000000
v -0.923879 0.382684 -1.000000
v -0.707107 0.707107 -1.000000
v -0.382683 0.923880 -1.000000
vt 0.250000 0.490000
vt 0.250000 0.250000
vt 0.341844 0.471731
vt 0.419706 0.419706
vt 0.471731 0.341844
vt 0.490000 0.250000
vt 0.471731 0.158156
vt 0.419706 0.080294
vt 0.341844 0.028269
vt 0.250000 0.010000
vt 0.158156 0.028269
vt 0.080294 0.080294
vt 0.028269 0.158156
vt 0.010000 0.250000
vt 0.028269 0.341844
vt 0.080294 0.419706
vt 0.158156 0.471731
vt 0.971731 0.341844
vt 0.841844 0.028269
vt 0.528269 0.158156
vt 0.658156 0.471731
vt 0.750000 0.490000
vt 0.841844 0.471731
vt 0.919706 0.419706
vt 0.990000 0.250000
vt 0.971731 0.158156
vt 0.919706 0.080294
vt 0.750000 0.010000
vt 0.658156 0.028269
vt 0.580294 0.080294
vt 0.510000 0.250000
vt 0.528269 0.341844
vt 0.580294 0.419706
vn 0.1393 0.7002 0.7002
vn 0.3966 0.5936 0.7002
vn 0.5936 0.3966 0.7002
vn 0.7002 0.1393 0.7002
vn 0.7002 -0.1393 0.7002
vn 0.5936 -0.3966 0.7002
vn 0.3966 -0.5936 0.7002
vn 0.1393 -0.7002 0.7002
vn -0.1393 -0.7002 0.7002
vn -0.3966 -0.5936 0.7002
vn -0.5936 -0.3966 0.7002
vn -0.7002 -0.1393 0.7002
vn -0.7002 0.1393 0.7002
vn -0.5936 0.3966 0.7002
vn -0.3966 0.5936 0.7002
vn -0.1393 0.7002 0.7002
vn 0.0000 0.0000 -1.0000
usemtl None
s off
f 1/1/1 12/2/1 2/3/1
f 2/3/2 12/2/2 3/4/2
f 3/4/3 12/2/3 4/5/3
f 4/5/4 12/2/4 5/6/4
f 5/6/5 12/2/5 6/7/5
f 6/7/6 12/2/6 7/8/6
f 7/8/7 12/2/7 8/9/7
f 8/9/8 12/2/8 9/10/8
f 9/10/9 12/2/9 10/11/9
f 10/11/10 12/2/10 11/12/10
f 11/12/11 12/2/11 13/13/11
f 13/13/12 12/2/12 14/14/12
f 14/14/13 12/2/13 15/15/13
f 15/15/14 12/2/14 16/16/14
f 16/16/15 12/2/15 17/17/15
f 17/17/16 12/2/16 1/1/16
f 4/18/17 8/19/17 13/20/17
f 17/21/17 1/22/17 2/23/17
f 2/23/17 3/24/17 17/21/17
f 3/24/17 4/18/17 17/21/17
f 4/18/17 5/25/17 6/26/17
f 6/26/17 7/27/17 4/18/17
f 7/27/17 8/19/17 4/18/17
f 8/19/17 9/28/17 13/20/17
f 9/28/17 10/29/17 13/20/17
f 10/29/17 11/30/17 13/20/17
f 13/20/17 14/31/17 15/32/17
f 15/32/17 16/33/17 17/21/17
f 13/20/17 15/32/17 17/21/17
f 17/21/17 4/18/17 13/20/17
