# Blender v2.81 (sub 16) OBJ File: 'Drone.blend'
# www.blender.org
mtllib rotor.mtl
o Rotor_1_Rotor
v 0.060000 -0.030000 0.000000
v 0.060000 0.000000 0.000000
v 0.030000 -0.030000 0.051962
v 0.030000 0.000000 0.051962
v -0.030000 -0.030000 0.051962
v -0.030000 0.000000 0.051962
v -0.060000 -0.030000 -0.000000
v -0.060000 0.000000 -0.000000
v -0.030000 -0.030000 -0.051962
v -0.030000 0.000000 -0.051962
v 0.030000 -0.030000 -0.051962
v 0.030000 0.000000 -0.051962
v 0.060000 -0.020000 0.000000
v 0.060000 -0.010000 0.000000
v 0.030000 -0.010000 0.051962
v 0.030000 -0.020000 0.051962
v -0.030000 -0.010000 0.051962
v -0.030000 -0.020000 0.051962
v -0.060000 -0.010000 -0.000000
v -0.060000 -0.020000 -0.000000
v -0.030000 -0.010000 -0.051962
v -0.030000 -0.020000 -0.051962
v 0.030000 -0.010000 -0.051962
v 0.030000 -0.020000 -0.051962
v -0.081962 -0.002500 0.081961
v -0.081962 -0.012500 0.081961
v -0.111962 -0.017500 0.030000
v -0.111962 -0.027500 0.030000
v -0.030000 -0.002500 -0.111962
v -0.030000 -0.012500 -0.111962
v 0.030000 -0.017500 -0.111962
v 0.030000 -0.027500 -0.111962
v 0.111962 -0.012500 0.030000
v 0.111962 -0.002500 0.030000
v 0.081962 -0.017500 0.081961
v 0.081962 -0.027500 0.081961
v -0.341769 -0.002500 0.231962
v -0.341769 -0.012500 0.231962
v -0.371769 -0.017500 0.180000
v -0.371769 -0.027500 0.180000
v -0.030000 -0.002500 -0.411962
v -0.030000 -0.012500 -0.411962
v 0.030000 -0.017500 -0.411962
v 0.030000 -0.027500 -0.411962
v 0.371769 -0.012500 0.180000
v 0.371769 -0.002500 0.180000
v 0.341769 -0.017500 0.231962
v 0.341769 -0.027500 0.231962
v 0.372896 -0.014786 0.180773
v 0.372896 -0.004786 0.180773
v 0.342896 -0.019786 0.232734
v 0.342896 -0.029786 0.232734
v -0.066962 -0.002500 0.107942
v -0.326769 -0.002500 0.257942
v 0.126962 -0.002500 0.004019
v 0.386769 -0.002500 0.154019
v -0.060000 -0.002500 -0.111962
v -0.060000 -0.002500 -0.411962
v -0.139586 -0.033179 -0.022595
v -0.375339 -0.026031 0.157363
v 0.089361 -0.033179 -0.109588
v 0.050226 -0.033179 0.132183
v 0.051389 -0.026031 -0.403735
v 0.323950 -0.026032 0.246371
vt 1.000000 1.000000
vt 0.833333 0.833333
vt 1.000000 0.833333
vt 0.666667 1.000000
vt 0.500000 0.833333
vt 0.666667 0.833333
vt 0.042154 0.130000
vt 0.250000 0.010000
vt 0.457846 0.130000
vt 0.333333 1.000000
vt 0.166667 0.833333
vt 0.333333 0.833333
vt 0.542154 0.130000
vt 0.542154 0.370000
vt 0.957846 0.370000
vt -0.000000 1.000000
vt -0.000000 0.833333
vt 0.333333 0.666667
vt 0.166667 0.500000
vt 0.333333 0.500000
vt 0.166667 0.833333
vt 0.333333 0.833333
vt 0.666667 0.666667
vt 0.500000 0.500000
vt 0.666667 0.500000
vt 0.500000 0.833333
vt 0.666667 0.833333
vt 1.000000 0.666667
vt 0.833333 0.500000
vt 1.000000 0.500000
vt 0.833333 0.666667
vt 1.000000 0.666667
vt 0.833333 0.666667
vt 0.500000 0.666667
vt 0.500000 0.666667
vt 0.500000 0.666667
vt 0.666667 0.666667
vt 0.333333 0.666667
vt 0.166667 0.666667
vt 0.166667 0.666667
vt 0.166667 0.666667
vt 0.833333 0.833333
vt 1.000000 0.833333
vt 1.000000 0.833333
vt -0.000000 0.666667
vt -0.000000 0.666667
vt 0.666667 0.666667
vt 0.500000 0.833333
vt 0.500000 0.666667
vt 0.666667 0.833333
vt 0.666667 0.833333
vt 0.333333 0.666667
vt 0.166667 0.833333
vt 0.333333 0.833333
vt 0.333333 0.833333
vt 0.166667 0.833333
vt 0.833333 0.666667
vt 1.000000 0.666667
vt 0.833333 0.666667
vt 0.833333 0.666667
vt 0.833333 0.666667
vt -0.000000 0.833333
vt -0.000000 0.666667
vt -0.000000 0.833333
vt 0.833333 0.833333
vt -0.000000 0.833333
vt -0.000000 0.666667
vt 0.833333 0.833333
vt 1.000000 0.833333
vt 0.666667 0.833333
vt 0.666667 0.666667
vt 0.666667 0.666667
vt 1.000000 0.666667
vt 1.000000 0.666667
vt 1.000000 0.666667
vt 1.000000 0.833333
vt 0.333333 0.666667
vt 0.333333 0.833333
vt -0.000000 0.666667
vt 0.333333 0.666667
vt 0.500000 0.833333
vt 0.500000 0.666667
vt 0.500000 0.833333
vt 0.166667 0.666667
vt 0.166667 0.666667
vt 0.833333 0.833333
vt 0.833333 0.833333
vt 0.166667 0.833333
vt 0.833333 1.000000
vt 0.500000 1.000000
vt 0.457846 0.370000
vt 0.250000 0.490000
vt 0.042154 0.370000
vt 0.166667 1.000000
vt 0.750000 0.490000
vt 0.957846 0.130000
vt 0.750000 0.010000
vt -0.000000 0.500000
vt -0.000000 0.833333
vt 1.000000 0.833333
vn 0.8660 0.0000 0.5000
vn -0.8660 0.0000 0.5000
vn 0.0000 1.0000 0.0000
vn 0.0000 0.0000 -1.0000
vn 0.0000 -1.0000 -0.0000
vn 0.8660 0.0000 -0.5000
vn 0.2408 0.9631 0.1204
vn -0.8660 0.0000 -0.5000
vn -0.0161 0.9631 -0.2687
vn 0.0000 0.0000 1.0000
vn 0.0161 -0.9631 -0.2687
vn 0.1566 -0.9874 0.0244
vn -0.5000 0.0000 -0.8660
vn 0.2246 -0.9631 0.1483
vn 0.5000 0.0000 0.8660
vn -0.2425 -0.9701 -0.0000
vn 1.0000 0.0000 0.0000
vn -1.0000 0.0000 -0.0000
vn -0.2408 -0.9631 0.1204
vn -0.1213 0.9701 0.2100
vn -0.5000 0.0000 0.8660
vn 0.5000 0.0000 -0.8660
vn -0.2246 0.9631 0.1483
vn 0.0000 0.9923 -0.1240
vn -0.1074 0.9923 0.0620
vn 0.1074 -0.9923 0.0620
vn -0.1074 -0.9923 0.0620
vn 0.0000 -0.9923 -0.1240
vn 0.1074 0.9923 0.0620
vn 0.1213 -0.9701 0.2100
vn -0.1213 0.9701 -0.2100
vn 0.0000 0.9923 0.1240
vn 0.2425 0.9701 0.0000
vn 0.3705 0.9288 0.0000
vn -0.6715 -0.5121 -0.5355
vn 0.0577 -0.9954 -0.0761
vn 0.1213 -0.9701 -0.2100
vn 0.5654 0.0000 -0.8248
vn 0.6715 0.5121 0.5355
vn -0.5654 0.0000 0.8248
vn 0.0550 -0.9421 0.3308
vn 0.1581 -0.9487 0.2739
vn 0.1581 -0.9487 -0.2739
vn -0.1074 0.9923 -0.0620
vn -0.3162 -0.9487 -0.0000
vn 0.8345 0.0000 0.5510
vn 0.1074 0.9923 -0.0620
vn 0.0599 0.0000 -0.9982
vn 0.2590 -0.9421 -0.2131
vn -0.8944 0.0000 0.4472
vn -0.3140 -0.9421 -0.1178
vn 0.2731 0.0000 -0.9620
vn 0.0370 -0.9954 0.0880
vn -0.1852 0.9288 -0.3209
vn -0.9878 0.0000 0.1558
vn -0.2328 0.9587 -0.1635
vn -0.0572 -0.9874 -0.1478
vn -0.0948 -0.9954 -0.0120
vn 0.3590 0.0000 -0.9333
vn -0.0994 -0.9874 0.1234
vn -0.9697 0.0000 0.2445
vn -0.0252 0.9587 0.2834
vn -0.1852 0.9288 0.3209
vn 0.6288 0.0000 0.7776
vn 0.6965 0.0000 0.7175
vn 0.2580 0.9587 -0.1198
vn 0.2557 0.9667 -0.0095
vn -0.0343 -0.9977 0.0593
vn -0.0342 -0.9977 -0.0593
vn -0.1361 0.9667 -0.2167
vn 0.0685 -0.9977 0.0000
vn -0.1196 0.9667 0.2262
usemtl Rotor_Base_Color
s off
f 2/1/1 15/2/1 14/3/1
f 6/4/2 19/5/2 17/6/2
f 10/7/3 8/8/3 6/9/3
f 10/10/4 23/11/4 21/12/4
f 9/13/5 11/14/5 3/15/5
f 23/11/6 2/16/6 14/17/6
f 22/18/4 11/19/4 9/20/4
f 21/12/7 31/21/7 29/22/7
f 19/5/8 10/10/8 21/12/8
f 18/23/2 7/24/2 5/25/2
f 17/6/9 27/26/9 25/27/9
f 15/2/10 6/4/10 17/6/10
f 13/28/1 3/29/1 1/30/1
f 16/31/11 33/32/11 36/33/11
f 28/34/12 59/35/12 20/36/12
f 20/36/13 27/26/13 19/5/13
f 20/36/14 26/37/14 28/34/14
f 17/6/15 26/37/15 18/23/15
f 30/38/16 44/39/16 32/40/16
f 24/41/17 31/21/17 23/11/17
f 21/12/18 30/38/18 22/18/18
f 24/41/19 30/38/19 32/40/19
f 35/42/20 46/43/20 34/44/20
f 16/31/21 35/42/21 15/2/21
f 14/17/22 33/45/22 13/46/22
f 14/3/23 35/42/23 34/44/23
f 21/12/24 23/11/24 31/21/24
f 17/6/25 19/5/25 27/26/25
f 16/31/26 13/28/26 33/32/26
f 20/36/27 18/23/27 26/37/27
f 24/41/28 22/18/28 30/38/28
f 14/3/29 15/2/29 35/42/29
f 38/47/2 39/48/2 40/49/2
f 26/37/30 40/49/30 28/34/30
f 37/50/2 38/47/2 54/51/2
f 25/27/31 39/48/31 37/50/31
f 42/52/4 43/53/4 44/39/4
f 29/22/32 57/54/32 21/12/32
f 31/21/33 41/55/33 29/22/33
f 31/21/34 63/56/34 43/53/34
f 48/57/35 49/58/35 52/59/35
f 36/33/36 64/60/36 62/61/36
f 33/32/37 48/57/37 36/33/37
f 46/62/1 45/63/1 56/64/1
f 49/58/1 51/65/1 52/59/1
f 45/63/38 50/66/38 49/67/38
f 47/68/39 50/69/39 46/43/39
f 48/57/40 51/65/40 47/68/40
f 25/27/3 54/51/3 53/70/3
f 53/71/41 26/37/41 18/23/41
f 26/37/42 54/72/42 38/47/42
f 45/73/43 55/74/43 56/75/43
f 46/43/3 55/76/3 34/44/3
f 34/44/44 55/76/44 14/3/44
f 41/55/3 57/54/3 29/22/3
f 30/38/45 58/77/45 42/52/45
f 41/55/4 42/52/4 58/78/4
f 18/23/46 17/6/46 53/71/46
f 25/27/47 53/70/47 17/6/47
f 13/46/48 14/17/48 55/79/48
f 55/74/49 33/32/49 13/28/49
f 22/18/50 21/12/50 57/80/50
f 57/80/51 30/38/51 22/18/51
f 19/5/52 20/36/52 59/81/52
f 28/34/53 60/82/53 59/35/53
f 27/26/54 60/83/54 39/48/54
f 40/49/55 39/48/55 60/82/55
f 59/81/56 27/26/56 19/5/56
f 36/33/57 62/61/57 16/31/57
f 32/40/58 63/84/58 61/85/58
f 44/39/59 43/53/59 63/84/59
f 32/40/60 61/85/60 24/41/60
f 15/2/61 16/31/61 62/86/61
f 62/86/62 35/42/62 15/2/62
f 35/42/63 64/87/63 47/68/63
f 48/57/64 47/68/64 64/60/64
f 23/11/65 24/41/65 61/88/65
f 61/88/66 31/21/66 23/11/66
f 2/1/1 4/89/1 15/2/1
f 6/4/2 8/90/2 19/5/2
f 6/9/3 4/91/3 10/7/3
f 4/91/3 2/92/3 10/7/3
f 2/92/3 12/93/3 10/7/3
f 10/10/4 12/94/4 23/11/4
f 11/14/5 1/95/5 3/15/5
f 3/15/5 5/96/5 7/97/5
f 7/97/5 9/13/5 3/15/5
f 11/19/6 24/41/6 1/98/6
f 24/41/6 23/11/6 13/46/6
f 1/98/6 24/41/6 13/46/6
f 23/11/6 12/94/6 2/16/6
f 14/17/6 13/46/6 23/11/6
f 22/18/4 24/41/4 11/19/4
f 7/24/8 20/36/8 9/20/8
f 20/36/8 19/5/8 22/18/8
f 9/20/8 20/36/8 22/18/8
f 19/5/8 8/90/8 10/10/8
f 21/12/8 22/18/8 19/5/8
f 18/23/2 20/36/2 7/24/2
f 3/29/10 16/31/10 5/25/10
f 16/31/10 15/2/10 18/23/10
f 5/25/10 16/31/10 18/23/10
f 15/2/10 4/89/10 6/4/10
f 17/6/10 18/23/10 15/2/10
f 13/28/1 16/31/1 3/29/1
f 20/36/13 28/34/13 27/26/13
f 17/6/15 25/27/15 26/37/15
f 30/38/16 42/52/16 44/39/16
f 24/41/17 32/40/17 31/21/17
f 21/12/18 29/22/18 30/38/18
f 35/42/20 47/68/20 46/43/20
f 16/31/21 36/33/21 35/42/21
f 14/17/22 34/99/22 33/45/22
f 38/47/2 37/50/2 39/48/2
f 26/37/30 38/47/30 40/49/30
f 25/27/31 27/26/31 39/48/31
f 42/52/4 41/55/4 43/53/4
f 31/21/33 43/53/33 41/55/33
f 31/21/67 61/88/67 63/56/67
f 48/57/35 45/73/35 49/58/35
f 36/33/68 48/57/68 64/60/68
f 33/32/37 45/73/37 48/57/37
f 49/58/1 50/69/1 51/65/1
f 45/63/38 46/62/38 50/66/38
f 47/68/39 51/65/39 50/69/39
f 48/57/40 52/59/40 51/65/40
f 25/27/3 37/50/3 54/51/3
f 26/37/42 53/71/42 54/72/42
f 45/73/43 33/32/43 55/74/43
f 46/43/3 56/100/3 55/76/3
f 41/55/3 58/78/3 57/54/3
f 30/38/45 57/80/45 58/77/45
f 28/34/69 40/49/69 60/82/69
f 27/26/70 59/81/70 60/83/70
f 32/40/71 44/39/71 63/84/71
f 35/42/72 62/86/72 64/87/72
