# Blender v2.81 (sub 16) OBJ File: 'Storage Building Piece Set.blend'
# www.blender.org
mtllib Inner_Corner_Wall_Roof_Right.mtl
o Inner_Corner_Wall_Roof_Right
v 0.000000 0.000000 0.100000
v 0.100000 0.000000 0.000000
v 0.000000 0.900000 0.100000
v 0.100000 0.900000 0.000000
v 0.100000 1.000000 0.000000
v -0.000000 1.000000 0.000000
v 0.100000 0.000000 0.100000
v 0.100000 0.900000 0.100000
v -0.000000 0.900000 0.000000
v 0.000000 0.900000 1.000000
v 0.100000 1.000000 1.000000
v 0.000000 1.000000 1.000000
vt 0.000000 0.000000
vt 0.096165 0.222222
vt 0.000000 0.222222
vt 0.000000 0.180205
vt 1.000000 0.000000
vt 0.000000 0.000000
vt 0.000000 0.513538
vt 1.000000 0.180205
vt 0.000000 0.666667
vt 0.096165 0.000000
vt 0.096165 0.666667
vt 1.000000 0.513538
vt 1.000000 0.666667
vt 0.096165 0.000000
vt 0.000000 0.000000
vt 1.000000 0.000000
vn 0.0000 0.0000 -1.0000
vn -1.0000 0.0000 0.0000
vn 0.0000 1.0000 0.0000
vn 0.0000 -1.0000 0.0000
usemtl Beam
s off
f 5/1/1 9/2/1 6/3/1
f 12/4/2 9/5/2 10/6/2
f 11/7/3 6/8/3 12/4/3
f 3/9/4 4/10/4 8/11/4
f 5/1/1 4/10/1 9/2/1
f 12/4/2 6/8/2 9/5/2
f 11/7/3 5/12/3 6/8/3
f 3/9/4 9/2/4 4/10/4
usemtl Wall
f 4/13/2 7/14/2 8/11/2
f 3/9/1 7/14/1 1/15/1
f 4/13/2 2/16/2 7/14/2
f 3/9/1 8/11/1 7/14/1
