# Blender v2.81 (sub 16) OBJ File: 'Storage Building Piece Set.blend'
# www.blender.org
mtllib Inner_Corner_Wall.mtl
o Inner_Corner_Wall
v 0.000000 0.000000 0.100000
v 0.100000 0.000000 0.000000
v 0.000000 1.000000 0.100000
v 0.100000 1.000000 0.000000
v 0.100000 0.000000 0.100000
v 0.100000 1.000000 0.100000
vt 1.000000 1.000000
vt 0.133045 0.000000
vt 0.133046 1.000000
vt 0.000000 1.000000
vt 0.000000 0.000000
vt 1.000000 0.000000
vn -1.0000 0.0000 -0.0000
vn -0.0000 0.0000 -1.0000
usemtl Wall
s off
f 4/1/1 5/2/1 6/3/1
f 3/4/2 5/2/2 1/5/2
f 4/1/1 2/6/1 5/2/1
f 3/4/2 6/3/2 5/2/2
