# Blender v2.81 (sub 16) OBJ File: 'Storage Building Piece Set.blend'
# www.blender.org
mtllib Inner_Corner_Wall_Roof_Outer_Corner.mtl
o Inner_Corner_Wall_Roof_Outer_Corner
v 0.000000 0.000000 0.100000
v 0.100000 0.000000 0.000000
v 0.000000 0.950000 0.100000
v 0.100000 0.950000 0.000000
v 0.000000 1.000004 0.000000
v 0.200000 0.950000 0.000000
v 0.000000 1.000000 0.200000
v 0.200000 0.950000 0.200000
v 0.000000 0.950000 0.200000
v 0.000000 0.950000 1.000020
v 1.000000 0.950000 0.000000
v 0.100000 0.000000 0.100000
v 0.100000 0.950000 0.100000
v 0.200000 1.000003 0.000000
v 0.200000 1.000000 0.200000
v 1.000000 0.950000 1.000020
v 0.000000 0.950000 0.000000
vt 0.096165 0.222222
vt 1.000000 0.000000
vt 0.096165 0.000000
vt 0.096165 0.333333
vt 1.000000 1.000000
vt 1.000000 0.333333
vt 0.000000 1.000000
vt 0.000000 0.333333
vt 0.000000 0.222222
vt 0.000000 0.000000
vt 0.000000 0.000000
vt 0.000000 0.666667
vt 1.000000 0.666667
vt 0.096165 0.666667
vt 1.000000 0.222222
vt 0.096165 1.000000
vt 0.096165 0.000000
vt 0.000000 0.000000
vt 1.000000 0.000000
vn 1.0000 -0.0000 -0.0000
vn 0.0000 1.0000 0.0000
vn 0.0000 0.0000 1.0000
vn 0.0000 0.0000 -1.0000
vn -1.0000 0.0000 0.0000
vn 0.0000 -1.0000 0.0000
usemtl Roof
s off
f 15/1/1 6/2/1 14/3/1
f 8/4/2 11/5/2 6/6/2
f 10/7/2 8/4/2 9/8/2
f 7/9/3 8/4/3 15/1/3
f 15/1/2 5/10/2 7/9/2
f 17/11/4 14/3/4 6/2/4
f 7/9/5 17/11/5 9/8/5
f 3/12/6 4/13/6 13/14/6
f 15/1/1 8/15/1 6/2/1
f 8/4/2 16/16/2 11/5/2
f 10/7/2 16/16/2 8/4/2
f 7/9/3 9/8/3 8/4/3
f 15/1/2 14/3/2 5/10/2
f 17/11/4 5/10/4 14/3/4
f 7/9/5 5/10/5 17/11/5
f 3/12/6 17/11/6 4/13/6
usemtl Wall
f 4/13/5 12/17/5 13/14/5
f 3/12/4 12/17/4 1/18/4
f 4/13/5 2/19/5 12/17/5
f 3/12/4 13/14/4 12/17/4
