# Blender v2.81 (sub 16) OBJ File: 'Storage Building Piece Set.blend'
# www.blender.org
mtllib Inner_Corner_Wall_Roof_Both.mtl
o Inner_Corner_Wall_Roof_Both
v 0.000000 0.000000 0.100000
v 0.100000 0.000000 0.000000
v 0.000000 0.900000 0.100000
v 0.100000 0.900000 0.000000
v 0.100000 1.000000 0.100000
v 0.100000 0.000000 0.100000
v 0.100000 0.900000 0.100000
v 0.000000 0.900000 1.000000
v 1.000000 0.900000 0.000000
v 0.100000 1.000000 1.000000
v 0.000000 1.000000 1.000000
v 1.000000 1.000000 0.000000
v 1.000000 1.000000 0.100000
v 0.000000 0.900000 0.000000
v 0.000000 1.000000 0.000000
vt 1.000000 0.666667
vt 0.096165 0.000000
vt 0.096165 0.666667
vt 0.000000 0.666667
vt 0.000000 0.000000
vt 1.000000 0.000000
vt 0.104443 0.180205
vt 1.000000 0.000000
vt 0.104443 0.000000
vt 0.104443 0.513538
vt 1.000000 0.180205
vt 0.000000 0.180205
vt 0.000000 0.000000
vt 1.000000 0.513538
vt 0.000000 0.513538
vt 0.000000 0.000000
vn -1.0000 0.0000 0.0000
vn 0.0000 0.0000 -1.0000
vn 0.0000 1.0000 0.0000
vn 0.0000 -1.0000 0.0000
usemtl Wall
s off
f 4/1/1 6/2/1 7/3/1
f 3/4/2 6/2/2 1/5/2
f 4/1/1 2/6/1 6/2/1
f 3/4/2 7/3/2 6/2/2
usemtl Beam
f 15/7/2 9/8/2 14/9/2
f 5/10/3 12/11/3 15/7/3
f 11/12/3 5/10/3 15/7/3
f 11/12/1 14/9/1 8/13/1
f 3/4/4 4/1/4 7/3/4
f 15/7/2 12/11/2 9/8/2
f 5/10/3 13/14/3 12/11/3
f 11/12/3 10/15/3 5/10/3
f 11/12/1 15/7/1 14/9/1
f 3/4/4 14/16/4 4/1/4
