# Blender v2.81 (sub 16) OBJ File: 'Storage Building Piece Set.blend'
# www.blender.org
mtllib Outer_Corner_Wall_Roof_Outer_Corner.mtl
o Outer_Corner_Wall_Roof_Outer_Corner
v 0.100000 0.900000 1.000000
v 1.000000 0.900000 0.100000
v 0.000000 0.900000 1.000000
v 1.000000 0.900000 0.000000
v 0.000000 1.000004 1.000000
v 1.000000 1.000000 0.000010
v 0.200000 1.000000 1.000000
v 1.000000 1.000000 0.200000
v 0.200000 1.000000 0.200000
v 1.000000 0.950000 0.200000
v 1.000000 0.950000 1.000020
v 0.100000 0.900000 0.100000
v 0.000000 0.900000 0.000000
v 0.000000 1.000003 0.000000
v 0.200000 0.950000 0.200000
v 0.200000 0.950000 1.000020
v 0.050000 0.000000 0.050000
v 1.000000 0.000000 0.050000
v 0.050000 0.900000 0.050000
v 1.000000 0.900000 0.050000
v 0.150000 0.000000 0.100000
v 0.950000 0.000000 0.100000
v 0.950000 0.900000 0.100000
v 0.150000 0.900000 0.100000
v 0.950000 0.000000 0.050000
v 0.150000 0.900000 0.050000
v 0.150000 0.000000 0.050000
v 0.950000 0.900000 0.050000
v 0.050000 0.000000 1.000000
v 0.050000 0.900000 1.000000
v 0.100000 0.000000 0.950000
v 0.100000 0.000000 0.150000
v 0.100000 0.900000 0.150000
v 0.100000 0.900000 0.950000
v 0.050000 0.000000 0.150000
v 0.050000 0.900000 0.950000
v 0.050000 0.000000 0.950000
v 0.050000 0.900000 0.150000
vt 0.333333 1.000000
vt 0.666667 0.000000
vt 0.333333 0.000000
vt 0.333333 1.000000
vt 0.666667 0.000000
vt 0.333333 0.000000
vt 0.666667 1.000000
vt 0.666667 1.000000
vt 0.833333 1.000000
vt 1.000000 0.000000
vt 0.833333 0.000000
vt 0.166667 1.000000
vt 0.166667 0.000000
vt 0.000000 1.000000
vt 0.000000 0.000000
vt 0.833333 1.000000
vt 1.000000 0.000000
vt 0.833333 0.000000
vt 0.166667 1.000000
vt 0.166667 0.000000
vt 0.000000 1.000000
vt 0.000000 0.000000
vt 1.000000 1.000000
vt 1.000000 1.000000
vt 1.000000 0.888889
vt 0.119362 0.666667
vt 0.119362 0.888889
vt 1.000000 1.000000
vt 0.119362 0.222222
vt 1.000000 0.000000
vt 0.119362 0.000000
vt 0.119362 0.333333
vt 1.000000 0.222222
vt 0.119362 1.000000
vt 1.000000 0.333333
vt 0.000000 1.000000
vt 0.000000 0.333333
vt 0.000000 0.000000
vt 0.000000 0.222222
vt 0.000000 1.000000
vt 0.000000 0.888889
vt 0.000000 0.666667
vt 1.000000 0.666667
vt 0.119362 1.000000
vt 1.000000 1.000000
vn 0.0000 0.0000 -1.0000
vn -1.0000 0.0000 0.0000
vn 1.0000 0.0000 -0.0000
vn 0.0000 -0.0000 1.0000
vn 0.0000 -1.0000 0.0000
vn 0.0000 0.0001 -1.0000
vn 0.0000 1.0000 0.0000
usemtl Wall
s off
f 24/1/1 22/2/1 21/3/1
f 34/4/2 32/5/2 31/6/2
f 24/1/1 23/7/1 22/2/1
f 34/4/2 33/8/2 32/5/2
usemtl Beam
f 28/9/1 18/10/1 25/11/1
f 26/12/3 21/3/3 27/13/3
f 19/14/1 27/13/1 17/15/1
f 23/7/2 25/11/2 22/2/2
f 38/16/2 17/17/2 35/18/2
f 36/19/1 31/6/1 37/20/1
f 30/21/2 37/20/2 29/22/2
f 33/8/4 35/18/4 32/5/4
f 28/9/1 20/23/1 18/10/1
f 26/12/3 24/1/3 21/3/3
f 19/14/1 26/12/1 27/13/1
f 23/7/2 28/9/2 25/11/2
f 38/16/2 19/24/2 17/17/2
f 36/19/1 34/4/1 31/6/1
f 30/21/2 36/19/2 37/20/2
f 33/8/4 38/16/4 35/18/4
usemtl Roof
f 4/25/5 12/26/5 13/27/5
f 13/27/6 6/28/6 4/25/6
f 9/29/7 6/30/7 14/31/7
f 15/32/4 8/33/4 9/29/4
f 16/34/7 10/35/7 15/32/7
f 7/36/3 15/32/3 9/37/3
f 9/29/7 5/38/7 7/39/7
f 5/40/2 13/27/2 3/41/2
f 3/41/5 12/26/5 1/42/5
f 4/25/5 2/43/5 12/26/5
f 13/27/1 14/44/1 6/28/1
f 9/29/7 8/33/7 6/30/7
f 15/32/4 10/35/4 8/33/4
f 16/34/7 11/45/7 10/35/7
f 7/36/3 16/34/3 15/32/3
f 9/29/7 14/31/7 5/38/7
f 5/40/2 14/44/2 13/27/2
f 3/41/5 13/27/5 12/26/5
