# Blender v2.81 (sub 16) OBJ File: 'Storage Building Piece Set.blend'
# www.blender.org
mtllib Outer_Corner_Wall.mtl
o Outer_Corner_Wall
v 0.050000 0.000000 0.050000
v 1.000000 0.000000 0.050000
v 0.050000 1.000000 0.050000
v 1.000000 1.000000 0.050000
v 0.150000 0.000000 0.100000
v 0.950000 0.000000 0.100000
v 0.950000 1.000000 0.100000
v 0.150000 1.000000 0.100000
v 0.950000 0.000000 0.050000
v 0.150000 1.000000 0.050000
v 0.150000 0.000000 0.050000
v 0.950000 1.000000 0.050000
v 0.050000 0.000000 1.000000
v 0.050000 1.000000 1.000000
v 0.100000 0.000000 0.950000
v 0.100000 0.000000 0.150000
v 0.100000 1.000000 0.150000
v 0.100000 1.000000 0.950000
v 0.050000 0.000000 0.150000
v 0.050000 1.000000 0.950000
v 0.050000 0.000000 0.950000
v 0.050000 1.000000 0.150000
vt 0.333333 1.000000
vt 0.666667 0.000000
vt 0.333333 0.000000
vt 0.333333 0.000000
vt 0.666667 1.000000
vt 0.666667 0.000000
vt 0.666667 1.000000
vt 0.333333 1.000000
vt 0.833333 1.000000
vt 1.000000 0.000000
vt 0.833333 0.000000
vt 0.166667 1.000000
vt 0.166667 0.000000
vt 0.000000 1.000000
vt 0.000000 0.000000
vt 0.833333 1.000000
vt 1.000000 0.000000
vt 0.833333 0.000000
vt 0.166667 1.000000
vt 0.166667 0.000000
vt 0.000000 1.000000
vt 0.000000 0.000000
vt 1.000000 1.000000
vt 1.000000 1.000000
vn 0.0000 0.0000 -1.0000
vn -1.0000 0.0000 0.0000
vn 1.0000 0.0000 -0.0000
vn 0.0000 -0.0000 1.0000
usemtl Wall
s off
f 8/1/1 6/2/1 5/3/1
f 15/4/2 17/5/2 16/6/2
f 8/1/1 7/7/1 6/2/1
f 15/4/2 18/8/2 17/5/2
usemtl Beam
f 12/9/1 2/10/1 9/11/1
f 10/12/3 5/3/3 11/13/3
f 3/14/1 11/13/1 1/15/1
f 7/7/2 9/11/2 6/2/2
f 22/16/2 1/17/2 19/18/2
f 20/19/1 15/4/1 21/20/1
f 14/21/2 21/20/2 13/22/2
f 17/5/4 19/18/4 16/6/4
f 12/9/1 4/23/1 2/10/1
f 10/12/3 8/1/3 5/3/3
f 3/14/1 10/12/1 11/13/1
f 7/7/2 12/9/2 9/11/2
f 22/16/2 3/24/2 1/17/2
f 20/19/1 18/8/1 15/4/1
f 14/21/2 20/19/2 21/20/2
f 17/5/4 22/16/4 19/18/4
