# Blender v2.81 (sub 16) OBJ File: 'Storage Building Piece Set.blend'
# www.blender.org
mtllib Straight_Edge_Wall_Roof_Right.mtl
o Straight_Edge_Wall_Roof_Right
v 0.050000 0.900000 1.000000
v 0.000000 1.000000 -0.000000
v 0.150000 1.000000 0.050000
v 0.150000 1.000000 1.000000
v 0.000000 0.900000 -0.000000
v 0.000000 0.900000 1.000000
v 0.000000 1.000000 1.000000
v 0.000000 0.900000 0.050000
v 0.000000 0.000000 0.050000
v 1.000000 0.000000 0.050000
v 0.000000 1.000000 0.050000
v 1.000000 1.000000 0.050000
v 0.050000 0.000000 0.100000
v 0.950000 0.000000 0.100000
v 0.950000 1.000000 0.100000
v 0.050000 1.000000 0.100000
v 0.950000 0.000000 0.050000
v 0.050000 1.000000 0.050000
v 0.050000 0.000000 0.050000
v 0.950000 1.000000 0.050000
v 0.050000 1.000000 0.050000
v 0.050000 0.900000 0.050000
vt 0.333333 1.000000
vt 0.666667 0.000000
vt 0.333333 0.000000
vt 0.666667 1.000000
vt 1.000000 0.888889
vt 0.750000 1.000000
vt 0.750000 0.888889
vt 0.000000 1.000000
vt 1.000000 0.810574
vt 0.000000 0.810574
vt 0.000000 0.405287
vt 1.000000 0.000000
vt 0.833333 1.000000
vt 1.000000 0.000000
vt 0.833333 0.000000
vt 0.166667 1.000000
vt 0.166667 0.000000
vt 0.000000 1.000000
vt 0.000000 0.000000
vt 0.000000 0.000000
vt 0.000000 0.000000
vt 0.000000 0.000000
vt 1.000000 1.000000
vt 1.000000 1.000000
vt 1.000000 1.000000
vn 0.0000 0.0000 -1.0000
vn 0.7071 -0.0000 -0.7071
vn -1.0000 0.0000 0.0000
vn 0.0000 1.0000 0.0000
vn 1.0000 0.0000 -0.0000
vn 0.0000 -1.0000 0.0000
vn 0.7071 -0.7071 0.0000
usemtl Wall
s off
f 16/1/1 14/2/1 13/3/1
f 16/1/1 15/4/1 14/2/1
usemtl Beam
f 5/5/2 21/6/2 22/7/2
f 5/8/3 7/9/3 2/10/3
f 21/11/4 7/9/4 4/12/4
f 20/13/1 10/14/1 17/15/1
f 18/16/5 13/3/5 19/17/5
f 11/18/1 19/17/1 9/19/1
f 15/4/3 17/15/3 14/2/3
f 21/6/1 3/20/1 22/7/1
f 8/21/6 5/5/6 22/7/6
f 22/7/7 4/12/7 1/22/7
f 5/5/2 2/23/2 21/6/2
f 5/8/3 6/24/3 7/9/3
f 4/12/4 3/20/4 21/11/4
f 21/11/4 2/10/4 7/9/4
f 20/13/1 12/25/1 10/14/1
f 18/16/5 16/1/5 13/3/5
f 11/18/1 18/16/1 19/17/1
f 15/4/3 20/13/3 17/15/3
f 22/7/7 3/20/7 4/12/7
