# Blender v2.81 (sub 16) OBJ File: 'Brick Building Piece Set.blend'
# www.blender.org
mtllib Inner_Corner_Wall_Roof_Left.mtl
o Inner_Corner_Wall_Roof_Left
v 0.000000 1.000000 0.100000
v 0.100000 0.900000 0.000000
v 0.000000 1.000000 0.000000
v 0.000000 0.875000 0.000000
v 1.000000 0.900000 0.000000
v 1.000000 1.000000 0.000000
v 1.000000 1.000000 0.100000
v 0.050000 0.000000 0.100000
v 0.050000 0.000000 0.050000
v 0.050000 0.875000 0.100000
v 0.050000 0.812500 0.100000
v 0.050000 0.750000 0.100000
v 0.050000 0.687500 0.100000
v 0.050000 0.625000 0.100000
v 0.050000 0.562500 0.100000
v 0.050000 0.500000 0.100000
v 0.050000 0.437500 0.100000
v 0.050000 0.375000 0.100000
v 0.050000 0.312500 0.100000
v 0.050000 0.250000 0.100000
v 0.050000 0.187500 0.100000
v 0.050000 0.125000 0.100000
v 0.050000 0.062500 0.100000
v 0.100000 0.062500 0.050000
v 0.100000 0.125000 0.050000
v 0.100000 0.187500 0.050000
v 0.100000 0.250000 0.050000
v 0.100000 0.312500 0.050000
v 0.100000 0.375000 0.050000
v 0.100000 0.437500 0.050000
v 0.100000 0.500000 0.050000
v 0.100000 0.562500 0.050000
v 0.100000 0.625000 0.050000
v 0.100000 0.687500 0.050000
v 0.100000 0.750000 0.050000
v 0.100000 0.812500 0.050000
v 0.100000 0.875000 0.050000
v 0.050000 0.062500 0.050000
v 0.050000 0.125000 0.050000
v 0.050000 0.187500 0.050000
v 0.050000 0.250000 0.050000
v 0.050000 0.312500 0.050000
v 0.050000 0.375000 0.050000
v 0.050000 0.437500 0.050000
v 0.050000 0.500000 0.050000
v 0.050000 0.562500 0.050000
v 0.050000 0.625000 0.050000
v 0.050000 0.687500 0.050000
v 0.050000 0.750000 0.050000
v 0.050000 0.812500 0.050000
v 0.050000 0.875000 0.050000
v 0.050000 0.000000 0.000000
v 0.100000 0.000000 0.000000
v 0.100000 0.062500 0.000000
v 0.100000 0.125000 0.000000
v 0.100000 0.187500 0.000000
v 0.100000 0.250000 0.000000
v 0.100000 0.312500 0.000000
v 0.100000 0.375000 0.000000
v 0.100000 0.437500 0.000000
v 0.100000 0.500000 0.000000
v 0.100000 0.562500 0.000000
v 0.100000 0.625000 0.000000
v 0.100000 0.687500 0.000000
v 0.100000 0.750000 0.000000
v 0.100000 0.812500 0.000000
v 0.100000 0.875000 0.000000
v 0.050000 0.062500 0.000000
v 0.050000 0.125000 0.000000
v 0.050000 0.187500 0.000000
v 0.050000 0.250000 0.000000
v 0.050000 0.312500 0.000000
v 0.050000 0.375000 0.000000
v 0.050000 0.437500 0.000000
v 0.050000 0.500000 0.000000
v 0.050000 0.562500 0.000000
v 0.050000 0.625000 0.000000
v 0.050000 0.687500 0.000000
v 0.050000 0.750000 0.000000
v 0.050000 0.812500 0.000000
v 0.050000 0.875000 0.000000
v 0.000000 0.875000 0.100000
v 0.000000 0.812500 0.100000
v 0.000000 0.750000 0.100000
v 0.000000 0.687500 0.100000
v 0.000000 0.625000 0.100000
v 0.000000 0.562500 0.100000
v 0.000000 0.500000 0.100000
v 0.000000 0.437500 0.100000
v 0.000000 0.375000 0.100000
v 0.000000 0.312500 0.100000
v 0.000000 0.250000 0.100000
v 0.000000 0.187500 0.100000
v 0.000000 0.125000 0.100000
v 0.000000 0.062500 0.100000
v 0.000000 0.062500 0.050000
v 0.000000 0.125000 0.050000
v 0.000000 0.187500 0.050000
v 0.000000 0.250000 0.050000
v 0.000000 0.312500 0.050000
v 0.000000 0.375000 0.050000
v 0.000000 0.437500 0.050000
v 0.000000 0.500000 0.050000
v 0.000000 0.562500 0.050000
v 0.000000 0.625000 0.050000
v 0.000000 0.687500 0.050000
v 0.000000 0.750000 0.050000
v 0.000000 0.812500 0.050000
v 0.000000 0.875000 0.050000
v 0.070000 0.187500 0.000000
v 0.070000 0.250000 0.000000
v 0.070000 0.187500 0.050000
v 0.070000 0.250000 0.050000
v 0.050000 0.187500 0.070000
v 0.050000 0.125000 0.070000
v 0.000000 0.187500 0.070000
v 0.000000 0.125000 0.070000
v 0.050000 0.437500 0.070000
v 0.050000 0.375000 0.070000
v 0.000000 0.437500 0.070000
v 0.000000 0.375000 0.070000
v 0.070000 0.500000 0.000000
v 0.070000 0.437500 0.000000
v 0.070000 0.437500 0.050000
v 0.070000 0.500000 0.050000
v 0.050000 0.687500 0.090000
v 0.050000 0.625000 0.090000
v 0.000000 0.625000 0.090000
v 0.000000 0.687500 0.090000
v 0.090000 0.687500 0.000000
v 0.090000 0.750000 0.000000
v 0.090000 0.687500 0.050000
v 0.090000 0.750000 0.050000
v 0.090000 0.062500 0.050000
v 0.090000 0.125000 0.050000
v 0.090000 0.062500 0.000000
v 0.090000 0.125000 0.000000
v 0.050000 0.062500 0.090000
v 0.050000 0.000000 0.090000
v 0.000000 0.062500 0.090000
v 0.000000 0.000000 0.090000
v 0.050000 0.312500 0.090000
v 0.050000 0.250000 0.090000
v 0.000000 0.250000 0.090000
v 0.000000 0.312500 0.090000
v 0.090000 0.375000 0.000000
v 0.090000 0.312500 0.000000
v 0.090000 0.312500 0.050000
v 0.090000 0.375000 0.050000
v 0.080000 0.812500 0.000000
v 0.080000 0.875000 0.000000
v 0.080000 0.812500 0.050000
v 0.080000 0.875000 0.050000
v 0.050000 0.812500 0.080000
v 0.050000 0.750000 0.080000
v 0.000000 0.812500 0.080000
v 0.000000 0.750000 0.080000
v 0.100000 0.000000 0.050000
v 0.100000 0.875000 0.000000
vt 0.000000 0.000000
vt 0.000000 0.513538
vt 0.000000 0.180205
vt 0.250000 0.000000
vt 0.000000 0.000000
vt 1.000000 0.180205
vt 1.000000 0.000000
vt 0.500000 0.000000
vt 1.000000 0.513538
vt 0.133045 0.625000
vt 0.000000 0.625000
vt 0.000000 0.625000
vt 0.000000 0.062500
vt 0.133045 0.000000
vt 0.000000 0.000000
vt 0.000000 0.187500
vt 0.133045 0.125000
vt 0.000000 0.125000
vt 0.000000 0.562500
vt 0.133045 0.562500
vt 0.133045 0.562500
vt 0.000000 0.312500
vt 0.133045 0.250000
vt 0.000000 0.250000
vt 0.000000 0.437500
vt 0.133045 0.375000
vt 0.000000 0.375000
vt 0.133045 0.625000
vt 0.133045 0.500000
vt 0.000000 0.500000
vt 1.000000 0.187500
vt 1.000000 0.187500
vt 1.000000 0.187500
vt 0.000000 0.687500
vt 0.000000 0.500000
vt 0.000000 0.812500
vt 0.133045 0.750000
vt 0.000000 0.750000
vt 0.133045 0.437500
vt 0.133045 0.437500
vt 1.000000 0.500000
vt 1.000000 0.500000
vt 1.000000 0.875000
vt 0.133045 0.812500
vt 0.133045 0.875000
vt 0.133045 0.687500
vt 0.133045 0.625000
vt 1.000000 0.750000
vt 1.000000 0.562500
vt 0.133045 0.562500
vt 1.000000 0.625000
vt 1.000000 0.625000
vt 1.000000 0.375000
vt 0.133045 0.312500
vt 0.133045 0.500000
vt 1.000000 0.250000
vt 0.133045 0.187500
vt 1.000000 0.125000
vt 0.133045 0.062500
vt 1.000000 0.062500
vt 0.133045 0.000000
vt 0.133045 0.062500
vt 1.000000 0.812500
vt 0.133045 0.750000
vt 0.133045 0.812500
vt 1.000000 0.687500
vt 0.133045 0.687500
vt 1.000000 0.562500
vt 1.000000 0.437500
vt 0.133045 0.375000
vt 0.133045 0.437500
vt 1.000000 0.312500
vt 0.133045 0.250000
vt 0.133045 0.312500
vt 0.133045 0.125000
vt 0.133045 0.187500
vt 1.000000 0.375000
vt 1.000000 0.250000
vt 1.000000 0.125000
vt 1.000000 0.062500
vt 1.000000 0.875000
vt 1.000000 0.812500
vt 1.000000 0.750000
vt 0.000000 0.125000
vt 0.133045 0.062500
vt 0.000000 0.062500
vt 0.000000 0.250000
vt 0.133045 0.187500
vt 0.000000 0.187500
vt 0.000000 0.375000
vt 0.133045 0.312500
vt 0.000000 0.312500
vt 0.000000 0.437500
vt 0.000000 0.562500
vt 0.000000 0.750000
vt 0.133045 0.687500
vt 0.000000 0.687500
vt 0.000000 0.875000
vt 0.133045 0.812500
vt 0.000000 0.812500
vt 0.133045 0.750000
vt 0.000000 0.000000
vt 0.000000 0.000000
vt 0.000000 0.000000
vt 0.133045 0.875000
vt 0.133045 0.125000
vt 0.000000 0.875000
vt 1.000000 0.687500
vt 1.000000 0.687500
vt 0.133045 0.250000
vt 0.133045 0.375000
vt 0.133045 0.500000
vt 1.000000 0.187500
vt 1.000000 0.250000
vt 1.000000 0.437500
vt 1.000000 0.437500
vt 1.000000 0.312500
vt 1.000000 0.312500
vt 1.000000 0.312500
vt 0.000000 0.000000
vt 0.000000 0.000000
vt 0.000000 0.000000
vt 0.566523 0.000000
vt 1.000000 0.000000
vt 0.133045 0.875000
vt 1.000000 0.687500
vt 1.000000 0.250000
vt 1.000000 0.437500
vt 1.000000 0.375000
vt 0.000000 0.000000
vt 0.000000 0.000000
vt 0.000000 0.000000
vt 0.000000 0.000000
vt 0.000000 0.000000
vt 0.000000 0.000000
vt 0.000000 0.000000
vt 0.000000 0.000000
vt 0.000000 0.000000
vt 0.000000 0.000000
vt 0.000000 0.000000
vt 0.000000 0.000000
vt 0.000000 0.000000
vt 0.000000 0.000000
vt 0.000000 0.000000
vt 0.000000 0.000000
vt 0.000000 0.000000
vt 0.000000 0.000000
vt 0.000000 0.000000
vt 0.000000 0.000000
vt 0.000000 0.000000
vt 0.000000 0.000000
vt 0.000000 0.000000
vt 0.000000 0.000000
vt 0.000000 0.000000
vt 0.000000 0.000000
vt 0.000000 0.000000
vt 0.000000 0.000000
vt 0.000000 0.000000
vt 0.000000 0.000000
vt 0.000000 0.000000
vt 0.000000 0.000000
vt 0.000000 0.000000
vt 0.000000 0.000000
vt 0.000000 0.000000
vt 0.000000 0.000000
vt 0.000000 0.000000
vt 0.000000 0.000000
vt 0.000000 0.000000
vt 0.000000 0.000000
vt 0.000000 0.000000
vt 0.000000 0.000000
vt 0.000000 0.000000
vt 0.000000 0.000000
vt 0.000000 0.000000
vt 0.000000 0.000000
vt 0.000000 0.000000
vt 0.000000 0.000000
vt 0.000000 0.000000
vt 0.000000 0.000000
vt 0.000000 0.000000
vt 0.000000 0.000000
vt 0.000000 0.000000
vt 0.000000 0.000000
vn -1.0000 0.0000 0.0000
vn 0.0000 -1.0000 0.0000
vn 0.0000 0.0000 -1.0000
vn 0.0000 1.0000 0.0000
vn 0.0000 0.0000 1.0000
usemtl Concrete
s off
f 4/1/1 1/2/1 3/3/1
f 4/1/2 159/4/2 82/5/2
f 6/6/3 5/7/3 2/8/3
f 1/2/4 6/6/4 3/3/4
f 4/1/1 82/5/1 1/2/1
f 159/4/3 4/1/3 2/8/3
f 4/1/3 3/3/3 2/8/3
f 3/3/3 6/6/3 2/8/3
f 1/2/4 7/9/4 6/6/4
usemtl Edge_Brick
f 47/10/4 86/11/4 14/12/4
f 23/13/1 9/14/1 8/15/1
f 21/16/1 39/17/1 22/18/1
f 15/19/2 104/20/2 46/21/2
f 19/22/1 41/23/1 20/24/1
f 17/25/1 43/26/1 18/27/1
f 46/21/3 105/28/3 47/10/3
f 15/19/1 45/29/1 16/30/1
f 26/31/2 110/32/2 56/33/2
f 13/34/1 47/10/1 14/12/1
f 45/29/4 88/35/4 16/30/4
f 11/36/1 49/37/1 12/38/1
f 17/25/2 102/39/2 44/40/2
f 45/29/2 61/41/2 31/42/2
f 37/43/3 50/44/3 51/45/3
f 48/46/1 77/47/1 47/10/1
f 35/48/3 48/46/3 49/37/3
f 32/49/4 76/50/4 46/21/4
f 33/51/3 46/21/3 47/10/3
f 31/42/3 44/40/3 45/29/3
f 47/10/2 63/52/2 33/51/2
f 29/53/3 42/54/3 43/26/3
f 46/21/1 75/55/1 45/29/1
f 27/56/3 40/57/3 41/23/3
f 25/58/3 38/59/3 39/17/3
f 54/60/3 52/61/3 68/62/3
f 66/63/3 79/64/3 80/65/3
f 64/66/3 77/47/3 78/67/3
f 62/68/3 75/55/3 76/50/3
f 60/69/3 73/70/3 74/71/3
f 58/72/3 71/73/3 72/74/3
f 56/33/3 69/75/3 70/76/3
f 50/44/1 79/64/1 49/37/1
f 43/26/2 59/77/2 29/53/2
f 38/59/1 52/61/1 9/14/1
f 41/23/2 57/78/2 27/56/2
f 26/31/4 70/76/4 40/57/4
f 40/57/1 69/75/1 39/17/1
f 39/17/2 55/79/2 25/58/2
f 24/80/4 68/62/4 38/59/4
f 42/54/1 71/73/1 41/23/1
f 51/45/2 67/81/2 37/43/2
f 36/82/4 80/65/4 50/44/4
f 44/40/1 73/70/1 43/26/1
f 49/37/2 65/83/2 35/48/2
f 94/84/1 96/85/1 95/86/1
f 92/87/1 98/88/1 93/89/1
f 90/90/1 100/91/1 91/92/1
f 88/35/1 102/39/1 89/93/1
f 86/11/1 104/20/1 87/94/1
f 84/95/1 106/96/1 85/97/1
f 82/98/1 108/99/1 83/100/1
f 48/46/3 107/101/3 49/37/3
f 13/34/2 106/96/2 48/46/2
f 60/102/3 122/103/3 61/104/3
f 49/37/4 84/95/4 12/38/4
f 50/44/3 109/105/3 51/45/3
f 11/36/2 108/99/2 50/44/2
f 38/59/3 97/106/3 39/17/3
f 51/45/4 82/98/4 10/107/4
f 23/13/2 96/85/2 38/59/2
f 39/17/4 94/84/4 22/18/4
f 34/108/2 130/109/2 64/66/2
f 40/57/3 99/110/3 41/23/3
f 21/16/2 98/88/2 40/57/2
f 41/23/4 92/87/4 20/24/4
f 42/54/3 101/111/3 43/26/3
f 19/22/2 100/91/2 42/54/2
f 43/26/4 90/90/4 18/27/4
f 44/40/3 103/112/3 45/29/3
f 27/56/5 112/113/5 26/31/5
f 57/78/4 113/114/4 27/56/4
f 30/115/2 123/116/2 60/69/2
f 28/117/2 147/118/2 58/72/2
f 29/53/5 148/119/5 28/117/5
f 42/54/4 147/120/4 72/74/4
f 123/121/4 44/40/4 124/122/4
f 48/46/4 130/109/4 78/67/4
f 158/123/2 52/61/2 53/124/2
f 47/10/4 105/28/4 86/11/4
f 23/13/1 38/59/1 9/14/1
f 21/16/1 40/57/1 39/17/1
f 15/19/2 87/94/2 104/20/2
f 19/22/1 42/54/1 41/23/1
f 17/25/1 44/40/1 43/26/1
f 46/21/3 104/20/3 105/28/3
f 15/19/1 46/21/1 45/29/1
f 26/31/2 112/113/2 110/32/2
f 13/34/1 48/46/1 47/10/1
f 45/29/4 103/112/4 88/35/4
f 11/36/1 50/44/1 49/37/1
f 17/25/2 89/93/2 102/39/2
f 45/29/2 75/55/2 61/41/2
f 37/43/3 36/82/3 50/44/3
f 48/46/1 78/67/1 77/47/1
f 35/48/3 34/108/3 48/46/3
f 32/49/4 62/68/4 76/50/4
f 33/51/3 32/49/3 46/21/3
f 31/42/3 30/115/3 44/40/3
f 47/10/2 77/47/2 63/52/2
f 29/53/3 28/117/3 42/54/3
f 46/21/1 76/50/1 75/55/1
f 27/56/3 26/31/3 40/57/3
f 25/58/3 24/80/3 38/59/3
f 54/60/3 53/124/3 52/61/3
f 66/63/3 65/83/3 79/64/3
f 64/66/3 63/52/3 77/47/3
f 62/68/3 61/41/3 75/55/3
f 60/69/3 59/77/3 73/70/3
f 58/72/3 57/78/3 71/73/3
f 56/33/3 55/79/3 69/75/3
f 50/44/1 80/65/1 79/64/1
f 43/26/2 73/70/2 59/77/2
f 38/59/1 68/62/1 52/61/1
f 41/23/2 71/73/2 57/78/2
f 26/31/4 56/33/4 70/76/4
f 40/57/1 70/76/1 69/75/1
f 39/17/2 69/75/2 55/79/2
f 24/80/4 54/60/4 68/62/4
f 42/54/1 72/74/1 71/73/1
f 51/45/2 81/125/2 67/81/2
f 36/82/4 66/63/4 80/65/4
f 44/40/1 74/71/1 73/70/1
f 49/37/2 79/64/2 65/83/2
f 94/84/1 97/106/1 96/85/1
f 92/87/1 99/110/1 98/88/1
f 90/90/1 101/111/1 100/91/1
f 88/35/1 103/112/1 102/39/1
f 86/11/1 105/28/1 104/20/1
f 84/95/1 107/101/1 106/96/1
f 82/98/1 109/105/1 108/99/1
f 48/46/3 106/96/3 107/101/3
f 13/34/2 85/97/2 106/96/2
f 60/102/3 123/121/3 122/103/3
f 49/37/4 107/101/4 84/95/4
f 50/44/3 108/99/3 109/105/3
f 11/36/2 83/100/2 108/99/2
f 38/59/3 96/85/3 97/106/3
f 51/45/4 109/105/4 82/98/4
f 23/13/2 95/86/2 96/85/2
f 39/17/4 97/106/4 94/84/4
f 34/108/2 132/126/2 130/109/2
f 40/57/3 98/88/3 99/110/3
f 21/16/2 93/89/2 98/88/2
f 41/23/4 99/110/4 92/87/4
f 42/54/3 100/91/3 101/111/3
f 19/22/2 91/92/2 100/91/2
f 43/26/4 101/111/4 90/90/4
f 44/40/3 102/39/3 103/112/3
f 27/56/5 113/114/5 112/113/5
f 57/78/4 111/127/4 113/114/4
f 30/115/2 124/128/2 123/116/2
f 28/117/2 148/119/2 147/118/2
f 29/53/5 149/129/5 148/119/5
f 42/54/4 148/130/4 147/120/4
f 123/121/4 74/71/4 44/40/4
f 48/46/4 132/126/4 130/109/4
f 158/123/2 9/14/2 52/61/2
usemtl Brick_1
f 119/131/3 120/132/3 118/133/3
f 124/122/1 122/103/1 123/121/1
f 127/134/3 129/135/3 126/136/3
f 130/137/1 133/138/1 131/139/1
f 119/131/3 121/140/3 120/132/3
f 124/122/1 125/141/1 122/103/1
f 127/134/3 128/142/3 129/135/3
f 130/137/1 132/143/1 133/138/1
usemtl Brick_3
f 62/144/1 33/145/1 63/146/1
f 16/147/3 87/148/3 15/149/3
f 110/150/1 113/151/1 111/152/1
f 114/153/3 117/154/3 116/155/3
f 142/156/3 144/157/3 145/158/3
f 91/159/1 144/157/1 92/160/1
f 148/130/1 146/161/1 147/120/1
f 62/144/1 32/162/1 33/145/1
f 16/147/3 88/163/3 87/148/3
f 110/150/1 112/164/1 113/151/1
f 114/153/3 115/165/3 117/154/3
f 142/156/3 143/166/3 144/157/3
f 91/159/1 145/158/1 144/157/1
f 148/130/1 149/167/1 146/161/1
usemtl Brick_2
f 134/168/1 137/169/1 136/170/1
f 141/171/3 138/172/3 139/173/3
f 150/174/1 153/175/1 151/176/1
f 154/177/3 157/178/3 156/179/3
f 134/168/1 135/180/1 137/169/1
f 141/171/3 140/181/3 138/172/3
f 150/174/1 152/182/1 153/175/1
f 154/177/3 155/183/3 157/178/3
