# Blender v2.81 (sub 16) OBJ File: 'Brick Building Piece Set.blend'
# www.blender.org
mtllib Inner_Corner_Wall_Roof_Outer_Corner.mtl
o Inner_Corner_Wall_Roof_Outer_Corner
v 0.100000 0.000000 0.050000
v 0.300000 0.900000 0.000000
v 0.000000 0.950000 0.200000
v 0.300000 0.900000 0.300000
v 0.000000 0.900000 0.300000
v 0.000000 0.900000 1.000020
v 1.000000 0.900000 0.000000
v 0.200000 0.950003 0.000000
v 0.200000 0.950000 0.200000
v 1.000000 0.900000 1.000020
v 0.050000 0.000000 0.100000
v 0.050000 0.000000 0.050000
v 0.050000 0.812500 0.100000
v 0.050000 0.750000 0.100000
v 0.050000 0.687500 0.100000
v 0.050000 0.625000 0.100000
v 0.050000 0.562500 0.100000
v 0.050000 0.500000 0.100000
v 0.050000 0.437500 0.100000
v 0.050000 0.375000 0.100000
v 0.050000 0.312500 0.100000
v 0.050000 0.250000 0.100000
v 0.050000 0.187500 0.100000
v 0.050000 0.125000 0.100000
v 0.050000 0.062500 0.100000
v 0.100000 0.062500 0.050000
v 0.100000 0.125000 0.050000
v 0.100000 0.187500 0.050000
v 0.100000 0.250000 0.050000
v 0.100000 0.312500 0.050000
v 0.100000 0.375000 0.050000
v 0.100000 0.437500 0.050000
v 0.100000 0.500000 0.050000
v 0.100000 0.562500 0.050000
v 0.100000 0.625000 0.050000
v 0.100000 0.687500 0.050000
v 0.100000 0.750000 0.050000
v 0.100000 0.812500 0.050000
v 0.100000 0.875000 0.050000
v 0.050000 0.062500 0.050000
v 0.050000 0.125000 0.050000
v 0.050000 0.187500 0.050000
v 0.050000 0.250000 0.050000
v 0.050000 0.312500 0.050000
v 0.050000 0.375000 0.050000
v 0.050000 0.437500 0.050000
v 0.050000 0.500000 0.050000
v 0.050000 0.562500 0.050000
v 0.050000 0.625000 0.050000
v 0.050000 0.687500 0.050000
v 0.050000 0.750000 0.050000
v 0.050000 0.812500 0.050000
v 0.050000 0.875000 0.050000
v 0.050000 0.000000 0.000000
v 0.100000 0.000000 0.000000
v 0.100000 0.062500 0.000000
v 0.100000 0.125000 0.000000
v 0.100000 0.187500 0.000000
v 0.100000 0.250000 0.000000
v 0.100000 0.312500 0.000000
v 0.100000 0.375000 0.000000
v 0.100000 0.437500 0.000000
v 0.100000 0.500000 0.000000
v 0.100000 0.562500 0.000000
v 0.100000 0.625000 0.000000
v 0.100000 0.687500 0.000000
v 0.100000 0.750000 0.000000
v 0.100000 0.812500 0.000000
v 0.050000 0.062500 0.000000
v 0.050000 0.125000 0.000000
v 0.050000 0.187500 0.000000
v 0.050000 0.250000 0.000000
v 0.050000 0.312500 0.000000
v 0.050000 0.375000 0.000000
v 0.050000 0.437500 0.000000
v 0.050000 0.500000 0.000000
v 0.050000 0.562500 0.000000
v 0.050000 0.625000 0.000000
v 0.050000 0.687500 0.000000
v 0.050000 0.750000 0.000000
v 0.050000 0.812500 0.000000
v 0.000000 0.875000 0.100000
v 0.000000 0.812500 0.100000
v 0.000000 0.750000 0.100000
v 0.000000 0.687500 0.100000
v 0.000000 0.625000 0.100000
v 0.000000 0.562500 0.100000
v 0.000000 0.500000 0.100000
v 0.000000 0.437500 0.100000
v 0.000000 0.375000 0.100000
v 0.000000 0.312500 0.100000
v 0.000000 0.250000 0.100000
v 0.000000 0.187500 0.100000
v 0.000000 0.125000 0.100000
v 0.000000 0.062500 0.100000
v 0.000000 0.062500 0.050000
v 0.000000 0.125000 0.050000
v 0.000000 0.187500 0.050000
v 0.000000 0.250000 0.050000
v 0.000000 0.312500 0.050000
v 0.000000 0.375000 0.050000
v 0.000000 0.437500 0.050000
v 0.000000 0.500000 0.050000
v 0.000000 0.562500 0.050000
v 0.000000 0.625000 0.050000
v 0.000000 0.687500 0.050000
v 0.000000 0.750000 0.050000
v 0.000000 0.812500 0.050000
v 0.000000 0.875000 0.050000
v 0.070000 0.187500 0.000000
v 0.070000 0.250000 0.000000
v 0.070000 0.187500 0.050000
v 0.070000 0.250000 0.050000
v 0.050000 0.187500 0.070000
v 0.050000 0.125000 0.070000
v 0.000000 0.187500 0.070000
v 0.000000 0.125000 0.070000
v 0.050000 0.437500 0.070000
v 0.050000 0.375000 0.070000
v 0.000000 0.437500 0.070000
v 0.000000 0.375000 0.070000
v 0.070000 0.500000 0.000000
v 0.070000 0.437500 0.000000
v 0.070000 0.437500 0.050000
v 0.070000 0.500000 0.050000
v 0.050000 0.687500 0.090000
v 0.050000 0.625000 0.090000
v 0.000000 0.625000 0.090000
v 0.000000 0.687500 0.090000
v 0.090000 0.687500 0.000000
v 0.090000 0.750000 0.000000
v 0.090000 0.687500 0.050000
v 0.090000 0.750000 0.050000
v 0.090000 0.062500 0.050000
v 0.090000 0.125000 0.050000
v 0.090000 0.062500 0.000000
v 0.090000 0.125000 0.000000
v 0.050000 0.062500 0.090000
v 0.050000 0.000000 0.090000
v 0.000000 0.062500 0.090000
v 0.000000 0.000000 0.090000
v 0.050000 0.312500 0.090000
v 0.050000 0.250000 0.090000
v 0.000000 0.250000 0.090000
v 0.000000 0.312500 0.090000
v 0.090000 0.375000 0.000000
v 0.090000 0.312500 0.000000
v 0.090000 0.312500 0.050000
v 0.090000 0.375000 0.050000
v 0.080000 0.812500 0.000000
v 0.080000 0.875000 0.000000
v 0.080000 0.812500 0.050000
v 0.080000 0.875000 0.050000
v 0.050000 0.812500 0.080000
v 0.050000 0.750000 0.080000
v 0.000000 0.812500 0.080000
v 0.000000 0.750000 0.080000
v 0.049804 0.950004 -0.000028
v -0.000196 0.950002 0.049972
v 0.050000 0.950003 0.050000
v 0.000000 0.875000 0.050000
v 0.050000 0.875000 0.000000
vt 0.096165 0.222222
vt 1.000000 0.000000
vt 0.096165 0.000000
vt 0.096165 0.333333
vt 1.000000 1.000000
vt 1.000000 0.333333
vt 0.000000 1.000000
vt 0.000000 0.333333
vt 0.000000 0.222222
vt 0.000000 0.000000
vt 0.024041 0.055556
vt 0.048083 0.000000
vt 0.000000 0.111111
vt 0.000000 0.000000
vt 0.000000 0.000000
vt 0.000000 0.000000
vt 1.000000 0.222222
vt 0.096165 1.000000
vt 0.000000 0.000000
vt 0.133045 0.625000
vt 0.000000 0.625000
vt 0.000000 0.625000
vt 0.000000 0.062500
vt 0.133045 0.000000
vt 0.000000 0.000000
vt 0.000000 0.187500
vt 0.133045 0.125000
vt 0.000000 0.125000
vt 0.000000 0.562500
vt 0.133045 0.562500
vt 0.133045 0.562500
vt 0.000000 0.312500
vt 0.133045 0.250000
vt 0.000000 0.250000
vt 0.000000 0.437500
vt 0.133045 0.375000
vt 0.000000 0.375000
vt 0.133045 0.625000
vt 0.133045 0.500000
vt 0.000000 0.500000
vt 1.000000 0.187500
vt 1.000000 0.187500
vt 1.000000 0.187500
vt 0.000000 0.687500
vt 0.000000 0.500000
vt 0.000000 0.812500
vt 0.133045 0.750000
vt 0.000000 0.750000
vt 0.133045 0.437500
vt 0.133045 0.437500
vt 1.000000 0.500000
vt 1.000000 0.500000
vt 1.000000 0.875000
vt 0.133045 0.812500
vt 0.133045 0.875000
vt 0.133045 0.687500
vt 0.133045 0.625000
vt 1.000000 0.750000
vt 1.000000 0.562500
vt 0.133045 0.562500
vt 1.000000 0.625000
vt 1.000000 0.625000
vt 1.000000 0.375000
vt 0.133045 0.312500
vt 0.133045 0.500000
vt 1.000000 0.250000
vt 0.133045 0.187500
vt 1.000000 0.125000
vt 0.133045 0.062500
vt 1.000000 0.062500
vt 0.133045 0.000000
vt 0.133045 0.062500
vt 1.000000 0.812500
vt 0.133045 0.750000
vt 0.133045 0.812500
vt 1.000000 0.687500
vt 0.133045 0.687500
vt 1.000000 0.562500
vt 1.000000 0.437500
vt 0.133045 0.375000
vt 0.133045 0.437500
vt 1.000000 0.312500
vt 0.133045 0.250000
vt 0.133045 0.312500
vt 0.133045 0.125000
vt 0.133045 0.187500
vt 1.000000 0.375000
vt 1.000000 0.250000
vt 1.000000 0.125000
vt 1.000000 0.062500
vt 1.000000 0.812500
vt 1.000000 0.750000
vt 0.000000 0.125000
vt 0.133045 0.062500
vt 0.000000 0.062500
vt 0.000000 0.250000
vt 0.133045 0.187500
vt 0.000000 0.187500
vt 0.000000 0.375000
vt 0.133045 0.312500
vt 0.000000 0.312500
vt 0.000000 0.437500
vt 0.000000 0.562500
vt 0.000000 0.750000
vt 0.133045 0.687500
vt 0.000000 0.687500
vt 0.000000 0.875000
vt 0.133045 0.812500
vt 0.000000 0.812500
vt 0.133045 0.750000
vt 0.000000 0.000000
vt 0.000000 0.000000
vt 0.000000 0.000000
vt 0.133045 0.875000
vt 0.133045 0.125000
vt 1.000000 0.687500
vt 1.000000 0.687500
vt 0.133045 0.250000
vt 0.133045 0.375000
vt 0.133045 0.500000
vt 1.000000 0.187500
vt 1.000000 0.250000
vt 1.000000 0.437500
vt 1.000000 0.437500
vt 1.000000 0.312500
vt 1.000000 0.312500
vt 1.000000 0.312500
vt 0.000000 0.000000
vt 0.000000 0.000000
vt 0.000000 0.000000
vt 0.566523 0.000000
vt 1.000000 0.000000
vt 1.000000 0.687500
vt 1.000000 0.250000
vt 1.000000 0.437500
vt 1.000000 0.375000
vt 0.000000 0.000000
vt 0.000000 0.000000
vt 0.000000 0.000000
vt 0.000000 0.000000
vt 0.000000 0.000000
vt 0.000000 0.000000
vt 0.000000 0.000000
vt 0.000000 0.000000
vt 0.000000 0.000000
vt 0.000000 0.000000
vt 0.000000 0.000000
vt 0.000000 0.000000
vt 0.000000 0.000000
vt 0.000000 0.000000
vt 0.000000 0.000000
vt 0.000000 0.000000
vt 0.000000 0.000000
vt 0.000000 0.000000
vt 0.000000 0.000000
vt 0.000000 0.000000
vt 0.000000 0.000000
vt 0.000000 0.000000
vt 0.000000 0.000000
vt 0.000000 0.000000
vt 0.000000 0.000000
vt 0.000000 0.000000
vt 0.000000 0.000000
vt 0.000000 0.000000
vt 0.000000 0.000000
vt 0.000000 0.000000
vt 0.000000 0.000000
vt 0.000000 0.000000
vt 0.000000 0.000000
vt 0.000000 0.000000
vt 0.000000 0.000000
vt 0.000000 0.000000
vt 0.000000 0.000000
vt 0.000000 0.000000
vt 0.000000 0.000000
vt 0.000000 0.000000
vt 0.000000 0.000000
vt 0.000000 0.000000
vt 0.000000 0.000000
vt 0.000000 0.000000
vt 0.000000 0.000000
vt 0.000000 0.000000
vt 0.000000 0.000000
vt 0.000000 0.000000
vt 0.000000 0.000000
vt 0.000000 0.000000
vt 0.000000 0.000000
vt 0.000000 0.000000
vn 0.4472 0.8944 0.0000
vn 0.0000 1.0000 0.0000
vn 0.0000 0.8944 0.4472
vn -1.0000 -0.0026 0.0039
vn 0.0006 -0.0004 -1.0000
vn 0.0000 -1.0000 0.0000
vn -1.0000 0.0000 0.0000
vn 0.0000 0.0000 -1.0000
vn 0.0000 0.0000 1.0000
usemtl Roof
s off
f 9/1/1 2/2/1 8/3/1
f 4/4/2 7/5/2 2/6/2
f 6/7/2 4/4/2 5/8/2
f 5/8/3 9/1/3 3/9/3
f 162/10/4 160/11/4 158/12/4
f 3/9/2 160/11/2 159/13/2
f 8/3/2 160/11/2 9/1/2
f 160/11/5 161/14/5 159/13/5
f 151/15/6 53/16/6 162/10/6
f 9/1/1 4/17/1 2/2/1
f 4/4/2 10/18/2 7/5/2
f 6/7/2 10/18/2 4/4/2
f 5/8/3 4/4/3 9/1/3
f 162/10/7 53/16/7 160/11/7
f 3/9/2 9/1/2 160/11/2
f 8/3/2 158/12/2 160/11/2
f 160/11/8 53/16/8 161/14/8
f 151/15/6 153/19/6 53/16/6
usemtl Edge_Brick
f 49/20/2 86/21/2 16/22/2
f 25/23/7 12/24/7 11/25/7
f 23/26/7 41/27/7 24/28/7
f 17/29/6 104/30/6 48/31/6
f 21/32/7 43/33/7 22/34/7
f 19/35/7 45/36/7 20/37/7
f 48/31/8 105/38/8 49/20/8
f 17/29/7 47/39/7 18/40/7
f 28/41/6 110/42/6 58/43/6
f 15/44/7 49/20/7 16/22/7
f 47/39/2 88/45/2 18/40/2
f 13/46/7 51/47/7 14/48/7
f 19/35/6 102/49/6 46/50/6
f 47/39/6 63/51/6 33/52/6
f 39/53/8 52/54/8 53/55/8
f 50/56/7 78/57/7 49/20/7
f 37/58/8 50/56/8 51/47/8
f 34/59/2 77/60/2 48/31/2
f 35/61/8 48/31/8 49/20/8
f 33/52/8 46/50/8 47/39/8
f 49/20/6 65/62/6 35/61/6
f 31/63/8 44/64/8 45/36/8
f 48/31/7 76/65/7 47/39/7
f 29/66/8 42/67/8 43/33/8
f 27/68/8 40/69/8 41/27/8
f 56/70/8 54/71/8 69/72/8
f 68/73/8 80/74/8 81/75/8
f 66/76/8 78/57/8 79/77/8
f 64/78/8 76/65/8 77/60/8
f 62/79/8 74/80/8 75/81/8
f 60/82/8 72/83/8 73/84/8
f 58/43/8 70/85/8 71/86/8
f 52/54/7 80/74/7 51/47/7
f 45/36/6 61/87/6 31/63/6
f 40/69/7 54/71/7 12/24/7
f 43/33/6 59/88/6 29/66/6
f 28/41/2 71/86/2 42/67/2
f 42/67/7 70/85/7 41/27/7
f 41/27/6 57/89/6 27/68/6
f 26/90/2 69/72/2 40/69/2
f 44/64/7 72/83/7 43/33/7
f 38/91/2 81/75/2 52/54/2
f 46/50/7 74/80/7 45/36/7
f 51/47/6 67/92/6 37/58/6
f 94/93/7 96/94/7 95/95/7
f 92/96/7 98/97/7 93/98/7
f 90/99/7 100/100/7 91/101/7
f 88/45/7 102/49/7 89/102/7
f 86/21/7 104/30/7 87/103/7
f 84/104/7 106/105/7 85/106/7
f 82/107/7 108/108/7 83/109/7
f 50/56/8 107/110/8 51/47/8
f 15/44/6 106/105/6 50/56/6
f 62/111/8 122/112/8 63/113/8
f 51/47/2 84/104/2 14/48/2
f 52/54/8 109/114/8 53/55/8
f 13/46/6 108/108/6 52/54/6
f 40/69/8 97/115/8 41/27/8
f 25/23/6 96/94/6 40/69/6
f 41/27/2 94/93/2 24/28/2
f 36/116/6 130/117/6 66/76/6
f 42/67/8 99/118/8 43/33/8
f 23/26/6 98/97/6 42/67/6
f 43/33/2 92/96/2 22/34/2
f 44/64/8 101/119/8 45/36/8
f 21/32/6 100/100/6 44/64/6
f 45/36/2 90/99/2 20/37/2
f 46/50/8 103/120/8 47/39/8
f 29/66/9 112/121/9 28/41/9
f 59/88/2 113/122/2 29/66/2
f 32/123/6 123/124/6 62/79/6
f 30/125/6 147/126/6 60/82/6
f 31/63/9 148/127/9 30/125/9
f 44/64/2 147/128/2 73/84/2
f 123/129/2 46/50/2 124/130/2
f 50/56/2 130/117/2 79/77/2
f 1/131/6 54/71/6 55/132/6
f 49/20/2 105/38/2 86/21/2
f 25/23/7 40/69/7 12/24/7
f 23/26/7 42/67/7 41/27/7
f 17/29/6 87/103/6 104/30/6
f 21/32/7 44/64/7 43/33/7
f 19/35/7 46/50/7 45/36/7
f 48/31/8 104/30/8 105/38/8
f 17/29/7 48/31/7 47/39/7
f 28/41/6 112/121/6 110/42/6
f 15/44/7 50/56/7 49/20/7
f 47/39/2 103/120/2 88/45/2
f 13/46/7 52/54/7 51/47/7
f 19/35/6 89/102/6 102/49/6
f 47/39/6 76/65/6 63/51/6
f 39/53/8 38/91/8 52/54/8
f 50/56/7 79/77/7 78/57/7
f 37/58/8 36/116/8 50/56/8
f 34/59/2 64/78/2 77/60/2
f 35/61/8 34/59/8 48/31/8
f 33/52/8 32/123/8 46/50/8
f 49/20/6 78/57/6 65/62/6
f 31/63/8 30/125/8 44/64/8
f 48/31/7 77/60/7 76/65/7
f 29/66/8 28/41/8 42/67/8
f 27/68/8 26/90/8 40/69/8
f 56/70/8 55/132/8 54/71/8
f 68/73/8 67/92/8 80/74/8
f 66/76/8 65/62/8 78/57/8
f 64/78/8 63/51/8 76/65/8
f 62/79/8 61/87/8 74/80/8
f 60/82/8 59/88/8 72/83/8
f 58/43/8 57/89/8 70/85/8
f 52/54/7 81/75/7 80/74/7
f 45/36/6 74/80/6 61/87/6
f 40/69/7 69/72/7 54/71/7
f 43/33/6 72/83/6 59/88/6
f 28/41/2 58/43/2 71/86/2
f 42/67/7 71/86/7 70/85/7
f 41/27/6 70/85/6 57/89/6
f 26/90/2 56/70/2 69/72/2
f 44/64/7 73/84/7 72/83/7
f 38/91/2 68/73/2 81/75/2
f 46/50/7 75/81/7 74/80/7
f 51/47/6 80/74/6 67/92/6
f 94/93/7 97/115/7 96/94/7
f 92/96/7 99/118/7 98/97/7
f 90/99/7 101/119/7 100/100/7
f 88/45/7 103/120/7 102/49/7
f 86/21/7 105/38/7 104/30/7
f 84/104/7 107/110/7 106/105/7
f 82/107/7 109/114/7 108/108/7
f 50/56/8 106/105/8 107/110/8
f 15/44/6 85/106/6 106/105/6
f 62/111/8 123/129/8 122/112/8
f 51/47/2 107/110/2 84/104/2
f 52/54/8 108/108/8 109/114/8
f 13/46/6 83/109/6 108/108/6
f 40/69/8 96/94/8 97/115/8
f 25/23/6 95/95/6 96/94/6
f 41/27/2 97/115/2 94/93/2
f 36/116/6 132/133/6 130/117/6
f 42/67/8 98/97/8 99/118/8
f 23/26/6 93/98/6 98/97/6
f 43/33/2 99/118/2 92/96/2
f 44/64/8 100/100/8 101/119/8
f 21/32/6 91/101/6 100/100/6
f 45/36/2 101/119/2 90/99/2
f 46/50/8 102/49/8 103/120/8
f 29/66/9 113/122/9 112/121/9
f 59/88/2 111/134/2 113/122/2
f 32/123/6 124/135/6 123/124/6
f 30/125/6 148/127/6 147/126/6
f 31/63/9 149/136/9 148/127/9
f 44/64/2 148/137/2 147/128/2
f 123/129/2 75/81/2 46/50/2
f 50/56/2 132/133/2 130/117/2
f 1/131/6 12/24/6 54/71/6
usemtl Brick_1
f 119/138/8 120/139/8 118/140/8
f 124/130/7 122/112/7 123/129/7
f 127/141/8 129/142/8 126/143/8
f 130/144/7 133/145/7 131/146/7
f 119/138/8 121/147/8 120/139/8
f 124/130/7 125/148/7 122/112/7
f 127/141/8 128/149/8 129/142/8
f 130/144/7 132/150/7 133/145/7
usemtl Brick_3
f 64/151/7 35/152/7 65/153/7
f 18/154/8 87/155/8 17/156/8
f 110/157/7 113/158/7 111/159/7
f 114/160/8 117/161/8 116/162/8
f 142/163/8 144/164/8 145/165/8
f 91/166/7 144/164/7 92/167/7
f 148/137/7 146/168/7 147/128/7
f 64/151/7 34/169/7 35/152/7
f 18/154/8 88/170/8 87/155/8
f 110/157/7 112/171/7 113/158/7
f 114/160/8 115/172/8 117/161/8
f 142/163/8 143/173/8 144/164/8
f 91/166/7 145/165/7 144/164/7
f 148/137/7 149/174/7 146/168/7
usemtl Brick_2
f 134/175/7 137/176/7 136/177/7
f 141/178/8 138/179/8 139/180/8
f 150/181/7 153/19/7 151/15/7
f 154/182/8 157/183/8 156/184/8
f 134/175/7 135/185/7 137/176/7
f 141/178/8 140/186/8 138/179/8
f 150/181/7 152/187/7 153/19/7
f 154/182/8 155/188/8 157/183/8
