# Blender v2.81 (sub 16) OBJ File: 'Brick Building Piece Set.blend'
# www.blender.org
mtllib Outer_Corner_Roof_Wall_Inner_Corner.mtl
o Outer_Corner_Roof_Wall_Inner_Corner
v 0.000000 0.900000 1.000000
v 1.000000 0.900000 0.000000
v 0.100000 1.000000 1.000000
v 0.000000 1.000000 1.000000
v 1.000000 1.000000 0.000000
v 1.000000 1.000000 0.100000
v 0.000000 0.900000 0.000000
v 0.000000 1.000000 0.000000
v 0.100000 1.000000 0.100000
vt 0.104443 0.180205
vt 1.000000 0.000000
vt 0.104443 0.000000
vt 0.104443 0.513538
vt 1.000000 0.180205
vt 0.000000 0.180205
vt 0.000000 0.000000
vt 1.000000 0.513538
vt 0.000000 0.513538
vn 0.0000 0.0000 -1.0000
vn 0.0000 1.0000 0.0000
vn -1.0000 0.0000 0.0000
usemtl Concrete
s off
f 8/1/1 2/2/1 7/3/1
f 9/4/2 5/5/2 8/1/2
f 4/6/2 9/4/2 8/1/2
f 4/6/3 7/3/3 1/7/3
f 8/1/1 5/5/1 2/2/1
f 9/4/2 6/8/2 5/5/2
f 4/6/2 3/9/2 9/4/2
f 4/6/3 8/1/3 7/3/3
