# Blender v2.81 (sub 16) OBJ File: 'Brick Building Piece Set.blend'
# www.blender.org
mtllib Straight_Edge_Wall_Roof_Right.mtl
o Straight_Edge_Wall_Roof_Right
v 0.000000 0.875000 0.100000
v 0.000000 1.000000 0.050000
v 0.125000 1.000000 0.050000
v 0.125000 1.000000 1.000000
v 0.000000 0.900000 0.100000
v 0.000000 0.900000 1.000000
v 0.000000 1.000000 1.000000
v 0.000000 0.875000 0.050000
v 0.125000 0.875000 0.050000
v 0.000000 0.000000 0.100000
v 1.000000 0.000000 0.100000
v 1.000000 1.000000 0.100000
v 0.250000 0.000000 0.100000
v 0.500000 0.000000 0.100000
v 0.750000 0.000000 0.100000
v 0.000000 0.875000 0.100000
v 0.000000 0.750000 0.100000
v 0.000000 0.625000 0.100000
v 0.000000 0.500000 0.100000
v 0.000000 0.375000 0.100000
v 0.000000 0.250000 0.100000
v 0.000000 0.125000 0.100000
v 1.000000 0.125000 0.100000
v 1.000000 0.250000 0.100000
v 1.000000 0.375000 0.100000
v 1.000000 0.500000 0.100000
v 1.000000 0.625000 0.100000
v 1.000000 0.750000 0.100000
v 1.000000 0.875000 0.100000
v 0.875000 1.000000 0.100000
v 0.625000 1.000000 0.100000
v 0.375000 1.000000 0.100000
v 0.125000 1.000000 0.100000
v 0.125000 0.125000 0.100000
v 0.250000 0.125000 0.100000
v 0.375000 0.125000 0.100000
v 0.500000 0.125000 0.100000
v 0.625000 0.125000 0.100000
v 0.750000 0.125000 0.100000
v 0.875000 0.125000 0.100000
v 0.125000 0.250000 0.100000
v 0.250000 0.250000 0.100000
v 0.375000 0.250000 0.100000
v 0.500000 0.250000 0.100000
v 0.625000 0.250000 0.100000
v 0.750000 0.250000 0.100000
v 0.875000 0.250000 0.100000
v 0.125000 0.375000 0.100000
v 0.250000 0.375000 0.100000
v 0.375000 0.375000 0.100000
v 0.500000 0.375000 0.100000
v 0.625000 0.375000 0.100000
v 0.750000 0.375000 0.100000
v 0.875000 0.375000 0.100000
v 0.125000 0.500000 0.100000
v 0.250000 0.500000 0.100000
v 0.375000 0.500000 0.100000
v 0.500000 0.500000 0.100000
v 0.625000 0.500000 0.100000
v 0.750000 0.500000 0.100000
v 0.875000 0.500000 0.100000
v 0.125000 0.625000 0.100000
v 0.250000 0.625000 0.100000
v 0.375000 0.625000 0.100000
v 0.500000 0.625000 0.100000
v 0.625000 0.625000 0.100000
v 0.750000 0.625000 0.100000
v 0.875000 0.625000 0.100000
v 0.125000 0.750000 0.100000
v 0.250000 0.750000 0.100000
v 0.375000 0.750000 0.100000
v 0.500000 0.750000 0.100000
v 0.625000 0.750000 0.100000
v 0.750000 0.750000 0.100000
v 0.875000 0.750000 0.100000
v 0.125000 0.875000 0.100000
v 0.250000 0.875000 0.100000
v 0.375000 0.875000 0.100000
v 0.500000 0.875000 0.100000
v 0.625000 0.875000 0.100000
v 0.750000 0.875000 0.100000
v 0.875000 0.875000 0.100000
v 1.000000 0.875000 0.090000
v 1.000000 1.000000 0.090000
v 0.125000 1.000000 0.090000
v 0.500000 0.000000 0.090000
v 0.750000 0.000000 0.090000
v 0.000000 0.875000 0.090000
v 0.000000 0.750000 0.090000
v 0.000000 0.625000 0.090000
v 0.000000 0.375000 0.090000
v 0.000000 0.250000 0.090000
v 1.000000 0.625000 0.090000
v 1.000000 0.750000 0.090000
v 0.875000 1.000000 0.090000
v 0.625000 1.000000 0.090000
v 0.375000 1.000000 0.090000
v 0.500000 0.125000 0.090000
v 0.625000 0.125000 0.090000
v 0.750000 0.125000 0.090000
v 0.875000 0.125000 0.090000
v 0.125000 0.250000 0.090000
v 0.250000 0.250000 0.090000
v 0.625000 0.250000 0.090000
v 0.750000 0.250000 0.090000
v 0.875000 0.250000 0.090000
v 0.125000 0.375000 0.090000
v 0.250000 0.375000 0.090000
v 0.375000 0.375000 0.090000
v 0.500000 0.375000 0.090000
v 0.625000 0.375000 0.090000
v 0.375000 0.500000 0.090000
v 0.500000 0.500000 0.090000
v 0.625000 0.500000 0.090000
v 0.750000 0.500000 0.090000
v 0.875000 0.625000 0.090000
v 0.125000 0.625000 0.090000
v 0.500000 0.625000 0.090000
v 0.625000 0.625000 0.090000
v 0.750000 0.625000 0.090000
v 0.875000 0.750000 0.090000
v 0.125000 0.750000 0.090000
v 0.250000 0.750000 0.090000
v 0.375000 0.750000 0.090000
v 0.500000 0.750000 0.090000
v 0.875000 0.875000 0.090000
v 0.125000 0.875000 0.090000
v 0.250000 0.875000 0.090000
v 0.375000 0.875000 0.090000
v 0.500000 0.875000 0.090000
v 0.625000 0.875000 0.090000
v 0.000000 0.125000 0.080000
v 0.000000 0.000000 0.080000
v 0.250000 0.000000 0.080000
v 0.750000 0.000000 0.080000
v 1.000000 0.000000 0.080000
v 0.000000 0.625000 0.080000
v 0.000000 0.500000 0.080000
v 1.000000 0.125000 0.080000
v 1.000000 0.750000 0.080000
v 1.000000 0.875000 0.080000
v 0.375000 1.000000 0.080000
v 0.125000 1.000000 0.080000
v 0.875000 0.125000 0.080000
v 0.125000 0.125000 0.080000
v 0.250000 0.125000 0.080000
v 0.375000 0.125000 0.080000
v 0.500000 0.125000 0.080000
v 0.625000 0.125000 0.080000
v 0.750000 0.125000 0.080000
v 0.250000 0.250000 0.080000
v 0.375000 0.250000 0.080000
v 0.500000 0.250000 0.080000
v 0.625000 0.250000 0.080000
v 0.250000 0.375000 0.080000
v 0.375000 0.375000 0.080000
v 0.500000 0.375000 0.080000
v 0.625000 0.375000 0.080000
v 0.750000 0.375000 0.080000
v 0.875000 0.375000 0.080000
v 0.125000 0.500000 0.080000
v 0.250000 0.500000 0.080000
v 0.625000 0.500000 0.080000
v 0.750000 0.500000 0.080000
v 0.875000 0.500000 0.080000
v 0.125000 0.625000 0.080000
v 0.250000 0.625000 0.080000
v 0.375000 0.625000 0.080000
v 0.500000 0.625000 0.080000
v 0.625000 0.625000 0.080000
v 0.875000 0.750000 0.080000
v 0.375000 0.750000 0.080000
v 0.500000 0.750000 0.080000
v 0.625000 0.750000 0.080000
v 0.750000 0.750000 0.080000
v 0.875000 0.875000 0.080000
v 0.125000 0.875000 0.080000
v 0.250000 0.875000 0.080000
v 0.375000 0.875000 0.080000
v 0.750000 0.875000 0.080000
v 0.000000 0.875000 0.070000
v 0.000000 0.750000 0.070000
v 0.000000 0.500000 0.070000
v 0.000000 0.375000 0.070000
v 0.000000 0.250000 0.070000
v 0.000000 0.125000 0.070000
v 1.000000 0.125000 0.070000
v 1.000000 0.250000 0.070000
v 1.000000 0.375000 0.070000
v 1.000000 0.500000 0.070000
v 1.000000 0.625000 0.070000
v 0.875000 0.125000 0.070000
v 0.125000 0.125000 0.070000
v 0.875000 0.250000 0.070000
v 0.125000 0.250000 0.070000
v 0.500000 0.250000 0.070000
v 0.625000 0.250000 0.070000
v 0.750000 0.250000 0.070000
v 0.875000 0.375000 0.070000
v 0.125000 0.375000 0.070000
v 0.500000 0.375000 0.070000
v 0.625000 0.375000 0.070000
v 0.750000 0.375000 0.070000
v 0.875000 0.500000 0.070000
v 0.125000 0.500000 0.070000
v 0.250000 0.500000 0.070000
v 0.375000 0.500000 0.070000
v 0.500000 0.500000 0.070000
v 0.750000 0.500000 0.070000
v 0.875000 0.625000 0.070000
v 0.250000 0.625000 0.070000
v 0.375000 0.625000 0.070000
v 0.500000 0.625000 0.070000
v 0.750000 0.625000 0.070000
v 0.125000 0.750000 0.070000
v 0.250000 0.750000 0.070000
v 0.500000 0.750000 0.070000
v 0.625000 0.750000 0.070000
v 0.750000 0.750000 0.070000
v 0.125000 0.875000 0.070000
v 0.250000 0.875000 0.070000
v 0.500000 0.875000 0.070000
v 0.625000 0.875000 0.070000
v 0.750000 0.875000 0.070000
vt 1.000000 0.888889
vt 0.500000 1.000000
vt 0.500000 0.888889
vt 0.000000 1.000000
vt 1.000000 0.810574
vt 0.000000 0.810574
vt 1.000000 0.000000
vt 0.000000 0.000000
vt 1.000000 0.777778
vt 0.125000 0.875000
vt 0.125000 1.000000
vt 1.000000 1.000000
vt 1.000000 1.000000
vt 0.750000 0.833333
vt 0.500000 0.375000
vt 0.625000 0.375000
vt 0.625000 0.375000
vt 0.250000 0.125000
vt 0.125000 0.125000
vt 0.125000 0.250000
vt 0.250000 0.625000
vt 0.125000 0.625000
vt 0.125000 0.750000
vt 0.000000 0.000000
vt 0.000000 0.000000
vt 0.000000 0.000000
vt 0.250000 0.000000
vt 0.375000 0.125000
vt 0.500000 0.000000
vt 0.625000 0.250000
vt 0.625000 0.125000
vt 0.625000 0.125000
vt 0.750000 0.125000
vt 0.875000 0.125000
vt 0.875000 0.125000
vt 0.750000 0.750000
vt 0.875000 0.750000
vt 0.875000 0.750000
vt 0.875000 0.375000
vt 1.000000 0.250000
vt 0.875000 0.250000
vt 0.625000 0.750000
vt 0.750000 0.750000
vt 0.375000 0.375000
vt 0.500000 0.375000
vt 0.000000 0.000000
vt 0.000000 0.000000
vt 0.000000 0.000000
vt 0.000000 0.625000
vt 0.125000 0.625000
vt 0.125000 0.250000
vt 0.125000 0.750000
vt 0.875000 0.625000
vt 1.000000 0.625000
vt 1.000000 0.625000
vt 0.500000 0.125000
vt 0.500000 0.125000
vt 0.750000 0.500000
vt 0.750000 0.625000
vt 0.750000 0.625000
vt 0.750000 0.875000
vt 0.625000 0.875000
vt 0.625000 1.000000
vt 0.875000 0.750000
vt 0.875000 0.625000
vt 0.750000 0.125000
vt 0.625000 0.250000
vt 0.125000 0.250000
vt 0.000000 0.250000
vt 0.000000 0.375000
vt 0.375000 0.375000
vt 0.375000 0.500000
vt 0.625000 0.500000
vt 0.500000 0.500000
vt 0.500000 0.625000
vt 0.000000 0.750000
vt 0.000000 0.625000
vt 0.375000 0.750000
vt 0.250000 0.750000
vt 0.250000 0.875000
vt 0.875000 0.875000
vt 1.000000 0.875000
vt 1.000000 0.875000
vt 0.875000 0.250000
vt 0.000000 0.875000
vt 0.125000 0.875000
vt 0.125000 0.875000
vt 0.000000 0.250000
vt 0.250000 0.250000
vt 0.250000 0.375000
vt 0.250000 0.375000
vt 0.250000 0.875000
vt 0.250000 0.750000
vt 0.250000 0.250000
vt 0.625000 0.625000
vt 0.500000 0.625000
vt 0.375000 0.875000
vt 0.000000 0.000000
vt 0.000000 0.000000
vt 0.000000 0.000000
vt 0.500000 0.750000
vt 0.500000 0.875000
vt 0.500000 0.875000
vt 0.625000 0.625000
vt 0.625000 0.875000
vt 0.125000 1.000000
vt 0.125000 1.000000
vt 1.000000 0.750000
vt 0.375000 0.500000
vt 0.000000 0.000000
vt 0.000000 0.000000
vt 0.000000 0.000000
vt 0.375000 1.000000
vt 0.375000 0.875000
vt 0.750000 0.250000
vt 0.000000 0.750000
vt 0.625000 0.500000
vt 0.500000 0.500000
vt 0.750000 0.250000
vt 0.375000 0.750000
vt 0.750000 0.500000
vt 0.125000 0.375000
vt 0.000000 0.375000
vt 0.500000 0.750000
vt 0.750000 0.000000
vt 0.125000 0.375000
vt 0.250000 0.875000
vt 0.875000 0.875000
vt 1.000000 0.750000
vt 0.625000 0.750000
vt 0.000000 0.000000
vt 0.000000 0.000000
vt 0.750000 0.375000
vt 0.750000 0.375000
vt 0.375000 0.625000
vt 0.500000 0.625000
vt 0.250000 0.250000
vt 0.500000 0.250000
vt 0.500000 0.375000
vt 0.375000 0.875000
vt 0.375000 0.250000
vt 0.375000 0.250000
vt 0.000000 0.500000
vt 0.125000 0.500000
vt 0.125000 0.500000
vt 0.750000 0.750000
vt 0.000000 0.000000
vt 0.000000 0.000000
vt 0.000000 0.000000
vt 0.500000 0.250000
vt 1.000000 0.125000
vt 0.875000 0.125000
vt 0.375000 1.000000
vt 0.000000 0.125000
vt 0.000000 0.125000
vt 0.750000 0.875000
vt 0.875000 0.500000
vt 0.875000 0.500000
vt 0.250000 0.500000
vt 0.250000 0.625000
vt 0.750000 0.500000
vt 0.500000 0.750000
vt 0.875000 0.500000
vt 1.000000 0.375000
vt 0.875000 0.375000
vt 0.000000 0.500000
vt 0.125000 0.375000
vt 0.000000 0.375000
vt 0.625000 0.750000
vt 0.500000 0.750000
vt 0.500000 0.875000
vt 0.750000 0.875000
vt 0.125000 0.500000
vt 0.000000 0.000000
vt 0.000000 0.000000
vt 1.000000 0.125000
vt 0.625000 0.875000
vt 0.125000 0.125000
vt 1.000000 0.375000
vt 0.000000 0.000000
vt 0.000000 0.000000
vt 0.875000 1.000000
vt 1.000000 0.750000
vt 0.875000 0.875000
vt 0.000000 0.875000
vt 0.000000 0.000000
vt 0.000000 0.000000
vt 0.375000 1.000000
vt 0.750000 0.000000
vt 1.000000 0.875000
vt 0.625000 0.625000
vt 0.000000 0.000000
vt 0.625000 0.375000
vt 0.375000 0.625000
vt 0.250000 0.375000
vt 0.000000 0.500000
vt 0.000000 0.000000
vt 0.625000 0.250000
vt 1.000000 0.125000
vt 0.125000 0.125000
vt 0.875000 0.375000
vt 0.250000 0.500000
vt 1.000000 0.500000
vt 0.000000 0.000000
vt 0.875000 0.125000
vt 0.000000 0.125000
vt 0.750000 0.125000
vt 0.500000 0.375000
vt 0.000000 0.000000
vt 0.375000 0.125000
vt 0.875000 0.625000
vt 0.750000 0.500000
vt 0.625000 0.125000
vt 1.000000 0.000000
vt 0.500000 0.125000
vt 0.000000 0.000000
vt 0.000000 0.000000
vt 0.000000 0.000000
vt 0.000000 0.000000
vt 0.000000 0.000000
vt 0.750000 0.000000
vt 0.625000 0.250000
vt 0.500000 0.250000
vt 0.125000 0.750000
vt 0.000000 0.750000
vt 0.000000 0.875000
vt 0.625000 0.375000
vt 0.125000 0.875000
vt 0.000000 0.000000
vt 0.000000 0.000000
vt 0.250000 0.875000
vt 0.750000 0.375000
vt 0.750000 0.625000
vt 0.750000 0.250000
vt 0.250000 0.750000
vt 1.000000 0.625000
vt 0.000000 0.000000
vt 0.000000 0.000000
vt 0.250000 0.625000
vt 0.875000 0.250000
vt 0.125000 0.625000
vt 0.000000 0.000000
vt 0.000000 0.000000
vt 0.375000 0.375000
vt 0.000000 0.625000
vt 0.875000 1.000000
vt 0.500000 0.000000
vt 0.000000 0.000000
vt 0.000000 0.000000
vt 0.000000 0.000000
vt 0.000000 0.000000
vt 0.000000 0.000000
vt 0.625000 1.000000
vt 0.000000 0.000000
vt 0.625000 0.500000
vt 0.375000 0.750000
vt 0.000000 0.000000
vt 0.250000 0.000000
vt 0.000000 0.000000
vt 0.000000 0.000000
vt 0.000000 0.000000
vt 0.250000 0.125000
vt 0.000000 0.000000
vt 0.000000 0.000000
vt 0.000000 0.250000
vt 0.375000 0.500000
vt 0.250000 0.500000
vt 0.375000 0.625000
vt 0.500000 0.500000
vt 0.000000 0.000000
vt 0.000000 0.000000
vt 0.000000 0.000000
vt 0.500000 0.625000
vt 1.000000 0.250000
vt 0.000000 0.000000
vt 1.000000 1.000000
vt 0.000000 0.000000
vt 0.000000 0.000000
vt 0.000000 0.000000
vt 0.000000 0.000000
vt 0.000000 0.000000
vt 0.000000 0.000000
vn 0.0000 0.0000 -1.0000
vn -1.0000 0.0000 0.0000
vn 0.0000 1.0000 0.0000
vn 0.0000 -1.0000 0.0000
vn 1.0000 0.0000 0.0000
usemtl Concrete
s off
f 8/1/1 3/2/1 9/3/1
f 5/4/2 7/5/2 2/6/2
f 2/6/3 4/7/3 3/8/3
f 9/3/4 1/9/4 8/1/4
f 8/1/2 5/4/2 2/6/2
f 3/2/2 177/10/2 143/11/2
f 8/1/1 2/12/1 3/2/1
f 5/4/2 6/13/2 7/5/2
f 2/6/3 7/5/3 4/7/3
f 9/3/4 76/14/4 1/9/4
f 8/1/2 1/9/2 5/4/2
f 3/2/2 9/3/2 177/10/2
usemtl Brick_1
f 51/15/4 111/16/4 52/17/4
f 35/18/1 34/19/1 41/20/1
f 63/21/1 62/22/1 69/23/1
f 27/24/5 94/25/5 28/26/5
f 13/27/1 36/28/1 14/29/1
f 45/30/2 99/31/2 38/32/2
f 39/33/4 101/34/4 40/35/4
f 74/36/4 171/37/4 75/38/4
f 54/39/1 24/40/1 47/41/1
f 73/42/4 219/43/4 74/36/4
f 50/44/4 110/45/4 51/15/4
f 25/46/5 190/47/5 26/48/5
f 18/49/4 117/50/4 62/22/4
f 34/19/5 195/51/5 41/20/5
f 62/22/5 122/52/5 69/23/5
f 68/53/4 93/54/4 27/55/4
f 38/32/3 98/56/3 37/57/3
f 60/58/5 120/59/5 67/60/5
f 81/61/1 80/62/1 31/63/1
f 121/64/1 93/54/1 116/65/1
f 100/66/1 99/31/1 104/67/1
f 102/68/1 92/69/1 91/70/1
f 110/45/1 109/71/1 112/72/1
f 114/73/1 113/74/1 118/75/1
f 89/76/1 117/50/1 90/77/1
f 124/78/1 123/79/1 128/80/1
f 82/81/4 83/82/4 29/83/4
f 40/35/5 106/84/5 47/41/5
f 16/85/4 127/86/4 76/87/4
f 75/38/2 116/65/2 68/53/2
f 21/88/4 102/68/4 41/20/4
f 42/89/5 108/90/5 49/91/5
f 77/92/2 123/79/2 70/93/2
f 41/20/4 103/94/4 42/89/4
f 66/95/3 118/75/3 65/96/3
f 78/97/3 128/80/3 77/92/3
f 17/98/2 90/99/2 18/100/2
f 72/101/5 130/102/5 79/103/5
f 67/60/3 119/104/3 66/95/3
f 79/103/4 131/105/4 80/62/4
f 76/87/5 85/106/5 33/107/5
f 28/108/3 121/64/3 75/38/3
f 57/109/2 109/71/2 50/44/2
f 20/110/2 92/111/2 21/112/2
f 32/113/2 129/114/2 78/97/2
f 46/115/3 104/67/3 45/30/3
f 69/23/3 89/76/3 17/116/3
f 52/17/5 114/73/5 59/117/5
f 58/118/3 112/72/3 57/109/3
f 47/41/3 105/119/3 46/115/3
f 70/93/4 124/78/4 71/120/4
f 59/117/4 115/121/4 60/58/4
f 48/122/3 91/70/3 20/123/3
f 71/120/4 125/124/4 72/101/4
f 65/96/2 113/74/2 58/118/2
f 15/125/5 100/66/5 39/33/5
f 49/91/3 107/126/3 48/122/3
f 178/127/1 177/10/1 143/11/1
f 176/128/1 140/129/1 171/37/1
f 29/83/3 176/128/3 82/81/3
f 66/95/5 174/130/5 73/42/5
f 28/26/5 141/131/5 29/132/5
f 52/17/4 159/133/4 53/134/4
f 64/135/4 169/136/4 65/96/4
f 49/91/2 151/137/2 42/89/2
f 76/87/4 178/127/4 77/92/4
f 44/138/5 157/139/5 51/15/5
f 77/92/4 179/140/4 78/97/4
f 42/89/4 152/141/4 43/142/4
f 19/143/4 161/144/4 55/145/4
f 81/61/2 175/146/2 74/36/2
f 32/147/3 143/148/3 33/149/3
f 33/107/2 177/10/2 76/87/2
f 45/30/3 153/150/3 44/138/3
f 75/38/4 140/129/4 28/108/4
f 23/151/3 144/152/3 40/35/3
f 78/97/5 142/153/5 32/113/5
f 34/19/3 132/154/3 22/155/3
f 82/81/3 180/156/3 81/61/3
f 54/39/5 165/157/5 61/158/5
f 56/159/5 167/160/5 63/21/5
f 61/158/3 164/161/3 60/58/3
f 73/42/3 173/162/3 72/101/3
f 204/163/1 189/164/1 199/165/1
f 183/166/1 200/167/1 184/168/1
f 218/169/1 217/170/1 222/171/1
f 79/103/2 217/170/2 72/101/2
f 55/145/3 183/166/3 19/143/3
f 74/36/5 224/172/5 81/61/5
f 48/122/5 205/173/5 55/145/5
f 80/62/3 222/171/3 79/103/3
f 19/174/2 184/175/2 20/110/2
f 40/35/4 187/176/4 23/151/4
f 81/61/3 223/177/3 80/62/3
f 22/155/4 193/178/4 34/19/4
f 61/158/2 199/165/2 54/39/2
f 54/39/4 189/164/4 25/179/4
f 20/123/4 200/167/4 48/122/4
f 72/101/4 218/169/4 73/42/4
f 51/15/4 110/45/4 111/16/4
f 41/20/1 42/89/1 35/18/1
f 42/89/1 43/142/1 35/18/1
f 43/142/1 36/28/1 35/18/1
f 69/23/1 70/93/1 63/21/1
f 70/93/1 71/120/1 63/21/1
f 71/120/1 64/135/1 63/21/1
f 27/24/5 93/180/5 94/25/5
f 35/18/1 36/28/1 13/27/1
f 36/28/1 37/57/1 14/29/1
f 45/30/2 104/67/2 99/31/2
f 39/33/4 100/66/4 101/34/4
f 74/36/4 175/146/4 171/37/4
f 47/41/1 46/115/1 53/134/1
f 54/39/1 25/179/1 24/40/1
f 47/41/1 53/134/1 54/39/1
f 73/42/4 218/169/4 219/43/4
f 50/44/4 109/71/4 110/45/4
f 25/46/5 189/181/5 190/47/5
f 18/49/4 90/77/4 117/50/4
f 34/19/5 193/178/5 195/51/5
f 62/22/5 117/50/5 122/52/5
f 68/53/4 116/65/4 93/54/4
f 38/32/3 99/31/3 98/56/3
f 60/58/5 115/121/5 120/59/5
f 31/63/1 30/182/1 81/61/1
f 30/182/1 82/81/1 81/61/1
f 121/64/1 94/183/1 93/54/1
f 104/67/1 105/119/1 100/66/1
f 105/119/1 106/84/1 100/66/1
f 106/84/1 101/34/1 100/66/1
f 91/70/1 107/126/1 102/68/1
f 107/126/1 108/90/1 102/68/1
f 108/90/1 103/94/1 102/68/1
f 112/72/1 113/74/1 110/45/1
f 113/74/1 114/73/1 110/45/1
f 114/73/1 111/16/1 110/45/1
f 118/75/1 119/104/1 114/73/1
f 119/104/1 120/59/1 114/73/1
f 120/59/1 115/121/1 114/73/1
f 89/76/1 122/52/1 117/50/1
f 128/80/1 129/114/1 124/78/1
f 129/114/1 130/102/1 124/78/1
f 130/102/1 125/124/1 124/78/1
f 82/81/4 126/184/4 83/82/4
f 40/35/5 101/34/5 106/84/5
f 16/85/4 88/185/4 127/86/4
f 75/38/2 121/64/2 116/65/2
f 21/88/4 92/69/4 102/68/4
f 42/89/5 103/94/5 108/90/5
f 77/92/2 128/80/2 123/79/2
f 41/20/4 102/68/4 103/94/4
f 66/95/3 119/104/3 118/75/3
f 78/97/3 129/114/3 128/80/3
f 17/98/2 89/186/2 90/99/2
f 72/101/5 125/124/5 130/102/5
f 67/60/3 120/59/3 119/104/3
f 79/103/4 130/102/4 131/105/4
f 76/87/5 127/86/5 85/106/5
f 28/108/3 94/183/3 121/64/3
f 57/109/2 112/72/2 109/71/2
f 20/110/2 91/187/2 92/111/2
f 32/113/2 97/188/2 129/114/2
f 46/115/3 105/119/3 104/67/3
f 69/23/3 122/52/3 89/76/3
f 52/17/5 111/16/5 114/73/5
f 58/118/3 113/74/3 112/72/3
f 47/41/3 106/84/3 105/119/3
f 70/93/4 123/79/4 124/78/4
f 59/117/4 114/73/4 115/121/4
f 48/122/3 107/126/3 91/70/3
f 71/120/4 124/78/4 125/124/4
f 65/96/2 118/75/2 113/74/2
f 15/125/5 87/189/5 100/66/5
f 49/91/3 108/90/3 107/126/3
f 143/11/1 142/153/1 178/127/1
f 142/153/1 179/140/1 178/127/1
f 171/37/1 175/146/1 180/156/1
f 176/128/1 141/190/1 140/129/1
f 171/37/1 180/156/1 176/128/1
f 29/83/3 141/190/3 176/128/3
f 66/95/5 170/191/5 174/130/5
f 28/26/5 140/192/5 141/131/5
f 52/17/4 158/193/4 159/133/4
f 64/135/4 168/194/4 169/136/4
f 49/91/2 155/195/2 151/137/2
f 76/87/4 177/10/4 178/127/4
f 44/138/5 153/150/5 157/139/5
f 77/92/4 178/127/4 179/140/4
f 42/89/4 151/137/4 152/141/4
f 19/143/4 138/196/4 161/144/4
f 81/61/2 180/156/2 175/146/2
f 32/147/3 142/197/3 143/148/3
f 33/107/2 143/11/2 177/10/2
f 45/30/3 154/198/3 153/150/3
f 75/38/4 171/37/4 140/129/4
f 23/151/3 139/199/3 144/152/3
f 78/97/5 179/140/5 142/153/5
f 34/19/3 145/200/3 132/154/3
f 82/81/3 176/128/3 180/156/3
f 54/39/5 160/201/5 165/157/5
f 56/159/5 162/202/5 167/160/5
f 61/158/3 165/157/3 164/161/3
f 73/42/3 174/130/3 173/162/3
f 204/163/1 190/203/1 189/164/1
f 183/166/1 205/173/1 200/167/1
f 222/171/1 223/177/1 218/169/1
f 223/177/1 224/172/1 218/169/1
f 224/172/1 219/43/1 218/169/1
f 79/103/2 222/171/2 217/170/2
f 55/145/3 205/173/3 183/166/3
f 74/36/5 219/43/5 224/172/5
f 48/122/5 200/167/5 205/173/5
f 80/62/3 223/177/3 222/171/3
f 19/174/2 183/204/2 184/175/2
f 40/35/4 192/205/4 187/176/4
f 81/61/3 224/172/3 223/177/3
f 22/155/4 186/206/4 193/178/4
f 61/158/2 204/163/2 199/165/2
f 54/39/4 199/165/4 189/164/4
f 20/123/4 184/168/4 200/167/4
f 72/101/4 217/170/4 218/169/4
usemtl Brick_2
f 49/91/1 48/122/1 55/145/1
f 40/35/3 150/207/3 39/33/3
f 52/17/3 201/208/3 51/15/3
f 26/48/5 191/209/5 27/24/5
f 43/142/2 147/210/2 36/28/2
f 67/60/1 66/95/1 73/42/1
f 27/55/3 210/211/3 68/53/3
f 67/60/2 209/212/2 60/58/2
f 37/57/4 149/213/4 38/32/4
f 144/152/1 139/199/1 136/214/1
f 148/215/1 147/210/1 152/141/1
f 38/32/5 154/198/5 45/30/5
f 15/216/4 136/217/4 11/218/4
f 11/218/5 139/219/5 23/220/5
f 36/28/4 148/215/4 37/57/4
f 39/33/2 135/221/2 15/125/2
f 197/222/1 196/223/1 201/208/1
f 210/211/1 190/203/1 204/163/1
f 215/224/1 182/225/1 181/226/1
f 53/134/3 202/227/3 52/17/3
f 76/87/3 181/226/3 16/85/3
f 77/92/3 220/228/3 76/87/3
f 16/229/2 182/230/2 17/98/2
f 70/93/5 221/231/5 77/92/5
f 51/15/2 196/223/2 44/138/2
f 46/115/5 203/232/5 53/134/5
f 68/53/3 214/233/3 67/60/3
f 44/138/4 197/222/4 45/30/4
f 45/30/4 198/234/4 46/115/4
f 17/116/4 215/224/4 69/23/4
f 69/23/4 216/235/4 70/93/4
f 60/58/4 204/163/4 61/158/4
f 55/145/1 56/159/1 49/91/1
f 56/159/1 57/109/1 49/91/1
f 57/109/1 50/44/1 49/91/1
f 40/35/3 144/152/3 150/207/3
f 52/17/3 202/227/3 201/208/3
f 26/48/5 190/47/5 191/209/5
f 43/142/2 152/141/2 147/210/2
f 73/42/1 74/36/1 67/60/1
f 74/36/1 75/38/1 67/60/1
f 75/38/1 68/53/1 67/60/1
f 27/55/3 191/236/3 210/211/3
f 67/60/2 214/233/2 209/212/2
f 37/57/4 148/215/4 149/213/4
f 136/214/1 135/221/1 144/152/1
f 135/221/1 150/207/1 144/152/1
f 152/141/1 153/150/1 148/215/1
f 153/150/1 154/198/1 148/215/1
f 154/198/1 149/213/1 148/215/1
f 38/32/5 149/213/5 154/198/5
f 15/216/4 135/237/4 136/217/4
f 11/218/5 136/217/5 139/219/5
f 36/28/4 147/210/4 148/215/4
f 39/33/2 150/207/2 135/221/2
f 201/208/1 202/227/1 197/222/1
f 202/227/1 203/232/1 197/222/1
f 203/232/1 198/234/1 197/222/1
f 204/163/1 209/212/1 214/233/1
f 210/211/1 191/236/1 190/203/1
f 204/163/1 214/233/1 210/211/1
f 181/226/1 220/228/1 215/224/1
f 220/228/1 221/231/1 215/224/1
f 221/231/1 216/235/1 215/224/1
f 53/134/3 203/232/3 202/227/3
f 76/87/3 220/228/3 181/226/3
f 77/92/3 221/231/3 220/228/3
f 16/229/2 181/238/2 182/230/2
f 70/93/5 216/235/5 221/231/5
f 51/15/2 201/208/2 196/223/2
f 46/115/5 198/234/5 203/232/5
f 68/53/3 210/211/3 214/233/3
f 44/138/4 196/223/4 197/222/4
f 45/30/4 197/222/4 198/234/4
f 17/116/4 182/225/4 215/224/4
f 69/23/4 215/224/4 216/235/4
f 60/58/4 209/212/4 204/163/4
usemtl Brick_3
f 64/135/3 211/239/3 63/21/3
f 24/40/3 194/240/3 47/41/3
f 63/21/3 166/241/3 62/22/3
f 71/120/2 168/194/2 64/135/2
f 14/242/4 87/243/4 15/216/4
f 51/15/3 156/244/3 50/44/3
f 62/22/3 137/245/3 18/49/3
f 50/44/3 155/195/3 49/91/3
f 95/246/1 83/82/1 126/184/1
f 86/247/1 99/31/1 87/189/1
f 130/102/1 129/114/1 97/188/1
f 12/248/3 95/249/3 30/250/3
f 31/251/3 97/252/3 32/147/3
f 80/62/5 96/253/5 31/63/5
f 30/182/2 126/184/2 82/81/2
f 29/132/5 84/254/5 12/248/5
f 37/57/2 86/247/2 14/29/2
f 152/141/1 151/137/1 155/195/1
f 159/133/1 158/193/1 163/255/1
f 161/144/1 138/196/1 137/245/1
f 169/136/1 168/194/1 172/256/1
f 133/257/1 145/200/1 134/258/1
f 53/134/4 160/201/4 54/39/4
f 65/96/4 170/191/4 66/95/4
f 18/100/2 138/259/2 19/174/2
f 55/145/4 162/202/4 56/159/4
f 59/117/2 158/193/2 52/17/2
f 22/260/2 133/257/2 10/261/2
f 35/18/3 145/200/3 34/19/3
f 13/27/5 146/262/5 35/18/5
f 60/58/3 163/255/3 59/117/3
f 72/101/3 172/256/3 71/120/3
f 10/261/4 134/263/4 13/264/4
f 194/240/1 187/176/1 192/205/1
f 185/265/1 193/178/1 186/206/1
f 207/266/1 206/267/1 211/239/1
f 47/41/2 192/205/2 40/35/2
f 41/20/3 185/265/3 21/88/3
f 65/96/3 212/268/3 64/135/3
f 56/159/4 207/266/4 57/109/4
f 57/109/4 208/269/4 58/118/4
f 21/112/2 186/270/2 22/260/2
f 63/21/2 206/267/2 56/159/2
f 23/220/5 188/271/5 24/272/5
f 58/118/5 213/273/5 65/96/5
f 64/135/3 212/268/3 211/239/3
f 24/40/3 188/274/3 194/240/3
f 63/21/3 167/160/3 166/241/3
f 71/120/2 172/256/2 168/194/2
f 14/242/4 86/275/4 87/243/4
f 51/15/3 157/139/3 156/244/3
f 62/22/3 166/241/3 137/245/3
f 50/44/3 156/244/3 155/195/3
f 95/246/1 84/276/1 83/82/1
f 98/56/1 99/31/1 86/247/1
f 99/31/1 100/66/1 87/189/1
f 97/188/1 96/253/1 130/102/1
f 96/253/1 131/105/1 130/102/1
f 12/248/3 84/254/3 95/249/3
f 31/251/3 96/277/3 97/252/3
f 80/62/5 131/105/5 96/253/5
f 30/182/2 95/246/2 126/184/2
f 29/132/5 83/278/5 84/254/5
f 37/57/2 98/56/2 86/247/2
f 155/195/1 156/244/1 152/141/1
f 156/244/1 157/139/1 152/141/1
f 157/139/1 153/150/1 152/141/1
f 163/255/1 164/161/1 159/133/1
f 164/161/1 165/157/1 159/133/1
f 165/157/1 160/201/1 159/133/1
f 137/245/1 166/241/1 161/144/1
f 166/241/1 167/160/1 161/144/1
f 167/160/1 162/202/1 161/144/1
f 172/256/1 173/162/1 169/136/1
f 173/162/1 174/130/1 169/136/1
f 174/130/1 170/191/1 169/136/1
f 132/154/1 145/200/1 133/257/1
f 145/200/1 146/262/1 134/258/1
f 53/134/4 159/133/4 160/201/4
f 65/96/4 169/136/4 170/191/4
f 18/100/2 137/279/2 138/259/2
f 55/145/4 161/144/4 162/202/4
f 59/117/2 163/255/2 158/193/2
f 22/260/2 132/280/2 133/257/2
f 35/18/3 146/262/3 145/200/3
f 13/27/5 134/258/5 146/262/5
f 60/58/3 164/161/3 163/255/3
f 72/101/3 173/162/3 172/256/3
f 10/261/4 133/257/4 134/263/4
f 194/240/1 188/274/1 187/176/1
f 185/265/1 195/51/1 193/178/1
f 211/239/1 212/268/1 207/266/1
f 212/268/1 213/273/1 207/266/1
f 213/273/1 208/269/1 207/266/1
f 47/41/2 194/240/2 192/205/2
f 41/20/3 195/51/3 185/265/3
f 65/96/3 213/273/3 212/268/3
f 56/159/4 206/267/4 207/266/4
f 57/109/4 207/266/4 208/269/4
f 21/112/2 185/281/2 186/270/2
f 63/21/2 211/239/2 206/267/2
f 23/220/5 187/282/5 188/271/5
f 58/118/5 208/269/5 213/273/5
