# Blender v2.83.0 OBJ File: 'factory.blend'
# www.blender.org
mtllib Inner_Corner_Wall_Roof_Outer_Corner.mtl
o Inner_Corner_Wall_Roof_Outer_Corner
v 0.000000 0.000000 0.100000
v 0.100000 0.000000 0.000000
v 0.000000 0.500000 0.100000
v 0.100000 0.500000 0.000000
v -0.000393 1.000004 -0.000057
v 0.000000 1.000000 1.000020
v 1.000000 1.000000 0.000000
v 0.100000 0.000000 0.100000
v 0.100000 0.500000 0.100000
v 0.000000 0.500000 0.000000
v 1.000000 1.000000 1.000020
v 0.000000 0.000000 0.200000
v 0.200000 0.000000 0.000000
v 0.200000 0.000000 0.200000
vt 0.096165 0.222222
vt 1.000000 0.000000
vt 0.096165 0.000000
vt 0.000000 0.000000
vt 0.000000 0.222222
vt 0.000000 0.000000
vt 0.000000 0.000000
vt 0.000000 0.000000
vt 0.000000 0.000000
vt 0.000000 0.000000
vt 1.000000 0.000000
vt 0.096165 0.000000
vt 1.000000 0.222222
vt 0.000000 0.000000
vn -1.0000 0.0000 0.0000
vn 0.0000 -1.0000 0.0000
vn 0.0000 0.0000 -1.0000
usemtl None
s off
f 9/1/1 2/2/1 8/3/1
f 10/4/2 9/1/2 3/5/2
f 7/6/2 6/7/2 5/8/2
f 3/5/3 8/3/3 1/9/3
f 8/3/2 12/10/2 1/9/2
f 8/3/2 13/11/2 14/12/2
f 9/1/1 4/13/1 2/2/1
f 10/4/2 4/13/2 9/1/2
f 7/6/2 11/14/2 6/7/2
f 3/5/3 9/1/3 8/3/3
f 8/3/2 14/12/2 12/10/2
f 8/3/2 2/2/2 13/11/2
