# Blender v2.83.0 OBJ File: 'factory.blend'
# www.blender.org
mtllib Inner_Corner_Wall_Roof_Both.mtl
o Inner_Corner_Wall_Roof_Both
v 0.000000 0.000000 0.100000
v 0.100000 0.000000 0.000000
v 0.200000 0.000000 0.200000
v 0.000000 0.500000 0.100000
v 0.100000 0.500000 0.000000
v 0.100000 1.000000 0.100000
v 0.100000 0.000000 0.100000
v 0.200000 0.000000 0.000000
v 0.000000 0.000000 0.200000
v 0.100000 0.500000 0.100000
v 0.100000 1.000000 1.000000
v 0.000000 1.000000 1.000000
v 1.000000 1.000000 0.000000
v 1.000000 1.000000 0.100000
v 0.000000 1.000000 0.000000
v 0.000000 0.500000 0.000000
vt 0.000000 0.000000
vt 0.000000 0.000000
vt 0.000000 0.000000
vt 0.000000 0.000000
vt 0.000000 0.000000
vt 0.000000 0.000000
vt 0.000000 0.000000
vt 0.000000 0.000000
vt 0.104443 0.513538
vt 1.000000 0.180205
vt 0.104443 0.180205
vt 0.000000 0.180205
vt 0.000000 0.000000
vt 0.000000 0.000000
vt 1.000000 0.513538
vt 0.000000 0.513538
vn 0.0000 1.0000 0.0000
vn 1.0000 -0.0000 0.0000
vn 0.0000 0.0000 1.0000
usemtl None
s off
f 7/1/1 8/2/1 2/3/1
f 7/1/1 9/4/1 3/5/1
f 5/6/2 7/1/2 2/3/2
f 4/7/3 7/1/3 10/8/3
f 6/9/1 13/10/1 15/11/1
f 12/12/1 6/9/1 15/11/1
f 10/8/1 16/13/1 4/7/1
f 7/1/1 3/5/1 8/2/1
f 7/1/1 1/14/1 9/4/1
f 5/6/2 10/8/2 7/1/2
f 4/7/3 1/14/3 7/1/3
f 6/9/1 14/15/1 13/10/1
f 12/12/1 11/16/1 6/9/1
f 10/8/1 5/6/1 16/13/1
