# Blender v2.83.0 OBJ File: 'factory.blend'
# www.blender.org
mtllib Inner_Corner_Wall.mtl
o Inner_Corner_Wall
v 0.000000 0.000000 0.100000
v 0.100000 0.000000 0.000000
v 0.000000 0.750000 0.100000
v 0.100000 0.750000 0.000000
v 0.000000 0.750000 0.200000
v 0.200000 0.750000 0.000000
v 0.000000 1.000000 0.200000
v 0.200000 1.000000 0.000000
v 0.100000 0.000000 0.100000
v 0.100000 0.750000 0.100000
v 0.200000 0.750000 0.200000
v 0.200000 1.000000 0.200000
vt 0.000000 0.000000
vt 1.000000 0.666667
vt 0.000000 0.000000
vt 0.133045 0.666667
vt 1.000000 0.777778
vt 0.133046 1.000000
vt 0.133045 0.777778
vt 0.000000 1.000000
vt 0.000000 0.777778
vt 0.000000 0.666667
vt 0.000000 0.000000
vt 1.000000 1.000000
vn -1.0000 0.0000 0.0000
vn 0.0000 1.0000 0.0000
vn 0.0000 0.0000 -1.0000
usemtl None
s off
f 9/1/1 4/2/1 2/3/1
f 10/4/2 6/5/2 4/2/2
f 12/6/1 6/5/1 11/7/1
f 7/8/3 11/7/3 5/9/3
f 5/9/2 10/4/2 3/10/2
f 3/10/3 9/1/3 1/11/3
f 9/1/1 10/4/1 4/2/1
f 10/4/2 11/7/2 6/5/2
f 12/6/1 8/12/1 6/5/1
f 7/8/3 12/6/3 11/7/3
f 5/9/2 11/7/2 10/4/2
f 3/10/3 10/4/3 9/1/3
