# Blender v2.83.0 OBJ File: 'factory.blend'
# www.blender.org
mtllib Straight_Edge_Wall_Roof_Outer_Corner.mtl
o Straight_Edge_Wall_Roof_Outer_Corner
v 0.000000 0.000000 0.100000
v 1.000000 0.000000 0.100000
v -0.000049 0.500000 0.099996
v 1.000000 0.500000 0.100004
v 1.000000 0.000000 0.200000
v 0.000000 0.000000 0.200000
v -0.000098 1.000001 -0.000008
v 1.000000 1.000000 0.000008
v 0.000000 1.000000 1.000020
v 1.000000 1.000000 1.000020
v 1.000000 0.500000 0.000006
v -0.000074 0.500000 -0.000006
v -0.000098 1.000001 -0.000008
v 1.000000 1.000000 0.000008
v 0.000000 1.000000 1.000020
v 1.000000 1.000000 1.000020
v 0.735929 1.000000 0.264067
v 0.735929 1.000000 0.735956
v 0.263999 1.000000 0.264059
v 0.264045 1.000000 0.735956
v 0.735929 1.295853 0.264067
v 0.735929 1.295853 0.735957
v 0.263999 1.295853 0.264060
v 0.264045 1.295853 0.735957
v 0.446203 0.947481 0.150555
v 0.446203 0.947481 0.042961
v 0.553797 0.947481 0.042961
v 0.553797 0.947481 0.150555
v 0.446203 1.089415 0.150555
v 0.446203 1.089415 0.042961
v 0.553797 1.089415 0.042961
v 0.553797 1.089415 0.150555
v 0.446203 1.156106 0.150555
v 0.446203 1.156107 0.042961
v 0.553797 1.156107 0.042961
v 0.553797 1.156107 0.150555
v 0.446203 1.255007 0.150555
v 0.553797 1.255007 0.150555
v 0.446203 1.156106 0.305384
v 0.553797 1.156107 0.305385
v 0.446203 1.255007 0.305384
v 0.553797 1.255007 0.305385
v 0.446203 1.199759 0.050701
v 0.553797 1.199759 0.050701
v 0.446203 1.235018 0.073174
v 0.553797 1.235018 0.073174
v 0.446203 1.252033 0.114708
v 0.553797 1.252033 0.114708
vt 0.000000 0.000000
vt 0.000000 0.000000
vt 0.000000 0.000000
vt 0.000000 0.000000
vt 0.000000 0.000000
vt 0.000000 0.000000
vt 0.000000 0.000000
vt 0.000000 0.000000
vt 0.000000 0.000000
vt 0.000000 0.000000
vt 0.000000 0.000000
vt 0.000000 0.000000
vt 0.000000 0.000000
vt 0.000000 0.000000
vt 0.000000 0.000000
vt 0.000000 0.000000
vt 0.000000 0.000000
vt 0.000000 0.000000
vt 0.000000 0.000000
vt 0.000000 0.000000
vt 0.000000 0.000000
vt 0.000000 0.000000
vt 0.000000 0.000000
vt 1.000000 0.180205
vt 0.000000 0.513538
vt 0.000000 0.180205
vt 1.000000 0.513538
vt 0.000000 0.513538
vt 1.000000 0.513538
vt 1.000000 0.180205
vt 0.000000 0.180205
vt 0.000000 0.000000
vt 0.000000 0.180205
vt 1.000000 0.513538
vt 0.000000 0.000000
vt 0.000000 0.000000
vt 1.000000 0.513538
vt 0.000000 0.513538
vt 0.000000 0.513538
vt 0.000000 0.513538
vt 0.000000 0.000000
vt 0.000000 0.000000
vt 0.000000 0.000000
vt 0.000000 0.000000
vt 1.000000 0.180205
vt 1.000000 0.180205
vt 0.000000 0.180205
vt 1.000000 0.180205
vt 0.000000 0.180205
vt 1.000000 0.180205
vt 0.000000 0.180205
vt 0.000000 0.000000
vt 0.000000 0.000000
vt 1.000000 0.513538
vn 0.0000 0.0000 1.0000
vn 0.0000 1.0000 0.0000
vn -0.0000 -1.0000 -0.0000
vn -1.0000 0.0000 0.0000
vn 0.0000 0.0000 -1.0000
vn 1.0000 -0.0000 -0.0001
vn 1.0000 0.0000 0.0000
vn 0.0000 0.1746 -0.9846
vn 0.0000 0.5375 -0.8433
vn 0.0000 0.9254 -0.3791
vn 0.0000 0.9966 -0.0827
usemtl None
s off
f 9/1/1 13/2/1 15/3/1
f 8/4/1 12/5/1 11/6/1
f 1/7/2 5/8/2 2/9/2
f 4/10/1 1/7/1 2/9/1
f 11/6/2 3/11/2 4/10/2
f 14/12/3 19/13/3 13/2/3
f 8/4/1 16/14/1 14/12/1
f 10/15/1 15/3/1 16/14/1
f 7/16/1 14/12/1 13/2/1
f 19/13/1 21/17/1 23/18/1
f 14/12/3 18/19/3 17/20/3
f 15/3/3 18/19/3 16/14/3
f 15/3/3 19/13/3 20/21/3
f 24/22/3 21/17/3 22/23/3
f 18/19/4 21/17/4 17/20/4
f 18/19/5 24/22/5 22/23/5
f 19/13/6 24/22/6 20/21/6
f 27/24/3 25/25/3 26/26/3
f 28/27/1 29/28/1 25/25/1
f 27/24/7 32/29/7 28/27/7
f 26/26/5 31/30/5 27/24/5
f 25/25/4 30/31/4 26/26/4
f 32/29/1 33/32/1 29/28/1
f 30/31/4 33/32/4 34/33/4
f 31/30/7 36/34/7 32/29/7
f 34/33/5 31/30/5 30/31/5
f 33/32/4 41/35/4 37/36/4
f 40/37/1 41/38/1 39/39/1
f 36/34/3 39/39/3 33/40/3
f 38/41/2 41/35/2 42/42/2
f 38/41/7 40/43/7 36/44/7
f 34/33/8 44/45/8 35/46/8
f 43/47/9 46/48/9 44/45/9
f 45/49/10 48/50/10 46/48/10
f 38/41/11 47/51/11 37/36/11
f 45/49/4 43/47/4 33/32/4
f 48/50/7 38/41/7 36/44/7
f 9/1/1 7/16/1 13/2/1
f 8/4/1 7/16/1 12/5/1
f 1/7/2 6/52/2 5/8/2
f 4/10/1 3/11/1 1/7/1
f 11/6/2 12/5/2 3/11/2
f 14/12/3 17/20/3 19/13/3
f 8/4/1 10/15/1 16/14/1
f 10/15/1 9/1/1 15/3/1
f 7/16/1 8/4/1 14/12/1
f 19/13/1 17/20/1 21/17/1
f 14/12/3 16/14/3 18/19/3
f 15/3/3 20/21/3 18/19/3
f 15/3/3 13/2/3 19/13/3
f 24/22/3 23/18/3 21/17/3
f 18/19/4 22/23/4 21/17/4
f 18/19/5 20/21/5 24/22/5
f 19/13/6 23/18/6 24/22/6
f 27/24/3 28/27/3 25/25/3
f 28/27/1 32/29/1 29/28/1
f 27/24/7 31/30/7 32/29/7
f 26/26/5 30/31/5 31/30/5
f 25/25/4 29/28/4 30/31/4
f 32/29/1 36/34/1 33/32/1
f 30/31/4 29/28/4 33/32/4
f 31/30/7 35/46/7 36/34/7
f 34/33/5 35/46/5 31/30/5
f 33/32/4 39/53/4 41/35/4
f 40/37/1 42/54/1 41/38/1
f 36/34/3 40/37/3 39/39/3
f 38/41/2 37/36/2 41/35/2
f 38/41/7 42/42/7 40/43/7
f 34/33/8 43/47/8 44/45/8
f 43/47/9 45/49/9 46/48/9
f 45/49/10 47/51/10 48/50/10
f 38/41/11 48/50/11 47/51/11
f 34/33/4 33/32/4 43/47/4
f 33/32/4 37/36/4 47/51/4
f 45/49/4 33/32/4 47/51/4
f 36/44/7 35/46/7 44/45/7
f 44/45/7 46/48/7 36/44/7
f 46/48/7 48/50/7 36/44/7
