# Blender v2.83.0 OBJ File: 'factory.blend'
# www.blender.org
mtllib Outer_Corner_Wall_Roof_Outer_Corner.mtl
o Outer_Corner_Wall_Roof_Outer_Corner
v 0.100000 0.000000 1.000000
v 1.000000 0.000000 0.100000
v 0.500000 0.000000 0.100000
v 0.200000 0.000000 0.500000
v 0.200000 0.000000 1.000000
v 0.100000 0.000000 0.500000
v 0.100000 1.000004 1.000000
v 1.000000 1.000000 0.100010
v 1.000000 1.000000 1.000020
v 0.100000 0.000000 0.100000
v 0.500000 0.000000 0.200000
v 1.000000 0.000000 0.200000
v 0.100000 1.000003 0.100000
v 1.000000 0.500000 0.100005
v 0.100000 0.500002 1.000000
v 0.100000 0.500002 0.100000
v -0.000000 1.000004 1.000000
v 1.000000 1.000000 0.000002
v -0.000000 1.000003 -0.000000
v 1.000000 0.500000 -0.000003
v 0.000000 0.500002 1.000000
v 0.000000 0.500002 0.000000
vt 1.000000 1.000000
vt 0.000000 1.000000
vt 0.000000 0.000000
vt 0.119362 1.000000
vt 0.000000 1.000000
vt 0.059681 0.500000
vt 0.000000 0.500000
vt 0.059681 0.500000
vt 1.000000 1.000000
vt 0.500000 0.500000
vt 0.119362 1.000000
vt 0.500000 0.500000
vt 0.000000 0.500000
vt 0.000000 0.000000
vt 0.000000 0.000000
vt 0.000000 0.000000
vt 0.000000 0.000000
vt 0.000000 0.000000
vt 0.000000 0.000000
vt 0.000000 0.000000
vt 0.000000 0.000000
vt 0.000000 0.000000
vn 0.0000 1.0000 -0.0000
vn -0.0000 -1.0000 0.0000
vn -0.0000 0.0000 -1.0000
vn -1.0000 -0.0000 0.0000
usemtl roof
s off
f 8/1/1 7/2/1 9/3/1
f 13/4/1 17/5/1 7/2/1
f 16/6/2 21/7/2 22/8/2
f 22/8/3 18/9/3 20/10/3
f 19/11/4 21/7/4 17/5/4
f 13/4/1 18/9/1 19/11/1
f 16/6/2 20/10/2 14/12/2
f 8/1/1 13/4/1 7/2/1
f 13/4/1 19/11/1 17/5/1
f 16/6/2 15/13/2 21/7/2
f 22/8/3 19/11/3 18/9/3
f 19/11/4 22/8/4 21/7/4
f 13/4/1 8/1/1 18/9/1
f 16/6/2 22/8/2 20/10/2
usemtl wall
f 16/6/4 10/14/4 6/15/4
f 6/15/2 5/16/2 1/17/2
f 2/18/2 11/19/2 3/20/2
f 3/20/3 16/6/3 14/12/3
f 1/17/4 15/13/4 6/15/4
f 15/13/4 16/6/4 6/15/4
f 6/15/2 4/21/2 5/16/2
f 2/18/2 12/22/2 11/19/2
f 14/12/3 2/18/3 3/20/3
f 3/20/3 10/14/3 16/6/3
