# Blender v2.83.0 OBJ File: 'factory.blend'
# www.blender.org
mtllib Straight_Edge_Roof_Wall_Inner_Corner.mtl
o Straight_Edge_Roof_Wall_Inner_Corner
v 0.000000 1.000000 0.100000
v 0.000000 1.000000 0.000000
v 1.000000 1.000000 0.000000
v 1.000000 1.000000 0.100000
v 0.000000 1.000000 0.100000
v 0.000000 1.000000 0.000000
v 1.000000 1.000000 0.000000
v 1.000000 1.000000 0.100000
v 0.435535 1.000000 -0.185535
v 0.435535 1.000000 -0.314465
v 0.564466 1.000000 -0.314465
v 0.564466 1.000000 -0.185534
v 0.435535 1.170082 -0.185535
v 0.435535 1.170082 -0.314465
v 0.564466 1.170082 -0.314465
v 0.564466 1.170082 -0.185534
v 0.435535 1.249999 -0.185535
v 0.435535 1.250000 -0.314465
v 0.564466 1.250000 -0.314465
v 0.564466 1.250000 -0.185534
v 0.435535 1.368514 -0.185535
v 0.564466 1.368514 -0.185534
v 0.435534 1.249999 -0.000000
v 0.564465 1.250000 0.000000
v 0.435534 1.368514 -0.000000
v 0.564465 1.368514 0.000000
v 0.435535 1.302309 -0.305190
v 0.564466 1.302309 -0.305190
v 0.435535 1.344561 -0.278262
v 0.564466 1.344561 -0.278262
v 0.435535 1.364951 -0.228491
v 0.564466 1.364951 -0.228491
vt 0.000000 0.513538
vt 1.000000 0.180205
vt 0.000000 0.180205
vt 1.000000 0.513538
vt 0.000000 0.513538
vt 1.000000 0.513538
vt 1.000000 0.180205
vt 0.000000 0.180205
vt 1.000000 0.180205
vt 0.000000 0.513538
vt 0.000000 0.180205
vt 1.000000 0.513538
vt 0.000000 0.513538
vt 1.000000 0.513538
vt 1.000000 0.180205
vt 0.000000 0.180205
vt 0.000000 0.000000
vt 0.000000 0.180205
vt 1.000000 0.513538
vt 0.000000 0.000000
vt 0.000000 0.000000
vt 1.000000 0.513538
vt 0.000000 0.513538
vt 0.000000 0.513538
vt 0.000000 0.513538
vt 0.000000 0.000000
vt 0.000000 0.000000
vt 0.000000 0.000000
vt 0.000000 0.000000
vt 1.000000 0.180205
vt 1.000000 0.180205
vt 0.000000 0.180205
vt 1.000000 0.180205
vt 0.000000 0.180205
vt 1.000000 0.180205
vt 0.000000 0.180205
vt 0.000000 0.000000
vt 1.000000 0.513538
vn 0.0000 1.0000 0.0000
vn 0.0000 0.0000 1.0000
vn 0.0000 -1.0000 0.0000
vn 1.0000 0.0000 0.0000
vn 0.0000 0.0000 -1.0000
vn -1.0000 0.0000 0.0000
vn 0.0000 0.1746 -0.9846
vn 0.0000 0.5375 -0.8433
vn 0.0000 0.9254 -0.3791
vn 0.0000 0.9966 -0.0827
usemtl wall
s off
f 1/1/1 3/2/1 2/3/1
f 1/1/2 8/4/2 5/5/2
f 4/6/2 7/7/2 8/4/2
f 2/3/2 5/5/2 6/8/2
f 1/1/1 4/6/1 3/2/1
f 1/1/2 4/6/2 8/4/2
f 4/6/2 3/2/2 7/7/2
f 2/3/2 1/1/2 5/5/2
usemtl pipe
f 11/9/3 9/10/3 10/11/3
f 12/12/2 13/13/2 9/10/2
f 11/9/4 16/14/4 12/12/4
f 10/11/5 15/15/5 11/9/5
f 9/10/6 14/16/6 10/11/6
f 16/14/2 17/17/2 13/13/2
f 14/16/6 17/17/6 18/18/6
f 15/15/4 20/19/4 16/14/4
f 18/18/5 15/15/5 14/16/5
f 17/17/6 25/20/6 21/21/6
f 24/22/2 25/23/2 23/24/2
f 17/25/3 24/22/3 23/24/3
f 21/21/1 26/26/1 22/27/1
f 22/27/4 24/28/4 20/29/4
f 18/18/7 28/30/7 19/31/7
f 27/32/8 30/33/8 28/30/8
f 29/34/9 32/35/9 30/33/9
f 22/27/10 31/36/10 21/21/10
f 29/34/6 27/32/6 17/17/6
f 32/35/4 22/27/4 20/29/4
f 11/9/3 12/12/3 9/10/3
f 12/12/2 16/14/2 13/13/2
f 11/9/4 15/15/4 16/14/4
f 10/11/5 14/16/5 15/15/5
f 9/10/6 13/13/6 14/16/6
f 16/14/2 20/19/2 17/17/2
f 14/16/6 13/13/6 17/17/6
f 15/15/4 19/31/4 20/19/4
f 18/18/5 19/31/5 15/15/5
f 17/17/6 23/37/6 25/20/6
f 24/22/2 26/38/2 25/23/2
f 17/25/3 20/19/3 24/22/3
f 21/21/1 25/20/1 26/26/1
f 22/27/4 26/26/4 24/28/4
f 18/18/7 27/32/7 28/30/7
f 27/32/8 29/34/8 30/33/8
f 29/34/9 31/36/9 32/35/9
f 22/27/10 32/35/10 31/36/10
f 18/18/6 17/17/6 27/32/6
f 17/17/6 21/21/6 31/36/6
f 29/34/6 17/17/6 31/36/6
f 20/29/4 19/31/4 28/30/4
f 28/30/4 30/33/4 20/29/4
f 30/33/4 32/35/4 20/29/4
l 7 6
