# Blender v2.83.0 OBJ File: 'factory.blend'
# www.blender.org
mtllib Straight_Edge_Wall_Roof_Right.mtl
o Straight_Edge_Wall_Roof_Right
v 1.000000 0.000000 0.100000
v 0.000000 0.000000 0.100000
v 0.000000 0.500000 0.000000
v 1.000000 0.750000 0.100000
v 0.000000 0.750000 0.100000
v 1.000000 0.750000 0.200000
v 0.000000 0.500000 0.100000
v 1.000000 1.000000 0.200000
v 0.000000 1.000000 -0.000000
v 0.100000 1.000000 0.200000
v 0.100000 1.000000 1.000000
v 0.000000 0.000000 0.200000
v 1.000000 0.000000 0.200000
v 0.000000 1.000000 1.000000
v 0.500000 0.750000 0.200000
v 0.500000 1.000000 0.200000
v 0.100000 1.000000 0.100000
v 0.500000 1.000000 0.100000
v 0.000000 1.000000 0.100000
v 0.500000 0.750000 0.100000
vt 1.000000 0.000000
vt 1.000000 0.333333
vt 0.500000 0.666667
vt 0.000000 0.000000
vt 1.000000 0.000000
vt 0.500000 0.777778
vt 0.000000 0.000000
vt 0.000000 0.000000
vt 0.000000 0.666667
vt 0.000000 0.000000
vt 1.000000 0.666667
vt 0.000000 0.000000
vt 0.000000 0.777778
vt 0.000000 0.000000
vt 0.000000 0.000000
vt 0.000000 0.000000
vt 0.000000 0.000000
vt 0.000000 0.000000
vt 0.000000 0.000000
vt 0.000000 0.000000
vn -0.0000 -0.0000 -1.0000
vn 0.0000 -1.0000 0.0000
vn 1.0000 0.0000 0.0000
vn 0.0000 1.0000 0.0000
usemtl wall
s off
f 2/1/1 7/2/1 20/3/1
f 1/4/2 12/5/2 2/1/2
f 15/6/3 18/7/3 16/8/3
f 15/6/4 4/9/4 20/3/4
f 17/10/1 20/3/1 5/11/1
f 4/9/1 1/4/1 20/3/1
f 1/4/1 2/1/1 20/3/1
f 7/2/1 5/11/1 20/3/1
f 1/4/2 13/12/2 12/5/2
f 15/6/3 20/3/3 18/7/3
f 15/6/4 6/13/4 4/9/4
f 5/11/1 19/14/1 17/10/1
f 17/10/1 18/7/1 20/3/1
usemtl roof
f 9/15/3 19/14/3 5/11/3
f 10/16/4 18/7/4 17/10/4
f 17/10/4 14/17/4 11/18/4
f 7/2/3 3/19/3 5/11/3
f 3/19/3 9/15/3 5/11/3
f 10/16/4 16/8/4 18/7/4
f 17/10/4 19/14/4 14/17/4
usemtl accent2
f 6/13/1 16/8/1 8/20/1
f 6/13/1 15/6/1 16/8/1
l 10 11
