# Blender v2.83.0 OBJ File: 'residence.blend'
# www.blender.org
mtllib Outer_Corner_Roof_Wall_Inner_Corner.mtl
o Outer_Corner_Roof_Wall_Inner_Corner
v 0.100000 1.000000 1.000000
v 0.000000 1.000000 1.000000
v 1.000000 1.000000 0.000000
v 1.000000 1.000000 0.100000
v 0.000000 1.000000 0.000000
v 0.100000 1.000000 0.100000
vt 0.104443 0.513538
vt 1.000000 0.180205
vt 0.104443 0.180205
vt 0.000000 0.180205
vt 1.000000 0.513538
vt 0.000000 0.513538
vn 0.0000 1.0000 0.0000
usemtl roof
s off
f 6/1/1 3/2/1 5/3/1
f 2/4/1 6/1/1 5/3/1
f 6/1/1 4/5/1 3/2/1
f 2/4/1 1/6/1 6/1/1
