# Blender v2.83.0 OBJ File: 'residence.blend'
# www.blender.org
mtllib Straight_Edge_Wall_Roof_Outer_Corner.mtl
o Straight_Edge_Wall_Roof_Outer_Corner
v 0.000000 0.000000 0.100000
v 1.000000 0.000000 0.100000
v -0.000049 0.500000 0.099996
v 1.000000 0.500000 0.100004
v 1.000000 0.000000 0.200000
v 0.000000 0.000000 0.200000
v -0.000098 1.000001 -0.000008
v 1.000000 1.000000 0.000008
v 0.000000 1.000000 1.000020
v 1.000000 1.000000 1.000020
v 1.000000 0.500000 0.000006
v -0.000074 0.500000 -0.000006
v -0.000098 1.000001 -0.000008
v 1.000000 1.000000 0.000008
v 0.000000 1.000000 1.000020
v 1.000000 1.000000 1.000020
vt 0.000000 0.000000
vt 0.000000 0.000000
vt 0.000000 0.000000
vt 0.000000 0.000000
vt 0.000000 0.000000
vt 0.000000 0.000000
vt 0.000000 0.000000
vt 0.000000 0.000000
vt 0.000000 0.000000
vt 0.000000 0.000000
vt 0.000000 0.000000
vt 0.000000 0.000000
vt 0.000000 0.000000
vt 0.000000 0.000000
vt 0.000000 0.000000
vt 0.000000 0.000000
vn 0.0000 0.0000 1.0000
vn 0.0000 0.0000 -1.0000
vn -0.0000 -1.0000 0.0000
vn 0.0000 1.0000 0.0000
usemtl roof
s off
f 9/1/1 13/2/1 15/3/1
f 12/4/2 8/5/2 11/6/2
f 3/7/3 11/6/3 4/8/3
f 8/5/1 16/9/1 14/10/1
f 10/11/1 15/3/1 16/9/1
f 7/12/1 14/10/1 13/2/1
f 8/5/4 9/1/4 10/11/4
f 9/1/1 7/12/1 13/2/1
f 12/4/2 7/12/2 8/5/2
f 3/7/3 12/4/3 11/6/3
f 8/5/1 10/11/1 16/9/1
f 10/11/1 9/1/1 15/3/1
f 7/12/1 8/5/1 14/10/1
f 8/5/4 7/12/4 9/1/4
usemtl wall
f 5/13/3 1/14/3 2/15/3
f 1/14/2 4/8/2 2/15/2
f 5/13/3 6/16/3 1/14/3
f 1/14/2 3/7/2 4/8/2
